<svg width="278" height="71" viewBox="0 0 278 71" fill="none" xmlns="http://www.w3.org/2000/svg">
<g clip-path="url(#clip0_250_726)">
<path d="M242.353 5.11552C239.002 5.65398 234.456 7.30783 231.451 9.0386C228.06 11.0001 222.705 16.3848 220.74 19.7309C218.506 23.5771 217.003 28.7309 216.772 33.3463L216.58 37.2309L218.39 33.7694C219.854 31.0386 221.01 29.5386 223.938 26.654C227.02 23.5386 228.176 22.6924 231.258 21.154C236.189 18.6924 239.926 17.8078 245.204 17.8078C256.993 17.8078 267.164 24.0771 272.326 34.5386C273.983 37.9617 275.177 41.654 275.177 43.5386C275.177 44.9617 275.755 44.0771 276.294 41.8848C277.065 38.7309 277.258 33.8463 276.718 30.6155C274.407 16.154 262.695 5.61552 248.209 4.92322C246.206 4.84629 243.548 4.92322 242.353 5.11552Z" fill="white"/>
<path d="M5.42026 33.9232C5.38174 49.3848 5.34321 62.8463 5.30469 63.8463V65.6925L20.4838 65.8078C36.7032 65.8848 38.1286 65.7694 41.9812 63.9232C47.7986 61.1155 51.42 53.9617 50.2257 47.5386C48.6847 39.2694 42.482 33.8848 33.3899 33.0001C27.9578 32.4617 23.1036 34.0771 19.3281 37.654C15.2058 41.5771 13.2025 47.654 14.5123 52.154C15.2829 54.7309 16.6698 56.5386 18.7887 57.4617C22.8339 59.3078 27.534 57.3463 28.5742 53.3848C29.3062 50.5771 27.7267 47.3463 25.1454 46.2694C23.3733 45.5386 20.4068 45.9617 18.7887 47.1924C17.2091 48.4232 17.0936 48.0001 18.3649 45.3078C19.4051 43.0386 21.7552 40.7694 23.797 40.1155C25.6848 39.5001 30.3464 39.8078 31.9645 40.654C33.9293 41.654 35.8941 43.5386 36.8187 45.2694C37.4351 46.4617 37.6278 47.5001 37.6278 49.7309C37.5892 54.7309 35.0466 58.8848 30.6546 61.1155C28.6513 62.1155 28.0349 62.2309 24.7602 62.2309C21.3699 62.2309 20.8691 62.1155 18.519 60.9617C13.2795 58.3848 11.4303 54.8463 11.7385 48.1155C11.8926 44.7694 12.0852 44.0386 13.318 41.5771C15.0902 38.0001 16.8624 35.9232 20.2527 33.5386L22.9495 31.654H20.792H18.5961V21.0386V10.3848L21.6396 10.5771C28.266 10.9617 32.5809 15.0386 32.6194 20.8848C32.658 24.3463 31.926 26.1155 29.5759 28.4232L27.5726 30.3463H31.0784C33.0047 30.3463 35.8556 30.6155 37.4351 30.8848L40.286 31.4232L41.75 29.7694C46.142 24.8463 45.9108 16.6924 41.2107 11.7694C38.9762 9.42321 37.0884 8.23091 33.6211 7.00014C31.2325 6.19245 30.462 6.11552 18.3264 5.96168L5.49732 5.80783L5.42026 33.9232Z" fill="white"/>
<path d="M116.259 7.42327C109.093 8.57712 103.815 11.9233 101.349 16.9233C99.0377 21.654 99.4615 28.3464 102.312 32.1156C105.086 35.731 109.054 37.5387 121.845 40.8848C132.902 43.8079 135.021 45.5387 134.481 51.3079C134.25 53.731 132.748 55.654 129.897 57.231C127.971 58.2694 127.431 58.3848 123.347 58.5002C118.069 58.6925 115.45 58.0771 112.329 56.0771C110.095 54.6156 108.554 52.3079 108.168 49.9233C107.59 46.3079 108.207 46.654 102.582 46.654C96.8417 46.654 97.3041 46.231 98.1131 50.8848C99.4615 58.4617 104.778 63.6156 113.562 65.9233C117.877 67.0387 125.775 67.0771 129.974 65.9617C136.292 64.2694 140.877 60.9233 143.15 56.3079C144.344 53.8848 144.382 53.5771 144.382 49.154C144.382 44.8848 144.305 44.3848 143.304 42.3464C142.687 41.0771 141.416 39.4233 140.299 38.4233C137.255 35.6925 134.25 34.4617 123.579 31.6156C111.559 28.4233 109.94 27.5387 109.594 24.0387C109.247 20.2694 111.289 17.3079 115.064 16.0002C117.607 15.154 123.617 15.154 126.044 16.0387C129.512 17.3079 131.939 20.1156 132.478 23.4617L132.748 25.1156H137.64H142.572L142.379 23.4617C141.262 13.4233 134.212 7.73097 122.307 7.23097C120.265 7.15405 117.53 7.23097 116.259 7.42327Z" fill="white"/>
<path d="M62.7853 8.65385C62.7082 8.92308 59.8958 16.2308 56.5441 24.8462C53.2309 33.4615 50.5726 40.8077 50.6882 41.1923C50.8038 41.5385 51.3431 42.9231 51.921 44.2692C53.8088 48.7692 53.2694 54.3846 50.5726 58.5769C48.8004 61.2308 46.2962 63.2308 43.0601 64.4231L40.7485 65.3077L45.911 65.4231C48.7619 65.4615 51.189 65.3846 51.3431 65.2308C51.4972 65.0769 52.8071 61.6923 54.2711 57.6923L56.9293 50.5L68.2944 50.5769L79.6595 50.6923L82.3178 58.0769L84.9761 65.5H90.3697H95.7248L95.4936 64.6154C95.378 64.1538 90.4467 51.3077 84.5523 36.0769L73.8421 8.38462L68.41 8.26923C64.2878 8.19231 62.9394 8.3077 62.7853 8.65385ZM72.7249 31.0385C74.9594 37.3462 76.7701 42.5385 76.7701 42.6538C76.7701 42.7308 72.956 42.8077 68.2944 42.8077C63.3246 42.8077 59.8188 42.6538 59.8188 42.4615C59.8188 42.2692 61.5524 37.4615 63.6328 31.7692C68.5256 18.5769 68.2944 19.1923 68.4871 19.4231C68.6026 19.5 70.4904 24.7308 72.7249 31.0385Z" fill="white"/>
<path d="M153.436 36.8462V65.5H158.637H163.838L163.761 36.9615L163.645 8.38461L158.56 8.26923L153.436 8.15384V36.8462Z" fill="white"/>
<path d="M170.272 8.46154C170.118 8.57692 170.002 10.5769 170.002 12.8846V17.0385H179.248H188.494V41.2692V65.5H193.503H198.511V41.2692V17.0385H207.757H217.042L216.926 12.6923L216.811 8.38461L193.657 8.26923C180.943 8.23077 170.387 8.30769 170.272 8.46154Z" fill="white"/>
<path d="M253.834 21.4617C260.114 24.577 263.581 30.7694 263.157 38.1155C262.888 42.5386 261.385 45.8463 258.187 49.077C249.596 57.654 234.379 54.8463 233.3 44.5386C233.184 43.4232 233.223 42.0001 233.377 41.3847L233.647 40.3078L234.224 41.4617C236.729 46.3078 242.584 47.3463 247.285 43.7694C249.095 42.3847 250.213 39.8463 250.174 37.0386C250.136 25.6924 233.762 21.3847 224.131 30.1924C220.548 33.4617 218.198 39.3463 218.737 43.7694C220.085 54.5001 226.481 62.2309 236.844 65.7309C239.271 66.5386 240.889 66.8078 244.549 66.9232C250.367 67.154 254.45 66.3078 259.69 63.6924C265.777 60.7309 271.325 54.7694 273.829 48.654C274.792 46.3078 274.792 46.1924 274.253 43.6155C273.097 38.0386 270.631 33.3847 266.548 29.077C263.427 25.7694 259.613 23.1155 255.76 21.6155C252.37 20.2694 251.253 20.1924 253.834 21.4617Z" fill="white"/>
</g>
<defs>
<clipPath id="clip0_250_726">
<rect width="277" height="70" fill="white" transform="translate(0.48877 0.5)"/>
</clipPath>
</defs>
</svg>
