<svg width="354" height="71" viewBox="0 0 354 71" fill="none" xmlns="http://www.w3.org/2000/svg">
<path d="M47.0841 17.2332V35.1252L27.7583 27.7382V10.0701L47.0841 17.2332Z" fill="white"/>
<path d="M41.067 44.2362C40.8319 47.4465 36.8913 48.4046 35.0208 48.4831C35.8039 49.1301 36.8969 49.1301 38.524 48.4831C38.0508 50.2227 35.6463 50.7521 33.8808 50.9622C31.8718 51.1948 30.3332 52.1108 29.9486 53.2314C26.105 47.6596 31.3848 44.6116 34.34 43.5582C37.7409 42.3538 40.2977 41.7039 41.745 39.7009C42.0411 42.5021 39.2546 44.9842 37.4006 45.7714C38.6763 46.0796 40.3863 45.242 41.067 44.2362Z" fill="white"/>
<path d="M27.7608 10.0678V27.7359L27.7164 27.7191L25.8957 28.4224L25.7572 28.4754L23.7843 29.2514V29.2402L20.3448 30.5681V30.5876L16.4126 32.0893L12.4805 33.6076V33.6301L9.38955 34.8037L9.33144 34.826L8.56219 35.1231V35.1174L8.54834 35.1231V17.2114L12.3089 15.8274L12.4805 15.7629L16.4126 14.2894V14.2867L20.3448 12.8077V12.8132L23.6847 11.561V11.5385L27.7136 10.051H27.7164L27.7608 10.0678Z" fill="white"/>
<path d="M26.0711 53.2314C25.6865 52.1108 24.1479 51.1948 22.1361 50.9622C20.3707 50.7521 17.9688 50.2227 17.4956 48.4831C19.1227 49.1301 20.2158 49.1301 20.9989 48.4831C19.1255 48.4046 15.1878 47.4465 14.9498 44.2362C15.6333 45.242 17.3407 46.0796 18.6191 45.7714C16.7651 44.9842 13.9786 42.4994 14.2719 39.7009C15.7219 41.7039 18.2787 42.3538 21.6796 43.5582C24.6349 44.6088 29.9119 47.6596 26.0711 53.2314Z" fill="white"/>
<path d="M47.0841 17.2332V35.1252L27.7583 27.7382V10.0701L47.0841 17.2332Z" fill="white"/>
<path d="M41.067 44.2362C40.8319 47.4465 36.8913 48.4046 35.0208 48.4831C35.8039 49.1301 36.8969 49.1301 38.524 48.4831C38.0508 50.2227 35.6463 50.7521 33.8808 50.9622C31.8718 51.1948 30.3332 52.1108 29.9486 53.2314C26.105 47.6596 31.3848 44.6116 34.34 43.5582C37.7409 42.3538 40.2977 41.7039 41.745 39.7009C42.0411 42.5021 39.2546 44.9842 37.4006 45.7714C38.6763 46.0796 40.3863 45.242 41.067 44.2362Z" fill="white"/>
<path d="M27.7608 10.0678V27.7359L27.7164 27.7191L25.8957 28.4224L25.7572 28.4754L23.7843 29.2514V29.2402L20.3448 30.5681V30.5876L16.4126 32.0893L12.4805 33.6076V33.6301L9.38955 34.8037L9.33144 34.826L8.56219 35.1231V35.1174L8.54834 35.1231V17.2114L12.3089 15.8274L12.4805 15.7629L16.4126 14.2894V14.2867L20.3448 12.8077V12.8132L23.6847 11.561V11.5385L27.7136 10.051H27.7164L27.7608 10.0678Z" fill="white"/>
<path d="M26.0711 53.2314C25.6865 52.1108 24.1479 51.1948 22.1361 50.9622C20.3707 50.7521 17.9688 50.2227 17.4956 48.4831C19.1227 49.1301 20.2158 49.1301 20.9989 48.4831C19.1255 48.4046 15.1878 47.4465 14.9498 44.2362C15.6333 45.242 17.3407 46.0796 18.6191 45.7714C16.7651 44.9842 13.9786 42.4994 14.2719 39.7009C15.7219 41.7039 18.2787 42.3538 21.6796 43.5582C24.6349 44.6088 29.9119 47.6596 26.0711 53.2314Z" fill="white"/>
<path d="M41.067 44.2362C40.8319 47.4465 36.8913 48.4046 35.0208 48.4831C35.8039 49.1301 36.8969 49.1301 38.524 48.4831C38.0508 50.2227 35.6463 50.7521 33.8808 50.9622C31.8718 51.1948 30.3332 52.1108 29.9486 53.2314C26.105 47.6596 31.3848 44.6116 34.34 43.5582C37.7409 42.3538 40.2977 41.7039 41.745 39.7009C42.0411 42.5021 39.2546 44.9842 37.4006 45.7714C38.6763 46.0796 40.3863 45.242 41.067 44.2362Z" fill="white"/>
<path d="M26.0711 53.2314C25.6865 52.1108 24.1479 51.1948 22.1361 50.9622C20.3707 50.7521 17.9688 50.2227 17.4956 48.4831C19.1227 49.1301 20.2158 49.1301 20.9989 48.4831C19.1255 48.4046 15.1878 47.4465 14.9498 44.2362C15.6333 45.242 17.3407 46.0796 18.6191 45.7714C16.7651 44.9842 13.9786 42.4994 14.2719 39.7009C15.7219 41.7039 18.2787 42.3538 21.6796 43.5582C24.6349 44.6088 29.9119 47.6596 26.0711 53.2314Z" fill="white"/>
<path d="M47.0884 17.2309V35.1231L27.7626 27.7359L27.7182 27.7191L25.8975 28.4224L25.759 28.4754L23.7861 29.2402L20.3466 30.5681L16.4144 32.0893L12.4823 33.6076L9.39135 34.8037L9.33324 34.826L8.56396 35.1231V17.2309L12.3107 15.8274L12.4823 15.7629L16.4144 14.2894V14.2867L20.3466 12.8132L23.6865 11.561L27.7154 10.051H27.7182L27.7626 10.0678L47.0884 17.2309Z" fill="white"/>
<path d="M47.0841 17.2332V35.1252L27.7583 27.7382V10.0701L47.0841 17.2332Z" fill="white"/>
<path d="M41.067 44.2362C40.8319 47.4465 36.8913 48.4046 35.0208 48.4831C35.8039 49.1301 36.8969 49.1301 38.524 48.4831C38.0508 50.2227 35.6463 50.7521 33.8808 50.9622C31.8718 51.1948 30.3332 52.1108 29.9486 53.2314C26.105 47.6596 31.3848 44.6116 34.34 43.5582C37.7409 42.3538 40.2977 41.7039 41.745 39.7009C42.0411 42.5021 39.2546 44.9842 37.4006 45.7714C38.6763 46.0796 40.3863 45.242 41.067 44.2362Z" fill="white"/>
<path d="M27.7591 0.5L0.48877 10.6466V40.2455C1.64267 48.6215 8.71277 66.4044 27.7591 70.5C46.8055 66.3932 53.8727 48.6102 55.0266 40.2455V10.6466L27.7591 0.5ZM51.1804 39.6795C50.1896 46.8734 44.1185 62.1463 27.7591 65.6732C11.3997 62.1463 5.32577 46.8734 4.33512 39.6795V14.2546L27.7591 5.53966L51.1804 14.2546V39.6795Z" fill="white"/>
<path d="M27.7608 10.0678V27.7359L27.7164 27.7191L25.8957 28.4224L25.7572 28.4754L23.7843 29.2514V29.2402L20.3448 30.5681V30.5876L16.4126 32.0893L12.4805 33.6076V33.6301L9.38955 34.8037L9.33144 34.826L8.56219 35.1231V35.1174L8.54834 35.1231V17.2114L12.3089 15.8274L12.4805 15.7629L16.4126 14.2894V14.2867L20.3448 12.8077V12.8132L23.6847 11.561V11.5385L27.7136 10.051H27.7164L27.7608 10.0678Z" fill="white"/>
<path d="M26.0711 53.2314C25.6865 52.1108 24.1479 51.1948 22.1361 50.9622C20.3707 50.7521 17.9688 50.2227 17.4956 48.4831C19.1227 49.1301 20.2158 49.1301 20.9989 48.4831C19.1255 48.4046 15.1878 47.4465 14.9498 44.2362C15.6333 45.242 17.3407 46.0796 18.6191 45.7714C16.7651 44.9842 13.9786 42.4994 14.2719 39.7009C15.7219 41.7039 18.2787 42.3538 21.6796 43.5582C24.6349 44.6088 29.9119 47.6596 26.0711 53.2314Z" fill="white"/>
<path d="M47.0841 17.2332V35.1252L27.7583 27.7382V10.0701L47.0841 17.2332Z" fill="white"/>
<path d="M41.067 44.2362C40.8319 47.4465 36.8913 48.4046 35.0208 48.4831C35.8039 49.1301 36.8969 49.1301 38.524 48.4831C38.0508 50.2227 35.6463 50.7521 33.8808 50.9622C31.8718 51.1948 30.3332 52.1108 29.9486 53.2314C26.105 47.6596 31.3848 44.6116 34.34 43.5582C37.7409 42.3538 40.2977 41.7039 41.745 39.7009C42.0411 42.5021 39.2546 44.9842 37.4006 45.7714C38.6763 46.0796 40.3863 45.242 41.067 44.2362Z" fill="white"/>
<path d="M27.7608 10.0678V27.7359L27.7164 27.7191L25.8957 28.4224L25.7572 28.4754L23.7843 29.2514V29.2402L20.3448 30.5681V30.5876L16.4126 32.0893L12.4805 33.6076V33.6301L9.38955 34.8037L9.33144 34.826L8.56219 35.1231V35.1174L8.54834 35.1231V17.2114L12.3089 15.8274L12.4805 15.7629L16.4126 14.2894V14.2867L20.3448 12.8077V12.8132L23.6847 11.561V11.5385L27.7136 10.051H27.7164L27.7608 10.0678Z" fill="white"/>
<path d="M26.0711 53.2314C25.6865 52.1108 24.1479 51.1948 22.1361 50.9622C20.3707 50.7521 17.9688 50.2227 17.4956 48.4831C19.1227 49.1301 20.2158 49.1301 20.9989 48.4831C19.1255 48.4046 15.1878 47.4465 14.9498 44.2362C15.6333 45.242 17.3407 46.0796 18.6191 45.7714C16.7651 44.9842 13.9786 42.4994 14.2719 39.7009C15.7219 41.7039 18.2787 42.3538 21.6796 43.5582C24.6349 44.6088 29.9119 47.6596 26.0711 53.2314Z" fill="white"/>
<path d="M28.0184 31.937L27.7583 32.0323L8.36328 39.2317C9.19343 45.2211 14.2297 57.8746 27.7583 60.9309L28.0184 60.9897C34.7454 59.5134 39.3637 55.5804 42.391 51.2634C45.4183 46.9467 46.8738 42.2432 47.2806 39.2177L28.0184 31.937ZM26.0676 53.2273C25.6829 52.1067 24.1444 51.1907 22.1326 50.9581C20.3671 50.748 17.9653 50.2186 17.4921 48.479C19.1192 49.126 20.2123 49.126 20.9954 48.479C19.122 48.4005 15.1843 47.4424 14.9463 44.2321C15.6298 45.2379 17.3372 46.0754 18.6156 45.7673C16.7616 44.9801 13.9751 42.4953 14.2684 39.6968C15.7184 41.6997 18.2752 42.3497 21.6761 43.5541C24.6314 44.6075 29.9083 47.6582 26.0676 53.2301V53.2273ZM41.0655 44.2321C40.8303 47.4424 36.89 48.4005 35.0192 48.479C35.8023 49.126 36.8955 49.126 38.5225 48.479C38.0492 50.2186 35.6447 50.748 33.8793 50.9581C31.8702 51.1907 30.3316 52.1067 29.947 53.2273C26.1035 47.6555 31.3832 44.6075 34.3385 43.5541C37.7394 42.3497 40.2962 41.6997 41.7434 39.6968C42.0395 42.498 39.2531 44.9801 37.3991 45.7673C38.6747 46.0782 40.3847 45.2407 41.0655 44.2351V44.2321Z" fill="white"/>
<path d="M41.067 44.2362C40.8319 47.4465 36.8913 48.4046 35.0208 48.4831C35.8039 49.1301 36.8969 49.1301 38.524 48.4831C38.0508 50.2227 35.6463 50.7521 33.8808 50.9622C31.8718 51.1948 30.3332 52.1108 29.9486 53.2314C26.105 47.6596 31.3848 44.6116 34.34 43.5582C37.7409 42.3538 40.2977 41.7039 41.745 39.7009C42.0411 42.5021 39.2546 44.9842 37.4006 45.7714C38.6763 46.0796 40.3863 45.242 41.067 44.2362Z" fill="white"/>
<path d="M26.0711 53.2314C25.6865 52.1108 24.1479 51.1948 22.1361 50.9622C20.3707 50.7521 17.9688 50.2227 17.4956 48.4831C19.1227 49.1301 20.2158 49.1301 20.9989 48.4831C19.1255 48.4046 15.1878 47.4465 14.9498 44.2362C15.6333 45.242 17.3407 46.0796 18.6191 45.7714C16.7651 44.9842 13.9786 42.4994 14.2719 39.7009C15.7219 41.7039 18.2787 42.3538 21.6796 43.5582C24.6349 44.6088 29.9119 47.6596 26.0711 53.2314Z" fill="white"/>
<path d="M47.0884 17.2309V35.1231L27.7626 27.7359L27.7182 27.7191L25.8975 28.4224L25.759 28.4754L23.7861 29.2402L20.3466 30.5681L16.4144 32.0893L12.4823 33.6076L9.39135 34.8037L9.33324 34.826L8.56396 35.1231V17.2309L12.3107 15.8274L12.4823 15.7629L16.4144 14.2894V14.2867L20.3466 12.8132L23.6865 11.561L27.7154 10.051H27.7182L27.7626 10.0678L47.0884 17.2309Z" fill="white"/>
<path d="M26.0711 53.2314C25.6865 52.1108 24.1479 51.1948 22.1361 50.9622C20.3707 50.7521 17.9688 50.2227 17.4956 48.4831C19.1227 49.1301 20.2158 49.1301 20.9989 48.4831C19.1255 48.4046 15.1878 47.4465 14.9498 44.2362C15.6333 45.242 17.3407 46.0796 18.6191 45.7714C16.7651 44.9842 13.9786 42.4994 14.2719 39.7009C15.7219 41.7039 18.2787 42.3538 21.6796 43.5582C24.6349 44.6088 29.9119 47.6596 26.0711 53.2314Z" fill="black"/>
<path d="M41.067 44.2362C40.8319 47.4465 36.8913 48.4046 35.0208 48.4831C35.8039 49.1301 36.8969 49.1301 38.524 48.4831C38.0508 50.2227 35.6463 50.7521 33.8808 50.9622C31.8718 51.1948 30.3332 52.1108 29.9486 53.2314C26.105 47.6596 31.3848 44.6116 34.34 43.5582C37.7409 42.3538 40.2977 41.7039 41.745 39.7009C42.0411 42.5021 39.2546 44.9842 37.4006 45.7714C38.6763 46.0796 40.3863 45.242 41.067 44.2362Z" fill="black"/>
<path d="M12.4805 15.7642V33.6311L9.38955 34.805L9.33144 34.8273L8.56219 35.1186L8.54834 35.1243V17.2124L12.3089 15.8287L12.4805 15.7642Z" fill="black"/>
<path d="M27.7111 10.051V27.7079L25.893 28.4224L25.7547 28.4754L23.7817 29.2514V29.2402L23.6821 11.561V11.5385L27.7111 10.051Z" fill="black"/>
<path d="M20.3398 12.8081V30.5881L16.4077 32.0898V14.2871L20.3398 12.8081Z" fill="black"/>
<path d="M37.4003 16.9713C37.4169 16.9195 37.4492 16.8745 37.4928 16.8425C37.5362 16.8104 37.5887 16.7932 37.6423 16.7932C37.6962 16.7932 37.7484 16.8104 37.792 16.8425C37.8354 16.8745 37.868 16.9195 37.8845 16.9713L38.9527 20.3049C38.9704 20.3558 39.0034 20.3998 39.047 20.431C39.0906 20.4622 39.1428 20.4787 39.1961 20.4785H42.6552C42.7092 20.4781 42.7621 20.4953 42.8061 20.5272C42.85 20.5594 42.8826 20.6048 42.8994 20.657C42.9159 20.7091 42.9157 20.7653 42.8988 20.8174C42.8816 20.8695 42.8487 20.9147 42.8045 20.9464L40.004 23.0026C39.9646 23.0361 39.9352 23.0801 39.919 23.1294C39.9031 23.1789 39.9009 23.232 39.9129 23.2827L40.9838 26.6135C40.9982 26.665 40.9964 26.7197 40.9789 26.77C40.9613 26.8203 40.9286 26.8639 40.8854 26.8946C40.8422 26.9254 40.7907 26.942 40.738 26.9418C40.6852 26.9416 40.6337 26.9248 40.5907 26.8936L37.7932 24.8319C37.7496 24.8004 37.6973 24.7834 37.6437 24.7834C37.5902 24.7834 37.538 24.8004 37.4944 24.8319L34.6939 26.8936C34.6509 26.9236 34.5999 26.9396 34.5478 26.9392C34.4955 26.939 34.4446 26.9224 34.402 26.8919C34.3594 26.8613 34.3273 26.8181 34.3097 26.7684C34.2921 26.7185 34.29 26.6644 34.3038 26.6135L35.3719 23.2827C35.3839 23.232 35.3818 23.1789 35.3656 23.1294C35.3494 23.0801 35.32 23.0361 35.2806 23.0026L32.4802 20.9464C32.4362 20.9147 32.403 20.8695 32.3861 20.8174C32.3689 20.7653 32.3687 20.7091 32.3855 20.657C32.402 20.6048 32.4348 20.5594 32.4788 20.5272C32.5226 20.4953 32.5754 20.4781 32.6297 20.4785H36.0885C36.142 20.4791 36.1945 20.4627 36.2381 20.4316C36.2819 20.4004 36.3146 20.356 36.3321 20.3049L37.4003 16.9713Z" fill="black"/>
<path d="M102.553 34.5931C103.804 33.207 104.511 31.406 104.541 29.5292C104.541 25.6935 102.769 22.6755 97.0213 22.6755H74.7524V48.7465H97.8887C103.637 48.7465 106.13 45.5429 106.13 41.1483C106.132 38.1324 104.716 35.9739 102.553 34.5931ZM81.2607 27.5185H94.6706C96.4424 27.5185 98.0328 27.5185 98.0328 30.2006C98.0328 32.9121 96.4424 32.9121 94.7077 32.9121H81.2607V27.5185ZM96.3004 43.5782H81.2607V38.0636H96.3004C98.035 38.0636 99.6255 38.0636 99.6255 40.823C99.6255 43.5824 98.0328 43.5719 96.2982 43.5719L96.3004 43.5782Z" fill="white"/>
<path d="M136.854 28.0024V22.6755H110.096V48.7465H136.854V43.4196H116.604V38.1305H136.854V33.2916H116.604V28.0024H136.854Z" fill="white"/>
<path d="M147.539 43.1261V22.6865H141.033V48.7573H167.061V43.1261H147.539Z" fill="white"/>
<path d="M177.9 43.1261V22.6865H171.392V48.7573H197.423V43.1261H177.9Z" fill="white"/>
<path d="M228.745 48.75H235.937L222.853 22.6792H214.067L201.019 48.75H208.175L210.887 43.2H226.032L228.745 48.75ZM213.308 38.2091L218.476 27.6305L223.608 38.2091H213.308Z" fill="white"/>
<path d="M279.349 22.6755H248.26V28.307H260.551V48.7465H267.062V28.307H279.355L279.349 22.6755Z" fill="white"/>
<path d="M322.048 22.6755H313.262L302.672 41.0753L292.079 22.6755H283.295V48.7465H289.803V30.8701L300.311 48.7485H305.009L315.531 30.8701V48.7485H322.036L322.048 22.6755Z" fill="white"/>
<path d="M353.511 28.0024V22.6755H326.761V48.7465H353.511V43.4196H333.267V38.1305H353.511V33.2916H333.267V28.0024H353.511Z" fill="white"/>
</svg>
