<svg width="32" height="33" viewBox="0 0 32 33" fill="none" xmlns="http://www.w3.org/2000/svg">
<path d="M5.49203 4.8916H10.159C10.4429 4.89168 10.6543 4.97797 10.827 5.14062C11.0199 5.3222 11.1656 5.57111 11.2508 5.91113L12.1405 9.93945C12.1874 10.2674 12.1776 10.5381 12.1248 10.7598C12.0758 10.9658 11.9768 11.1378 11.8211 11.2861L11.8153 11.293L8.45785 14.6035L8.17855 14.8789L8.37875 15.2158C8.94455 16.1667 9.54556 17.0567 10.1815 17.8857C10.8202 18.7185 11.5294 19.5106 12.3084 20.2617C13.122 21.1019 13.9723 21.864 14.8592 22.5469C15.7522 23.2344 16.6848 23.8358 17.6571 24.3506L17.9881 24.5264L18.2498 24.2578L21.4559 20.9678L21.4657 20.957C21.6698 20.7355 21.8904 20.5969 22.1297 20.5254L22.1307 20.5264C22.3247 20.4688 22.5181 20.4468 22.7127 20.4609L22.908 20.4873L26.6815 21.3223C27.0065 21.4128 27.2512 21.5722 27.4364 21.7959C27.6173 22.0144 27.7068 22.2617 27.7069 22.5586V27.1064C27.7069 27.4642 27.5921 27.7372 27.367 27.96C27.1393 28.1853 26.8659 28.2979 26.5155 28.2979C23.9878 28.2978 21.404 27.6906 18.7596 26.4619C16.116 25.2337 13.6586 23.4879 11.3885 21.2178C9.2605 19.0897 7.59223 16.7959 6.37777 14.3369L6.14046 13.8438L5.91683 13.3477C4.8353 10.8732 4.30062 8.45532 4.30062 6.09082C4.30064 5.77775 4.38843 5.52831 4.56136 5.31934L4.64046 5.23242C4.86541 5.00624 5.13797 4.8916 5.49203 4.8916ZM5.58773 6.69238C5.62844 7.63067 5.77599 8.61702 6.02718 9.65039C6.27992 10.69 6.67732 11.8408 7.21371 13.0996L7.50277 13.7783L8.02621 13.2578L10.7176 10.5801L10.911 10.3877L10.8543 10.1211L10.0955 6.56641L10.0116 6.1709H5.56527L5.58773 6.69238ZM26.4286 22.5703L26.0291 22.4883L22.7157 21.8027L22.4442 21.7461L22.2528 21.9473L19.6356 24.6904L19.1541 25.1943L19.786 25.4883C20.7021 25.9145 21.6961 26.261 22.7664 26.5293C23.838 26.7978 24.8839 26.9592 25.9032 27.0107L26.4286 27.0371V22.5703Z" fill="white" stroke="white"/>
</svg>
