<svg width="16" height="10" viewBox="0 0 16 10" fill="none" xmlns="http://www.w3.org/2000/svg">
<path d="M7.99982 1.60571C8.12488 1.60571 8.22509 1.64355 8.33185 1.75024L14.9246 8.34204C15.0338 8.45126 15.0691 8.54996 15.0692 8.66626C15.0692 8.78257 15.0337 8.88127 14.9246 8.99048C14.8206 9.09453 14.7181 9.13492 14.5838 9.13501C14.4493 9.13501 14.3462 9.09465 14.242 8.99048L14.241 8.9895L8.47052 3.25122L7.99884 2.78247L1.75763 9.02368C1.65398 9.12734 1.56534 9.1565 1.45782 9.15259C1.33214 9.14799 1.22393 9.10522 1.10919 8.99048C1.00504 8.88632 0.964661 8.78419 0.964661 8.64966C0.964673 8.51515 1.00504 8.41299 1.10919 8.30884L7.66779 1.75024C7.77454 1.64349 7.87478 1.60575 7.99982 1.60571Z" fill="white" stroke="white" stroke-width="1.33333"/>
</svg>
