<svg width="241" height="71" viewBox="0 0 241 71" fill="none" xmlns="http://www.w3.org/2000/svg">
<g clip-path="url(#clip0_250_776)">
<mask id="mask0_250_776" style="mask-type:luminance" maskUnits="userSpaceOnUse" x="0" y="0" width="241" height="69">
<path d="M240.511 0.5H0.51123V68.6818H240.511V0.5Z" fill="white"/>
</mask>
<g mask="url(#mask0_250_776)">
<path d="M33.007 42.0535C34.615 42.0535 35.9828 41.4999 37.0388 40.4165C38.0948 39.3571 38.6228 38.0329 38.6228 36.3957C38.6228 31.7973 36.8228 27.7045 33.175 24.0931C29.551 20.4818 25.135 18.7002 19.9031 18.7002C14.6471 18.7002 10.1351 20.5781 6.27119 24.3579C2.43121 28.1619 0.51123 32.7845 0.51123 38.2015C0.51123 43.6185 2.43121 48.1931 6.24719 51.9965C10.0631 55.8249 14.5991 57.7265 19.927 57.7265C25.255 57.7265 29.431 56.8119 32.479 54.9819C34.183 53.8265 35.023 52.5023 35.023 51.0337C35.023 48.0965 33.031 46.4593 30.655 46.4593C29.431 46.4593 28.183 46.8925 26.863 47.7597C25.543 48.6501 23.575 49.0835 20.911 49.0835C18.2711 49.0835 16.0151 48.3853 14.0951 47.0371C12.1511 45.6889 10.9751 44.0519 10.5431 42.0535H33.007ZM26.383 29.3899C28.183 30.9065 29.239 32.5677 29.551 34.4457H10.5431C10.9511 32.5197 12.0311 30.8343 13.8311 29.3657C15.6551 27.9213 17.7431 27.1989 20.1191 27.1989C22.495 27.1989 24.583 27.9213 26.383 29.3899Z" fill="white"/>
<path d="M69.3199 45.8826C67.3521 47.977 64.8799 49.0126 61.8561 49.0126C58.8561 49.0126 56.3121 47.929 54.2961 45.7862C52.2799 43.5952 51.2483 41.0674 51.2483 38.1302C51.2483 35.193 52.2799 32.665 54.3441 30.5704C56.3841 28.4758 58.9279 27.4166 61.9041 27.4166C64.8799 27.4166 67.3521 28.4036 69.3199 30.426C71.2641 32.4484 72.2241 34.9762 72.2241 38.106C72.2241 41.2358 71.2641 43.788 69.3199 45.8826ZM81.1757 5.3151C81.1757 4.03912 80.6957 2.90756 79.7357 1.94453C78.7757 0.98151 77.6479 0.5 76.3521 0.5C75.0799 0.5 73.9521 0.98151 72.9921 1.94453C72.0321 2.90756 71.5521 4.03912 71.5521 5.3151V22.6014C68.8157 19.929 65.3841 18.6289 61.3761 18.6289C56.1199 18.6289 51.5841 20.4828 47.8161 24.2866C43.9761 28.0906 42.0801 32.7132 42.0801 38.1302C42.0801 43.5712 43.9521 48.1938 47.6483 51.9978C51.3441 55.8256 55.8321 57.7278 61.0879 57.7278C65.0957 57.776 68.6957 56.4036 71.8399 53.6832C71.8399 54.646 72.2957 55.5608 73.1599 56.4036C74.0479 57.2946 75.1037 57.7278 76.3999 57.7278C77.6721 57.7278 78.7757 57.246 79.7357 56.307C80.6957 55.3442 81.1757 54.1884 81.1757 52.9126V5.3151Z" fill="white"/>
<path d="M98.1338 23.2495C98.1338 21.9735 97.654 20.8179 96.694 19.8789C95.734 18.9158 94.606 18.4343 93.334 18.4343C92.0376 18.4343 90.9098 18.9158 89.9498 19.8789C88.9898 20.8179 88.5098 21.9735 88.5098 23.2495V38.0559C88.5098 43.4729 90.4776 48.0475 94.3176 51.8511C98.1818 55.6551 102.886 57.5573 108.334 57.5573C113.806 57.5573 118.462 55.6793 122.326 51.8995C126.141 48.1437 128.061 43.5451 128.061 38.0559V23.2495C128.061 21.9253 127.581 20.7937 126.621 19.8307C125.661 18.9158 124.533 18.4343 123.238 18.4343C121.966 18.4343 120.838 18.9158 119.878 19.8789C118.918 20.8179 118.438 21.9735 118.438 23.2495V38.0559C118.438 41.0413 117.478 43.5451 115.533 45.6397C113.59 47.7345 111.214 48.7697 108.31 48.7697C105.406 48.7697 102.982 47.7345 101.038 45.6397C99.094 43.5451 98.1338 41.0413 98.1338 38.0559V23.2495Z" fill="white"/>
<path fill-rule="evenodd" clip-rule="evenodd" d="M164.332 7.72241H210.123C226.827 7.72241 240.507 21.4215 240.507 38.2021C240.507 54.9586 226.827 68.6819 210.123 68.6819H164.332C147.628 68.6819 133.948 54.9586 133.948 38.2021C133.948 21.4215 147.628 7.72241 164.332 7.72241ZM178.901 24.3111C175.085 20.5071 170.357 18.6533 164.885 18.6533C159.389 18.6533 154.709 20.5071 150.869 24.2629C147.005 28.0669 145.109 32.6653 145.109 38.1305C145.109 43.5957 147.005 48.2183 150.845 52.0223C154.637 55.8501 159.317 57.7523 164.837 57.7523C170.357 57.7523 175.085 55.8501 178.901 51.9741C182.741 48.1459 184.661 43.5235 184.661 38.1305C184.661 32.7375 182.741 28.1151 178.901 24.3111ZM172.421 45.8107C170.405 47.9533 167.861 49.0369 164.885 49.0369C161.909 49.0369 159.365 47.9533 157.349 45.8107C155.309 43.6197 154.277 41.0919 154.277 38.1545C154.277 35.2173 155.309 32.6895 157.373 30.5949C159.437 28.5003 161.933 27.4409 164.909 27.4409C167.909 27.4409 170.405 28.5003 172.421 30.5949C174.461 32.6895 175.469 35.2173 175.469 38.1545C175.469 41.0919 174.461 43.6197 172.421 45.8107ZM219.437 52.9613C219.437 54.2369 219.893 55.3687 220.877 56.3319C221.813 57.2947 222.965 57.7761 224.237 57.7761C225.509 57.7761 226.661 57.2947 227.621 56.3319C228.581 55.3687 229.061 54.2369 229.061 52.9613V38.1305C229.061 32.7375 227.093 28.1151 223.253 24.3111C219.389 20.5071 214.685 18.6533 209.237 18.6533C203.765 18.6533 199.085 20.5071 195.269 24.2629C191.429 28.0669 189.509 32.6653 189.509 38.1305V52.9613C189.509 54.2851 189.989 55.3929 190.949 56.3319C191.909 57.2947 193.037 57.7761 194.333 57.7761C195.605 57.7761 196.733 57.2947 197.693 56.3319C198.653 55.3687 199.133 54.2369 199.133 52.9613V38.1305C199.133 35.1693 200.093 32.6653 202.037 30.5707C203.981 28.4763 206.405 27.4409 209.285 27.4409C212.189 27.4409 214.589 28.4763 216.533 30.5707C218.477 32.6653 219.437 35.1693 219.437 38.1305V52.9613Z" fill="white"/>
</g>
</g>
<defs>
<clipPath id="clip0_250_776">
<rect width="240" height="70" fill="white" transform="translate(0.51123 0.5)"/>
</clipPath>
</defs>
</svg>
