<svg width="48" height="18" viewBox="0 0 48 18" fill="none" xmlns="http://www.w3.org/2000/svg">
<path d="M30.0108 4.98653C29.1933 5.19434 28.5183 5.30567 27.8283 5.55059C27.2808 5.6916 26.7258 5.84004 26.0883 6.00332L26.0433 6.01075C25.7283 6.09981 25.6983 6.10723 25.4058 5.77324C25.0533 5.37989 24.7983 5.12754 24.3108 4.89004C22.8333 4.17754 21.4083 4.38535 20.0808 5.23887C18.4908 6.25567 17.6733 7.76231 17.6958 9.63262C17.7183 11.4881 19.0008 13.0096 20.7858 13.2619C22.4358 13.4697 23.7708 12.9205 24.8208 11.7404C24.9783 11.5475 25.1208 11.3471 25.2783 11.1244C25.3383 11.0502 25.3908 10.9686 25.4508 10.8795H20.9433C20.4558 10.8795 20.3358 10.5826 20.5008 10.1893C20.8008 9.46934 21.3633 8.26699 21.6933 7.66582C21.7608 7.53223 21.9258 7.23535 22.2108 7.23535H29.7933C30.1308 6.24082 30.6783 5.23887 31.4133 4.28887C33.1158 2.06973 35.1108 0.911916 37.9533 0.429494C40.3383 0.0138694 42.5808 0.243948 44.6208 1.60957C46.4658 2.85645 47.6058 4.54864 47.9133 6.76778C48.3108 9.89239 47.3958 12.4307 45.1608 14.6053C43.6833 16.1564 41.7933 17.1287 39.6183 17.5666C39.1983 17.6408 38.7858 17.6779 38.3808 17.715C38.1633 17.7299 37.9533 17.7522 37.7433 17.7744C35.6208 17.7299 33.6783 17.1287 32.0433 15.7408C30.8958 14.7537 30.1008 13.5439 29.7108 12.1412C29.4333 12.683 29.1108 13.21 28.6608 13.7072C27.0408 15.9041 24.8433 17.2697 22.0683 17.6334C19.7733 17.9377 17.6508 17.4998 15.7758 16.1119C14.0508 14.8131 13.0683 13.1061 12.8133 10.976C12.5058 8.45254 13.2558 6.12207 14.7933 4.19981C16.4583 2.04746 18.6558 0.681839 21.3408 0.199417C23.5383 -0.260739 25.6383 0.0584014 27.5358 1.33496C28.7733 2.14395 29.6583 3.24981 30.2433 4.59317C30.3858 4.80098 30.2883 4.91973 30.0108 4.98653ZM3.62583 5.40215C3.52833 5.40215 3.50583 5.35762 3.55833 5.2834L4.05333 4.65996C4.09833 4.59317 4.21833 4.54864 4.30833 4.54864H12.6558C12.7458 4.54864 12.7683 4.61543 12.7233 4.68223L12.3258 5.2834C12.2808 5.35762 12.1608 5.42442 12.0933 5.42442L3.63333 5.40215H3.62583ZM0.0933333 7.53223C0.00333333 7.53223 -0.0266667 7.48028 0.0258333 7.41348L0.513333 6.79004C0.558333 6.72325 0.678333 6.67129 0.768333 6.67129H11.4258C11.5158 6.67129 11.5608 6.74551 11.5383 6.81231L11.3508 7.36895C11.3283 7.45801 11.2383 7.50996 11.1408 7.50996L0.0933333 7.53223ZM5.68083 9.52129C5.63583 9.58809 5.65833 9.65489 5.74833 9.65489L10.8483 9.67715C10.9158 9.67715 11.0133 9.61035 11.0133 9.52129L11.0583 8.96465C11.0583 8.86817 11.0133 8.80137 10.9158 8.80137H6.24333C6.15333 8.80137 6.05583 8.86817 6.01083 8.94239L5.68083 9.52129ZM43.2933 8.18535C43.2783 7.99238 43.2708 7.8291 43.2408 7.66582C42.8208 5.37989 40.6908 4.08106 38.4708 4.59317C36.2958 5.07559 34.8933 6.44121 34.3833 8.61582C33.9633 10.4193 34.8483 12.2451 36.5283 12.9873C37.8183 13.5439 39.1008 13.4772 40.3383 12.8463C42.1833 11.8369 43.1883 10.4193 43.3083 8.43028C43.3008 8.34121 43.3008 8.25957 43.2933 8.18535Z" fill="white"/>
</svg>
