<svg width="42" height="43" viewBox="0 0 42 43" fill="none" xmlns="http://www.w3.org/2000/svg">
<path d="M35.3939 2.59863H6.60606C4.0622 2.59863 2 4.66084 2 7.20469V35.9926C2 38.5364 4.0622 40.5986 6.60606 40.5986H35.3939C37.9378 40.5986 40 38.5364 40 35.9926V7.20469C40 4.66084 37.9378 2.59863 35.3939 2.59863Z" stroke="white" stroke-width="4" stroke-linecap="round" stroke-linejoin="round"/>
<path d="M19.8485 19.8713V31.3865C19.8485 31.9973 19.6058 32.5831 19.1739 33.015C18.742 33.4469 18.1562 33.6895 17.5454 33.6895H14.0909M33.0909 19.8713H28.4848C27.874 19.8713 27.2882 20.114 26.8563 20.5459C26.4244 20.9778 26.1818 21.5636 26.1818 22.1744V24.4774C26.1818 25.0882 26.4244 25.674 26.8563 26.1059C27.2882 26.5378 27.874 26.7804 28.4848 26.7804H30.7879C31.3987 26.7804 31.9844 27.0231 32.4163 27.455C32.8482 27.8869 33.0909 28.4727 33.0909 29.0835V31.3865C33.0909 31.9973 32.8482 32.5831 32.4163 33.015C31.9844 33.4469 31.3987 33.6895 30.7879 33.6895H26.1818" stroke="white" stroke-width="4" stroke-linecap="round" stroke-linejoin="round"/>
</svg>
