<svg width="32" height="33" viewBox="0 0 32 33" fill="none" xmlns="http://www.w3.org/2000/svg">
<path d="M16.0002 3.55811C18.7426 3.55815 21.1536 4.51436 23.2531 6.4458C25.3237 8.35059 26.3741 10.9083 26.3742 14.1743C26.3742 15.5135 26.0791 16.8508 25.4806 18.188C24.871 19.5504 24.1054 20.8544 23.1847 22.1011C22.258 23.356 21.2513 24.5273 20.1642 25.6147C19.065 26.7146 18.0395 27.6884 17.0881 28.5356L17.0832 28.5405L17.0773 28.5454C16.9383 28.6769 16.7783 28.7721 16.592 28.8325C16.3814 28.9008 16.181 28.9331 15.9894 28.9331C15.7981 28.9331 15.6024 28.9007 15.4006 28.8335C15.2224 28.7742 15.0695 28.6811 14.9367 28.5513L14.9279 28.5425L14.9181 28.5347L14.1877 27.8755C13.4437 27.193 12.6593 26.4394 11.8351 25.6147C10.7482 24.5273 9.74129 23.3559 8.81461 22.1011C7.8941 20.8546 7.13051 19.5501 6.5236 18.188C5.92771 16.8507 5.63395 15.5137 5.63395 14.1743C5.63405 10.9081 6.68317 8.35053 8.75114 6.4458C10.8479 4.5145 13.2577 3.55811 16.0002 3.55811ZM15.9992 4.8374C13.4616 4.8375 11.2986 5.71195 9.54215 7.4585C7.77754 9.21332 6.90553 11.4665 6.90543 14.1743C6.90543 16.0213 7.67787 18.0422 9.14079 20.2212C10.6042 22.4007 12.7821 24.829 15.6593 27.5054L15.9953 27.8188L16.3361 27.5093C19.281 24.8376 21.4794 22.4078 22.9123 20.2202C24.3413 18.0384 25.0949 16.018 25.0949 14.1743C25.0948 11.4663 24.222 9.21336 22.4572 7.4585C20.7002 5.7119 18.5369 4.8374 15.9992 4.8374ZM15.9972 12.0347C16.5292 12.0347 16.968 12.2162 17.342 12.5884C17.7152 12.96 17.8966 13.3976 17.8966 13.9292C17.8966 14.4613 17.7154 14.8981 17.3439 15.269C16.9725 15.6398 16.5355 15.8208 16.0031 15.8208C15.4701 15.8208 15.0329 15.6407 14.6623 15.272C14.2922 14.9034 14.1105 14.4675 14.1105 13.9351C14.1105 13.402 14.2906 12.9621 14.6603 12.5884L14.6613 12.5894C15.0301 12.217 15.4657 12.0347 15.9972 12.0347Z" fill="white" stroke="white"/>
</svg>
