<svg width="120" height="71" viewBox="0 0 120 71" fill="none" xmlns="http://www.w3.org/2000/svg">
<g clip-path="url(#clip0_250_717)">
<path d="M67.4487 0.639404C69.2023 0.969118 69.2022 0.969118 69.8305 1.70226C70.0161 2.01902 70.2018 2.33578 70.393 2.66214C70.702 3.18603 70.702 3.18603 71.0173 3.72051C71.9387 5.37706 72.8208 7.04731 73.6718 8.74045C73.9554 9.29914 73.9554 9.29914 74.2447 9.86912C74.8618 11.086 75.476 12.3042 76.0899 13.5226C76.5201 14.3739 76.9505 15.2251 77.381 16.0764C78.2788 17.853 79.1751 19.6303 80.0704 21.4082C81.2194 23.6891 82.3727 25.9678 83.5272 28.2459C84.4152 29.9996 85.3006 31.7546 86.1851 33.5099C86.6095 34.3512 87.0348 35.1919 87.461 36.0322C88.0543 37.2028 88.644 38.3752 89.2327 39.548C89.4984 40.0694 89.4984 40.0694 89.7694 40.6012C90.9705 43.0081 90.9705 43.0081 90.9705 44.6112C89.8092 44.7155 88.6574 44.7909 87.4937 44.851C87.1678 44.8831 86.842 44.9153 86.5063 44.9484C85.5379 44.9859 85.5379 44.9859 83.7144 44.6112C82.6418 43.3076 82.0267 42.2689 81.2957 40.7745C81.021 40.244 80.7463 39.7135 80.4632 39.1669C79.6546 37.6002 78.8655 36.0245 78.0812 34.4457C77.2279 32.7283 76.368 31.0142 75.5079 29.3001C75.2549 28.7956 75.2549 28.7956 74.9967 28.2809C73.2839 24.8729 71.5019 21.5031 69.6936 18.1442C68.6874 16.2732 67.7331 14.3789 66.7836 12.4791C66.5941 12.7801 66.4047 13.081 66.2096 13.3911C62.987 18.5103 59.7633 23.6286 56.5041 28.725C54.3549 32.0865 52.2465 35.4709 50.1678 38.8756C46.7802 44.4118 46.7802 44.4118 45.2874 45.3605C43.5663 45.6519 43.0641 45.1003 41.6291 44.1316C40.5727 43.2769 39.54 42.4138 38.515 41.5239C38.2242 41.2745 37.9335 41.0252 37.6339 40.7683C36.3881 39.6999 35.1463 38.6272 33.9053 37.5533C32.9843 36.757 32.0612 35.9631 31.138 35.1694C30.7115 34.7976 30.7115 34.7976 30.2764 34.4183C29.0658 33.3782 28.1693 32.6497 26.6332 32.142C26.5091 32.5441 26.385 32.9461 26.2571 33.3603C25.6145 35.1632 24.8105 36.8443 23.9424 38.5471C23.7743 38.8803 23.6062 39.2136 23.433 39.557C22.8893 40.6333 22.3427 41.7081 21.7958 42.7828C21.419 43.5262 21.0423 44.2697 20.6657 45.0131C18.2218 49.8293 15.7378 54.6219 13.174 59.3764C12.5291 60.5784 11.8918 61.7843 11.2555 62.9908C11.0313 63.4156 10.8071 63.8403 10.5761 64.278C10.1445 65.096 9.71342 65.9142 9.28291 66.7328C9.09143 67.0948 8.89996 67.4568 8.70268 67.8298C8.53334 68.151 8.364 68.4722 8.18953 68.8032C7.76732 69.5495 7.76732 69.5495 7.28358 70.0291C6.14528 70.064 5.00598 70.0692 3.86717 70.0591C3.24298 70.0547 2.61879 70.0504 1.97568 70.046C1.25078 70.0376 1.25078 70.0376 0.51123 70.0291C0.761484 67.5633 1.32761 65.7217 2.45942 63.5173C2.68277 63.0778 2.68277 63.0778 2.91063 62.6294C3.38621 61.6966 3.86846 60.7673 4.35091 59.838C4.65778 59.2374 4.96421 58.6367 5.27021 58.0358C6.81426 55.0143 8.3936 52.0122 9.99327 49.0193C11.9157 45.4211 13.7919 41.8053 15.6092 38.1537C15.8155 37.7397 16.0219 37.3256 16.2345 36.8991C17.0752 35.2103 17.9149 33.5211 18.7495 31.8293C19.3722 30.5686 19.9997 29.3104 20.628 28.0525C20.8145 27.6713 21.0009 27.2902 21.193 26.8975C22.1382 25.0145 22.9808 23.3823 24.6982 22.0708C27.0708 22.0708 28.2108 22.8618 29.8682 24.4687C31.5637 26.0614 33.2775 27.5742 35.0986 29.0247C37.35 30.8281 39.5029 32.7154 41.631 34.6598C42.5407 35.522 42.5407 35.522 43.5641 35.9787C43.6719 35.6653 43.7798 35.3518 43.891 35.0289C44.7503 33.0862 45.883 31.3742 47.0409 29.5942C47.5685 28.7752 48.0956 27.9559 48.6225 27.1364C48.9017 26.703 49.1808 26.2696 49.4684 25.8231C50.962 23.4926 52.4314 21.1472 53.904 18.8036C56.3748 14.8818 58.8499 10.9627 61.3415 7.05383C61.7655 6.38402 61.7655 6.38402 62.1982 5.70067C62.4617 5.28852 62.7253 4.87636 62.9968 4.45172C63.2267 4.09049 63.4567 3.72926 63.6936 3.35708C64.8628 1.70379 65.4012 1.05289 67.4487 0.639404Z" fill="white"/>
<path d="M60.132 45.9861C60.571 45.9873 61.01 45.9886 61.4623 45.9898C62.1208 45.988 62.1208 45.988 62.7926 45.9861C63.881 46.0498 63.881 46.0498 64.3648 46.5294C64.4408 47.3123 64.4861 48.0982 64.5178 48.8842C64.5482 49.5959 64.5482 49.5959 64.5792 50.322C64.5983 50.8212 64.6173 51.3204 64.6369 51.8348C64.6578 52.3358 64.6786 52.8369 64.7002 53.3531C64.7517 54.5954 64.801 55.8377 64.8485 57.0802C65.1459 56.6731 65.1459 56.6731 65.4494 56.2578C65.7101 55.906 65.9707 55.5543 66.2393 55.1918C66.4974 54.8413 66.7556 54.4908 67.0216 54.1296C67.7509 53.2435 67.7509 53.2435 68.7184 52.7639C69.7055 52.7301 70.6937 52.7236 71.6813 52.734C72.2114 52.7383 72.7414 52.7426 73.2875 52.7471C73.8992 52.7554 73.8992 52.7554 74.5233 52.7639C73.7731 54.8967 72.784 56.0552 71.1598 57.5879C70.5078 58.5442 70.5078 58.5442 70.9444 59.834C71.8543 61.9355 72.8361 63.9936 73.8506 66.0471C75.007 68.4388 75.007 68.4388 75.007 70.0289C73.0914 70.0289 71.1758 70.0289 69.2022 70.0289C68.2444 67.9715 67.2866 65.9141 66.2997 63.7944C64.7456 64.5773 64.7456 64.5773 64.618 65.8794C64.5943 66.3091 64.5706 66.7387 64.5462 67.1814C64.4046 69.5098 64.4046 69.5098 63.881 70.0289C63.0759 70.0761 62.2688 70.0912 61.4623 70.0889C60.8038 70.0907 60.8038 70.0907 60.132 70.0926C59.0436 70.0289 59.0436 70.0289 58.5599 69.5494C58.5123 68.8306 58.498 68.1097 58.4973 67.3894C58.4958 66.9301 58.4942 66.4708 58.4927 65.9976C58.4937 65.498 58.4946 64.9985 58.4956 64.4838C58.4952 63.9746 58.4947 63.4655 58.4942 62.9409C58.4939 61.8621 58.4948 60.7832 58.4968 59.7043C58.4994 58.0465 58.4969 56.3888 58.4938 54.731C58.4941 53.6856 58.4947 52.6403 58.4956 51.595C58.4947 51.0954 58.4937 50.5959 58.4927 50.0812C58.4942 49.6219 58.4957 49.1626 58.4973 48.6894C58.4977 48.2829 58.4981 47.8765 58.4985 47.4577C58.5881 46.1031 58.7643 46.0661 60.132 45.9861Z" fill="white"/>
<path d="M33.1033 46.9189C33.9835 46.9286 33.9835 46.9286 34.8814 46.9386C36.3247 46.9555 37.7675 46.9791 39.2105 47.0088C39.2105 48.5915 39.2105 50.1741 39.2105 51.8047C38.024 52.3928 37.2511 52.339 35.9264 52.3311C35.4712 52.3295 35.016 52.328 34.547 52.3264C34.0706 52.3224 33.5942 52.3184 33.1033 52.3142C32.3831 52.311 32.3831 52.311 31.6483 52.3077C30.4604 52.302 29.2725 52.2941 28.0845 52.2842C28.0845 53.5503 28.0845 54.8164 28.0845 56.1209C31.2772 56.1209 34.4699 56.1209 37.7593 56.1209C37.7593 57.7035 37.7593 59.2862 37.7593 60.9167C34.5666 60.9167 31.374 60.9167 28.0845 60.9167C28.0845 63.9237 28.0845 66.9307 28.0845 70.0288C26.1689 70.0288 24.2533 70.0288 22.2797 70.0288C22.2437 67.4178 22.2174 64.807 22.1999 62.1958C22.1927 61.3082 22.1828 60.4207 22.1702 59.5333C22.1525 58.2546 22.1443 56.9762 22.1379 55.6975C22.1304 55.3033 22.123 54.909 22.1152 54.5028C22.1145 52.1246 22.4012 50.5089 23.7309 48.4476C26.4129 46.3407 29.8573 46.8509 33.1033 46.9189Z" fill="white"/>
<path d="M47.6761 52.1044C48.2897 52.0908 48.9033 52.0772 49.5355 52.0632C51.5969 52.3209 52.6077 52.9112 54.2066 54.2026C56.0683 56.9712 55.757 60.694 55.7787 63.9442C55.7887 64.3265 55.7987 64.7089 55.809 65.1028C55.828 67.9069 55.828 67.9069 54.9827 68.9183C53.006 70.5253 50.726 70.1543 48.2808 70.1787C47.597 70.1996 47.597 70.1996 46.8995 70.2209C44.0116 70.247 42.3725 70.0225 40.1781 68.1105C39.2599 66.6461 39.2091 65.7953 39.2409 64.0641C39.7955 61.9748 40.5423 60.9661 42.1131 59.478C44.5785 58.2275 47.1492 58.4235 49.8529 58.5189C49.3352 57.7235 49.3352 57.7235 48.4017 57.0801C46.8479 57.0106 46.8479 57.0106 45.1667 57.23C44.5961 57.2875 44.0256 57.345 43.4377 57.4042C42.782 57.4812 42.782 57.4812 42.1131 57.5597C41.2686 56.0172 41.0467 55.0083 41.1456 53.2435C43.3764 52.3902 45.2886 52.1285 47.6761 52.1044ZM45.4993 63.3147C45.0702 64.2936 45.0702 64.2936 45.0155 65.233C47.4088 66.1684 47.4088 66.1684 49.8529 65.7126C49.8529 64.763 49.8529 63.8135 49.8529 62.8351C48.1171 62.1978 47.102 62.4129 45.4993 63.3147Z" fill="white"/>
<path d="M98.1661 52.1644C98.9125 52.1459 98.9125 52.1459 99.674 52.127C101.662 52.342 102.887 53.0729 104.296 54.4593C106.21 56.8688 106.535 57.9581 106.571 61.0367C106.584 61.6623 106.596 62.288 106.609 62.9326C106.374 65.6285 105.568 67.0303 103.712 68.9892C101.703 70.282 100.359 70.4195 98.0149 70.3586C97.6498 70.3531 97.2846 70.3476 96.9084 70.342C94.876 70.2503 93.3624 70.0724 91.7263 68.77C89.4191 66.1419 89.3029 63.3151 89.3662 59.9464C89.6611 57.1961 90.693 55.4001 92.6938 53.5132C94.5434 52.3378 96.0099 52.1964 98.1661 52.1644ZM95.9685 57.6478C95.0873 58.8391 95.1307 59.6615 95.1427 61.1266C95.139 61.581 95.1352 62.0354 95.1314 62.5036C95.3523 63.9829 95.7307 64.6472 96.7753 65.7126C97.9847 65.9924 97.9847 65.9924 99.194 65.7126C100.041 65.1831 100.041 65.1831 100.645 64.2739C100.858 62.899 100.858 62.899 100.796 61.3964C100.795 60.8919 100.793 60.3875 100.791 59.8677C100.741 58.4205 100.741 58.4205 99.6778 57.0801C98.1952 56.8925 97.2176 56.769 95.9685 57.6478Z" fill="white"/>
<path d="M83.2309 47.968C83.2309 49.5506 83.2309 51.1333 83.2309 52.7638C83.8594 52.754 84.488 52.7441 85.1356 52.7339C85.7907 52.7236 86.4466 52.7296 87.1008 52.7638C87.5845 53.2434 87.5845 53.2434 87.6752 54.6522C87.5845 56.1209 87.5845 56.1209 86.6171 57.0801C85.4996 57.0801 84.3822 57.0801 83.2309 57.0801C83.4703 61.1158 83.4703 61.1158 83.7146 65.233C85.1513 65.3913 86.588 65.5495 88.0683 65.7126C88.4934 68.6632 88.4934 68.6632 88.552 69.5493C87.5349 70.5577 85.4443 70.1616 84.0472 70.1787C83.4864 70.1996 83.4864 70.1996 82.9144 70.2209C80.1494 70.2515 80.1494 70.2515 78.6372 69.1465C76.5738 66.2082 77.2746 61.4421 77.426 58.0393C77.5856 57.7227 77.7453 57.4062 77.9097 57.0801C77.5206 57.09 77.1315 57.0999 76.7306 57.1101C75.491 57.0801 75.491 57.0801 75.0073 56.6005C74.9875 55.4817 74.9868 54.3623 75.0073 53.2434C75.9651 53.0852 76.9229 52.9269 77.9097 52.7638C77.9097 51.656 77.9097 50.5482 77.9097 49.4068C79.9426 48.2819 80.8176 47.968 83.2309 47.968Z" fill="white"/>
<path d="M119.511 52.2843C119.511 53.8669 119.511 55.4495 119.511 57.0801C117.356 57.3175 117.356 57.3175 115.158 57.5597C114.998 61.6745 114.838 65.7893 114.674 70.0288C112.918 70.0288 111.162 70.0288 109.353 70.0288C108.344 68.0287 108.758 65.4223 108.748 63.2248C108.738 62.6854 108.728 62.146 108.718 61.5902C108.704 58.6008 108.79 56.3335 110.32 53.723C112.757 51.8649 116.616 50.8488 119.511 52.2843Z" fill="white"/>
</g>
<defs>
<clipPath id="clip0_250_717">
<rect width="119" height="70" fill="white" transform="translate(0.51123 0.5)"/>
</clipPath>
</defs>
</svg>
