<svg width="182" height="71" viewBox="0 0 182 71" fill="none" xmlns="http://www.w3.org/2000/svg">
<g clip-path="url(#clip0_250_570)">
<path d="M67.4163 1.08911C67.4945 1.08911 67.5726 1.08911 67.6532 1.08911C69.1045 4.33404 70.5518 7.58071 71.9935 10.8299C72.4147 11.779 72.8363 12.7281 73.2579 13.6771C73.3974 13.9913 73.537 14.3054 73.6765 14.6196C74.1116 15.5993 74.5467 16.5789 74.982 17.5584C75.1851 18.0155 75.3882 18.4726 75.5913 18.9297C75.6871 19.1453 75.7829 19.3608 75.8787 19.5764C76.0964 20.0662 76.314 20.556 76.5311 21.0461C76.6943 21.4144 76.8584 21.7824 77.023 22.1501C77.0999 22.3227 77.1768 22.4954 77.2536 22.6681C77.2892 22.7471 77.3248 22.8261 77.3614 22.9075C77.6035 23.453 77.6035 23.453 77.6035 23.7154C77.6816 23.7154 77.7598 23.7154 77.8404 23.7154C77.8712 23.617 77.902 23.5186 77.9337 23.4172C78.0899 22.9723 78.2786 22.5487 78.4784 22.1222C78.518 22.037 78.5575 21.9519 78.5982 21.8641C78.6833 21.6808 78.7686 21.4975 78.854 21.3142C79.0837 20.8216 79.3122 20.3284 79.5408 19.8352C79.5874 19.7349 79.634 19.6345 79.682 19.5312C80.1184 18.5904 80.5495 17.6473 80.9794 16.7036C81.6048 15.3318 82.2346 13.9622 82.8673 12.5937C83.7203 10.7489 84.5701 8.90261 85.4181 7.05549C85.7119 6.41566 86.006 5.77598 86.3002 5.13635C86.4295 4.85512 86.5589 4.57389 86.6882 4.29266C86.7704 4.11384 86.8527 3.93504 86.935 3.75624C87.3432 2.86917 87.7503 1.9818 88.146 1.08911C88.2242 1.08911 88.3024 1.08911 88.3829 1.08911C89.5486 7.56385 90.705 14.0402 91.8507 20.5185C92.0648 21.7295 92.2794 22.9404 92.4942 24.1513C92.664 25.1088 92.8335 26.0664 93.0028 27.024C93.1025 27.5882 93.2024 28.1524 93.3026 28.7166C93.3953 29.2382 93.4875 29.7599 93.5795 30.2816C93.6132 30.4722 93.647 30.6628 93.6809 30.8534C93.7271 31.1127 93.7728 31.3722 93.8184 31.6316C93.844 31.7765 93.8697 31.9213 93.8961 32.0706C93.9503 32.4359 93.9503 32.4359 93.9503 32.9073C92.3867 32.9073 90.8231 32.9073 89.2121 32.9073C88.6579 29.6224 88.1189 26.3353 87.5874 23.0467C87.4949 22.4746 87.402 21.9026 87.3089 21.3306C87.1947 20.6289 87.081 19.9271 86.9678 19.2253C86.925 18.9608 86.882 18.6963 86.8388 18.4318C86.7791 18.0656 86.7201 17.6993 86.6612 17.3329C86.6346 17.1715 86.6346 17.1715 86.6075 17.0069C86.5248 16.4874 86.4672 15.9943 86.4876 15.4662C86.4094 15.4662 86.3313 15.4662 86.2507 15.4662C86.2402 15.5435 86.2296 15.6208 86.2188 15.7005C86.1038 16.1723 85.9039 16.5834 85.695 17.0208C85.6504 17.1156 85.6057 17.2105 85.5597 17.3082C85.4634 17.513 85.3667 17.7176 85.2699 17.9221C85.0109 18.4691 84.7541 19.017 84.4975 19.565C84.4192 19.7321 84.4192 19.7321 84.3393 19.9027C83.8478 20.9543 83.3741 22.0132 82.9043 23.0746C82.2846 24.4735 81.6467 25.862 80.9891 27.2436C80.2842 28.7257 79.6125 30.2216 78.9497 31.7229C78.5616 32.6005 78.1672 33.4705 77.7219 34.3214C77.4575 34.0799 77.2985 33.8698 77.1553 33.543C77.0985 33.4151 77.0985 33.4151 77.0406 33.2846C77.0003 33.1917 76.9601 33.0988 76.9186 33.003C76.8753 32.9049 76.832 32.8068 76.7874 32.7057C76.6441 32.3804 76.5019 32.0546 76.3597 31.7288C76.2588 31.4995 76.1579 31.2702 76.0568 31.0409C75.8468 30.564 75.6371 30.087 75.4278 29.6099C74.998 28.6314 74.5635 27.6549 74.1291 26.6783C73.8962 26.1548 73.6637 25.6311 73.4311 25.1074C73.3849 25.0033 73.3386 24.8991 73.291 24.7918C73.0012 24.1395 72.7116 23.4872 72.422 22.8348C71.4387 20.6197 70.4551 18.4048 69.4654 16.1926C69.4143 16.0785 69.3632 15.9643 69.3106 15.8467C69.2719 15.7601 69.2331 15.6734 69.1931 15.5841C68.7644 17.6651 68.374 19.7512 68.003 21.8432C67.9484 22.1496 67.8938 22.4561 67.8391 22.7625C67.7115 23.478 67.5841 24.1935 67.457 24.9091C67.2146 26.2725 66.9718 27.6358 66.7288 28.9991C66.6493 29.4454 66.57 29.8916 66.4908 30.3379C66.4424 30.6095 66.394 30.8811 66.3457 31.1526C66.3238 31.2764 66.3019 31.4001 66.2793 31.5275C66.2591 31.6409 66.2388 31.7543 66.218 31.8711C66.2005 31.9694 66.183 32.0677 66.165 32.169C66.117 32.4169 66.0564 32.6623 65.9948 32.9073C64.4312 32.9073 62.8676 32.9073 61.2566 32.9073C61.3899 31.5816 61.3899 31.5816 61.5083 30.9843C61.5349 30.8485 61.5615 30.7128 61.589 30.5729C61.6326 30.3549 61.6326 30.3549 61.6771 30.1326C61.7084 29.9742 61.7396 29.8159 61.7708 29.6575C61.8557 29.2273 61.9412 28.7973 62.0268 28.3672C62.1183 27.9072 62.2091 27.447 62.3 26.9868C62.4557 26.1996 62.6116 25.4123 62.7679 24.6252C63.0115 23.3976 63.2544 22.17 63.4972 20.9422C63.5173 20.8405 63.5374 20.7388 63.5581 20.6341C63.6394 20.2229 63.7206 19.8118 63.8019 19.4007C63.924 18.7831 64.0461 18.1656 64.1683 17.548C64.9708 13.4919 65.7638 9.43386 66.553 5.37508C66.645 4.90196 66.7371 4.42885 66.8292 3.95575C66.8909 3.63855 66.9524 3.32132 67.0139 3.00409C67.0504 2.81676 67.0868 2.62944 67.1233 2.44211C67.1394 2.35859 67.1556 2.27507 67.1722 2.18902C67.2443 1.81968 67.319 1.45277 67.4163 1.08911Z" fill="white"/>
<path d="M75.5824 52.4402C75.7435 52.6064 75.9041 52.7733 76.0636 52.941C76.1809 53.0577 76.1809 53.0577 76.3005 53.1767C76.3538 53.1097 76.4071 53.0427 76.462 52.9737C77.6344 51.5736 79.1409 50.8306 80.9466 50.6141C82.8434 50.4872 84.766 50.8026 86.242 52.0775C87.8361 53.7232 88.1674 56.0591 88.1595 58.2448C88.1595 58.3713 88.1595 58.4979 88.1596 58.6283C88.1595 59.044 88.1586 59.4598 88.1576 59.8755C88.1574 60.1648 88.1572 60.4541 88.1571 60.7433C88.1567 61.5028 88.1555 62.2622 88.1542 63.0216C88.153 63.7974 88.1524 64.5731 88.1518 65.3488C88.1506 66.8695 88.1485 68.3901 88.1461 69.9107C86.6606 69.9107 85.1752 69.9107 83.6447 69.9107C83.6436 69.5529 83.6425 69.1951 83.6414 68.8264C83.6374 67.6378 83.6308 66.4492 83.623 65.2606C83.6183 64.5407 83.6145 63.8208 83.6126 63.1009C83.6108 62.4047 83.6067 61.7087 83.6011 61.0126C83.5994 60.7484 83.5984 60.4842 83.5983 60.22C83.6626 57.5049 83.6625 57.5049 82.4602 55.1801C81.7513 54.7153 80.9672 54.6339 80.1429 54.7824C79.4256 54.9763 78.8793 55.2163 78.4609 55.8494C77.7303 57.2327 77.59 58.6445 77.5792 60.1846C77.578 60.2905 77.5768 60.3964 77.5756 60.5055C77.5719 60.8518 77.569 61.198 77.566 61.5442C77.5636 61.7858 77.5611 62.0273 77.5586 62.2689C77.5521 62.9018 77.5462 63.5347 77.5405 64.1676C77.5345 64.8146 77.5279 65.4616 77.5214 66.1086C77.5087 67.376 77.4967 68.6434 77.4851 69.9107C75.9996 69.9107 74.5142 69.9107 72.9837 69.9107C72.982 69.5546 72.9803 69.1985 72.9785 68.8316C72.9725 67.6505 72.9646 66.4695 72.9558 65.2884C72.9505 64.5728 72.9459 63.8573 72.9427 63.1417C72.9396 62.4502 72.9348 61.7587 72.9289 61.0672C72.9269 60.8043 72.9255 60.5415 72.9248 60.2786C72.9855 57.607 72.9855 57.607 71.7992 55.2979C71.2862 54.8678 70.6884 54.6976 70.0224 54.7087C69.2185 54.7985 68.5017 55.0261 67.9346 55.616C66.759 57.1511 66.8711 59.2463 66.8703 61.0724C66.8686 61.3286 66.8666 61.5848 66.8644 61.841C66.8593 62.509 66.8569 63.177 66.8551 63.845C66.8527 64.5292 66.8478 65.2134 66.843 65.8976C66.8342 67.2353 66.8284 68.573 66.8241 69.9107C65.3386 69.9107 63.8532 69.9107 62.3228 69.9107C62.3228 63.7274 62.3228 57.5441 62.3228 51.1734C63.8082 51.1734 65.2936 51.1734 66.8241 51.1734C66.8827 51.815 66.8827 51.815 66.9425 52.4697C67.0286 52.3914 67.1148 52.3132 67.2035 52.2326C69.7185 50.01 73.1574 50.0469 75.5824 52.4402Z" fill="white"/>
<path d="M132.448 37.5034C133.895 37.5034 135.341 37.5034 136.831 37.5034C136.87 43.9201 136.91 50.3368 136.95 56.9479C138.865 55.0423 140.781 53.1368 142.754 51.1735C146.681 50.7545 146.681 50.7545 148.795 51.1735C148.404 51.6343 148.011 52.0867 147.582 52.5139C147.492 52.6033 147.403 52.6926 147.31 52.7846C147.219 52.8752 147.128 52.9657 147.033 53.059C146.943 53.1495 146.852 53.2401 146.759 53.3333C146.349 53.7407 145.937 54.1389 145.496 54.5136C144.843 55.0727 144.247 55.6901 143.643 56.2997C142.254 57.7 142.254 57.7 141.521 58.319C141.288 58.5181 141.071 58.7308 140.859 58.9512C141.057 59.403 141.352 59.7696 141.658 60.1518C141.715 60.2232 141.772 60.2946 141.831 60.3681C142.359 61.0293 142.9 61.6802 143.442 62.3308C143.928 62.9166 144.404 63.5097 144.873 64.1089C145.472 64.8708 146.087 65.6194 146.701 66.3686C147.225 67.0072 147.747 67.647 148.269 68.2872C148.428 68.4816 148.587 68.6752 148.747 68.8686C148.834 68.9744 148.921 69.0801 149.01 69.189C149.084 69.2787 149.158 69.3683 149.234 69.4606C149.388 69.6751 149.388 69.6751 149.388 69.9108C148.585 69.9529 147.783 69.9817 146.979 70.0015C146.707 70.0097 146.434 70.0209 146.161 70.0353C143.962 70.1481 143.962 70.1481 143.337 69.7564C142.934 69.385 142.662 68.9571 142.405 68.478C142.194 68.1102 141.921 67.7918 141.651 67.4655C141.148 66.829 140.648 66.19 140.148 65.5506C140.008 65.3709 139.867 65.1912 139.727 65.0115C139.465 64.6776 139.205 64.3434 138.945 64.0089C138.83 63.8623 138.715 63.7158 138.601 63.5693C138.55 63.5037 138.499 63.4382 138.447 63.3707C138.13 62.9662 137.794 62.6061 137.424 62.2509C137.111 62.5078 136.964 62.6486 136.888 63.0519C136.887 63.2418 136.887 63.2418 136.885 63.4357C136.883 63.5796 136.88 63.7234 136.878 63.8717C136.878 64.0265 136.878 64.1813 136.878 64.3408C136.876 64.5013 136.874 64.6618 136.872 64.8223C136.867 65.2439 136.864 65.6654 136.862 66.087C136.86 66.5175 136.855 66.948 136.85 67.3785C136.841 68.2227 136.836 69.0666 136.831 69.9108C135.385 69.9108 133.939 69.9108 132.448 69.9108C132.448 59.2164 132.448 48.5219 132.448 37.5034Z" fill="white"/>
<path d="M106.981 52.8233C107.098 52.94 107.098 52.94 107.218 53.059C107.257 52.4368 107.296 51.8146 107.336 51.1735C108.782 51.1735 110.229 51.1735 111.719 51.1735C111.719 57.3568 111.719 63.5402 111.719 69.9109C110.272 69.9109 108.826 69.9109 107.336 69.9109C107.336 69.3275 107.336 68.7442 107.336 68.1432C107.136 68.3012 106.935 68.4592 106.729 68.6219C104.792 70.095 102.617 70.7183 100.192 70.4191C97.8889 70.0233 95.8649 68.8757 94.491 66.9795C92.7098 64.4058 92.2303 61.1458 92.7326 58.0872C92.8299 57.6162 92.9648 57.1671 93.1213 56.7122C93.1642 56.5854 93.2071 56.4585 93.2513 56.3278C94.0778 54.151 95.7687 52.2801 97.8961 51.2982C101.151 50.0246 104.343 50.5437 106.981 52.8233ZM98.7628 56.0788C97.4621 57.4662 97.0555 59.2031 97.1155 61.0509C97.2063 62.702 97.8254 64.075 98.9608 65.2795C100.153 66.2891 101.533 66.613 103.072 66.4934C104.576 66.1944 105.729 65.4996 106.625 64.2543C106.857 63.8335 107.045 63.4056 107.218 62.958C107.266 62.8316 107.315 62.7052 107.366 62.575C107.825 60.8974 107.682 58.9855 106.926 57.4128C106.759 57.1286 106.582 56.8612 106.388 56.5944C106.32 56.4899 106.252 56.3853 106.181 56.2777C105.137 55.2098 103.835 54.662 102.349 54.5878C100.976 54.6007 99.7629 55.1495 98.7628 56.0788Z" fill="white"/>
<path d="M165.837 52.7842C167.505 54.4403 168.163 56.3319 168.577 58.5977C168.577 59.6088 168.577 60.6199 168.577 61.6617C164.16 61.6617 159.743 61.6617 155.192 61.6617C155.869 64.2047 155.869 64.2047 157.731 65.8894C158.93 66.4936 160.254 66.5369 161.544 66.2061C163.133 65.668 164.103 64.1571 165.024 62.8401C166.314 63.4631 167.566 64.1434 168.814 64.8435C168.088 66.883 166.209 68.5833 164.35 69.5868C163.122 70.1689 161.759 70.4501 160.404 70.5001C160.322 70.5048 160.239 70.5095 160.154 70.5143C157.811 70.5888 155.385 69.9316 153.63 68.3494C151.686 66.5211 150.621 64.1743 150.544 61.5015C150.495 58.2322 150.942 55.4503 153.259 52.96C156.552 49.9103 162.497 49.6287 165.837 52.7842ZM156.57 55.9108C155.988 56.5484 155.689 57.1614 155.547 58.0085C158.323 58.0085 161.098 58.0085 163.958 58.0085C163.786 56.9846 163.365 56.0799 162.517 55.4403C160.596 54.184 158.274 54.382 156.57 55.9108Z" fill="white"/>
<path d="M109.113 0.5C110.598 0.5 112.084 0.5 113.614 0.5C113.614 11.1944 113.614 21.8889 113.614 32.9074C112.129 32.9074 110.643 32.9074 109.113 32.9074C109.113 22.213 109.113 11.5185 109.113 0.5Z" fill="white"/>
<path d="M118.945 0.5C120.391 0.5 121.837 0.5 123.327 0.5C123.327 11.1944 123.327 21.8889 123.327 32.9074C121.881 32.9074 120.435 32.9074 118.945 32.9074C118.945 22.213 118.945 11.5185 118.945 0.5Z" fill="white"/>
<path d="M173.671 44.3384C175.156 44.3384 176.642 44.3384 178.172 44.3384C178.172 46.5939 178.172 48.8495 178.172 51.1734C179.267 51.1734 180.361 51.1734 181.489 51.1734C181.489 52.5345 181.489 53.8956 181.489 55.298C180.394 55.298 179.3 55.298 178.172 55.298C178.172 60.1202 178.172 64.9424 178.172 69.9108C176.687 69.9108 175.201 69.9108 173.671 69.9108C173.671 65.0885 173.671 60.2663 173.671 55.298C173.085 55.298 172.498 55.298 171.894 55.298C171.894 53.9369 171.894 52.5758 171.894 51.1734C172.48 51.1734 173.067 51.1734 173.671 51.1734C173.671 48.9178 173.671 46.6623 173.671 44.3384Z" fill="white"/>
<path d="M45.46 6.97705C46.9451 6.53871 48.3114 6.55935 49.6641 7.36865C50.6333 8.02803 51.2848 8.90547 51.543 10.0454C51.5941 10.6398 51.5925 11.2335 51.5898 11.8296C51.5903 12.0104 51.591 12.1917 51.5918 12.3726C51.5935 12.8676 51.5927 13.3629 51.5918 13.8579C51.5912 14.3924 51.5925 14.9269 51.5938 15.4614C51.5958 16.5082 51.5963 17.5553 51.5957 18.6021V21.5229C51.5959 21.769 51.5965 22.0151 51.5967 22.2612C51.5983 24.5691 51.5971 26.8771 51.5957 29.1851C51.5945 31.2957 51.5968 33.4064 51.5996 35.5171C51.6025 37.6853 51.6033 39.8538 51.6025 42.022C51.6021 43.2389 51.6024 44.4564 51.6045 45.6733V50.3657C51.6061 50.8498 51.6058 51.3338 51.6035 51.8179C51.6031 51.9925 51.6033 52.1676 51.6045 52.3423C51.614 53.7879 51.3693 54.9261 50.3594 56.0054C49.3287 56.96 47.9616 57.2797 46.6426 57.6675C46.4857 57.7141 46.3287 57.7605 46.1719 57.8071C45.8338 57.9076 45.4955 58.008 45.1572 58.1079C44.6091 58.2698 44.0606 58.4324 43.5127 58.5952C43.3217 58.652 43.1305 58.7094 42.9395 58.7661C42.8434 58.7947 42.7464 58.8226 42.6475 58.8521C42.3506 58.9402 42.0537 59.0286 41.7568 59.1167C39.6444 59.7436 37.5334 60.3762 35.4229 61.0093C34.9054 61.1645 34.3876 61.32 33.8701 61.4751C33.1372 61.6948 32.4038 61.9145 31.6709 62.1343C30.327 62.5372 28.9827 62.9405 27.6387 63.3433C27.5375 63.3736 27.4363 63.4038 27.332 63.4351C26.3129 63.7404 25.2936 64.0457 24.2744 64.3511C23.7664 64.5033 23.258 64.6549 22.75 64.8071C22.6494 64.8373 22.549 64.8679 22.4453 64.8989C21.0597 65.3141 19.6736 65.7295 18.2881 66.145C17.5163 66.3765 16.7445 66.608 15.9727 66.8394C15.4516 66.9956 14.9302 67.1518 14.4092 67.3081C12.2711 67.9496 10.1316 68.5893 7.99121 69.2231C7.89617 69.2513 7.80105 69.28 7.70312 69.3091C7.43573 69.3883 7.16785 69.4673 6.90039 69.5464C6.82179 69.5697 6.74309 69.5927 6.66211 69.6167C5.28128 70.0241 4.06946 70.0714 2.74023 69.4399C1.65406 68.8373 0.915109 67.9408 0.541992 66.7573C0.474201 66.4201 0.474187 66.1023 0.473633 65.7583C0.473105 65.6063 0.472224 65.454 0.47168 65.2974C0.47169 65.1284 0.471647 64.9595 0.47168 64.7905C0.471289 64.6113 0.47119 64.4316 0.470703 64.2524C0.469516 63.7589 0.469064 63.2646 0.46875 62.771C0.468287 62.2391 0.466854 61.7072 0.46582 61.1753C0.463479 59.89 0.461991 58.6042 0.460938 57.3188C0.460418 56.7137 0.459605 56.1086 0.458984 55.5034C0.456969 53.4912 0.455936 51.4786 0.455078 49.4663C0.454852 48.9442 0.454333 48.422 0.454102 47.8999C0.454044 47.7701 0.454161 47.6401 0.454102 47.5063C0.453118 45.4041 0.450136 43.3019 0.446289 41.1997C0.442371 39.0412 0.439832 36.8826 0.439453 34.7241C0.439197 33.5122 0.438574 32.3003 0.435547 31.0884C0.432975 30.0562 0.431466 29.0239 0.432617 27.9917C0.433155 27.4653 0.432964 26.939 0.430664 26.4126C0.428574 25.9302 0.428826 25.4478 0.430664 24.9653C0.430945 24.7913 0.431096 24.6169 0.429688 24.4429C0.418885 23.0157 0.644451 21.9342 1.52344 20.7896C2.26786 20.0821 3.10492 19.693 4.07715 19.3921C4.19852 19.3532 4.32027 19.314 4.44531 19.2739C4.86312 19.1414 5.28199 19.0125 5.70117 18.8843C5.77751 18.8609 5.85397 18.837 5.93262 18.813C7.1865 18.4301 8.44312 18.0564 9.7002 17.6841C10.2184 17.5305 10.7369 17.3763 11.2549 17.2222C11.469 17.1585 11.6833 17.0954 11.8975 17.0317C12.0044 16.9999 12.1115 16.9678 12.2217 16.9351C12.5496 16.8375 12.8781 16.7396 13.2061 16.6421C15.4173 15.9848 17.6273 15.3233 19.8369 14.6606C20.3531 14.5059 20.8695 14.3505 21.3857 14.1958C22.3003 13.9216 23.2153 13.6478 24.1299 13.3735C25.0654 13.093 26.001 12.8122 26.9365 12.5317C27.2047 12.4513 27.473 12.3709 27.7412 12.2905C28.533 12.0531 29.3254 11.816 30.1172 11.5786C30.5566 11.4469 30.9962 11.3148 31.4355 11.1831C31.5232 11.1568 31.6109 11.1301 31.7012 11.103C32.8922 10.746 34.0835 10.3891 35.2744 10.0317C36.1673 9.76381 37.0602 9.49581 37.9531 9.22803C38.4912 9.06667 39.0294 8.90517 39.5674 8.74365C40.6244 8.42634 41.6816 8.10952 42.7393 7.79443C43.1406 7.67481 43.5425 7.55433 43.9434 7.43311C44.3382 7.3138 44.7336 7.1964 45.1289 7.07861C45.2382 7.04519 45.3474 7.01149 45.46 6.97705ZM33.7666 33.688C33.249 33.6864 32.7315 33.6865 32.2139 33.688C31.6632 33.6896 31.1122 33.6902 30.5615 33.6899C29.6403 33.6896 28.719 33.6898 27.7979 33.6919C26.7237 33.6944 25.6493 33.6955 24.5752 33.6948C23.5352 33.6941 22.4951 33.6945 21.4551 33.6958C21.0141 33.6964 20.5728 33.6969 20.1318 33.6968C19.6032 33.6965 19.0745 33.6962 18.5459 33.6978C18.3517 33.6985 18.1571 33.6992 17.9629 33.6997C17.6912 33.6992 17.4191 33.6995 17.1475 33.7007C17.0239 33.7014 17.0234 33.701 16.9023 33.7017C16.4152 33.7025 15.9343 33.6059 15.8584 34.2026C15.8583 34.3022 15.8585 34.3989 15.8584 34.4956C15.8577 34.61 15.8571 34.7215 15.8564 34.8325C15.8569 34.9584 15.8569 35.0805 15.8574 35.2026C15.8561 35.6118 15.8558 36.021 15.8564 36.4302C15.857 36.7234 15.8566 37.0169 15.8564 37.3101C15.8558 37.9982 15.8562 38.6864 15.8574 39.3745C15.8587 40.0906 15.8587 40.8068 15.8574 41.5229C15.8563 42.1418 15.8561 42.7606 15.8564 43.3794V45.5435C15.8569 45.6756 15.857 45.8039 15.8574 45.9321C15.8569 46.058 15.8569 46.1801 15.8564 46.3022C15.8571 46.4166 15.8577 46.5281 15.8584 46.6392C15.8587 46.9322 15.8589 46.9323 15.8887 47.1665C16.1254 47.4021 16.1253 47.4022 16.4619 47.4321C16.6115 47.4324 16.7571 47.4329 16.9023 47.4331C17.1614 47.4346 17.4207 47.4354 17.6797 47.4351C17.8698 47.4347 18.0599 47.4355 18.25 47.436C18.7675 47.4379 19.2853 47.4382 19.8027 47.438C20.2426 47.4377 20.6832 47.4384 21.123 47.439C22.1549 47.4403 23.1868 47.4406 24.2188 47.4399C25.2929 47.4392 26.3673 47.4394 27.4414 47.4419C28.3696 47.4441 29.2984 47.4459 30.2266 47.4458C30.7792 47.4456 31.3321 47.4445 31.8848 47.4458C32.4134 47.4474 32.942 47.4489 33.4707 47.4478C33.6652 47.4472 33.8602 47.4471 34.0547 47.4468C34.3264 47.4482 34.5984 47.4489 34.8701 47.4478C34.9534 47.4473 35.0344 47.4472 35.1152 47.4468C35.5162 47.4468 35.7944 47.4763 36.1318 47.2563C36.2628 47.0491 36.2629 47.049 36.3076 46.8042C36.3078 46.7067 36.3075 46.6118 36.3076 46.5171C36.3092 46.3502 36.309 46.3496 36.3105 46.186C36.3094 46.0036 36.3097 46.0035 36.3086 45.8247C36.3106 45.4238 36.3124 45.0225 36.3115 44.6216C36.3107 44.3345 36.3103 44.0474 36.3105 43.7603C36.3115 43.1628 36.3118 42.5648 36.3105 41.9673C36.3084 41.1887 36.3066 40.4099 36.3086 39.6313C36.3103 39.0249 36.3111 38.4185 36.3105 37.812C36.3101 37.5228 36.3098 37.2331 36.3096 36.9438C36.3108 36.5266 36.3121 36.1091 36.3105 35.6919C36.3096 35.4993 36.3095 35.4989 36.3086 35.3101C36.3097 35.1278 36.3095 35.1276 36.3105 34.9487C36.3095 34.8365 36.3086 34.7276 36.3076 34.6187C36.3072 34.3076 36.2985 34.1422 36.1318 33.8784C35.9076 33.7322 35.9074 33.7321 35.5557 33.688C35.406 33.688 35.2605 33.688 35.1152 33.688C34.8561 33.6865 34.597 33.6858 34.3379 33.687C34.1476 33.688 33.9569 33.6883 33.7666 33.688ZM33.9307 26.9399C33.402 26.937 32.8734 26.9368 32.3447 26.939C31.7826 26.9414 31.2204 26.9415 30.6582 26.9409C29.7171 26.9399 28.776 26.9407 27.835 26.9438C26.7386 26.9477 25.6423 26.9497 24.5459 26.9478C23.4834 26.9458 22.4209 26.9448 21.3584 26.9468C20.908 26.9476 20.4572 26.9484 20.0068 26.9478C19.4673 26.9467 18.9273 26.9471 18.3877 26.9497C18.1892 26.9509 17.9905 26.9518 17.792 26.9526C17.5149 26.9514 17.238 26.9495 16.9609 26.9517C16.8344 26.9529 16.834 26.9534 16.71 26.9546C16.2344 26.9556 15.9904 26.9334 15.6182 27.2329C15.5155 27.361 15.5147 27.3612 15.4141 27.4868C15.2666 27.6671 15.1194 27.8476 14.9756 28.0308C14.6289 28.4772 14.2861 28.9268 13.9238 29.3608C13.8602 29.4361 13.7981 29.5095 13.7363 29.5825C13.6171 29.726 13.4983 29.8698 13.3789 30.0132C13.1568 30.2674 12.9897 30.4964 12.8086 30.7866C12.7516 31.2114 12.7475 31.4773 12.9268 31.8677C13.2239 32.1363 13.2238 32.1366 13.8809 32.145C13.9825 32.1439 14.0811 32.1432 14.1797 32.1421C14.5165 32.1442 14.8536 32.1446 15.1904 32.1431C15.4378 32.1418 15.6852 32.1417 15.9326 32.1421C16.6054 32.1443 17.2784 32.1449 17.9512 32.1431C18.6669 32.141 19.3829 32.1407 20.0986 32.1411C21.2959 32.1418 22.4932 32.1408 23.6904 32.1382C25.0866 32.135 26.4827 32.1339 27.8789 32.1353C29.2306 32.1366 30.5829 32.1369 31.9346 32.1353C32.5077 32.1345 33.0812 32.1339 33.6543 32.1343C34.3415 32.1349 35.0286 32.1344 35.7158 32.1323C35.9685 32.1314 36.2219 32.131 36.4746 32.1304C36.8278 32.1312 37.181 32.1321 37.5342 32.1304C37.6424 32.1297 37.7475 32.1291 37.8525 32.1284C38.1997 32.1309 38.5221 32.1175 38.8691 32.0825C39.0966 31.8954 39.2066 31.7868 39.292 31.5044C39.3316 30.755 39.0747 30.3895 38.5869 29.8384C38.2747 29.4889 37.9811 29.129 37.6875 28.7642C37.5543 28.5985 37.4214 28.4327 37.2881 28.2671C37.2234 28.1876 37.1605 28.1099 37.0977 28.0327C37.0132 27.9283 37.0127 27.9282 36.9297 27.8257C36.8639 27.7505 36.8001 27.677 36.7363 27.604C36.4192 27.2275 36.2484 27.0356 35.7559 26.9419C35.5297 26.9418 35.5294 26.941 35.3076 26.9409C35.0427 26.9382 34.7776 26.9371 34.5127 26.939C34.3187 26.9405 34.1247 26.9405 33.9307 26.9399Z" fill="white"/>
<path d="M129.487 51.7626C129.324 52.2899 129.114 52.7681 128.864 53.2605C128.828 53.3328 128.791 53.405 128.754 53.4794C128.638 53.7078 128.522 53.9357 128.406 54.1637C128.327 54.3194 128.249 54.4752 128.17 54.6309C127.978 55.0107 127.785 55.3901 127.592 55.7693C127.192 55.6951 126.871 55.6067 126.511 55.4158C125.707 54.9925 124.852 54.9043 123.965 55.147C122.919 55.5811 122.46 56.2927 122.024 57.3013C121.698 58.2424 121.652 59.1858 121.645 60.1713C121.644 60.2772 121.642 60.383 121.641 60.4921C121.637 60.839 121.634 61.1858 121.632 61.5327C121.629 61.7744 121.627 62.0162 121.624 62.2579C121.618 62.8918 121.612 63.5257 121.606 64.1596C121.6 64.8073 121.593 65.4551 121.587 66.1029C121.574 67.3722 121.562 68.6415 121.551 69.9108C120.104 69.9108 118.658 69.9108 117.168 69.9108C117.168 63.7274 117.168 57.5441 117.168 51.1734C118.614 51.1734 120.06 51.1734 121.551 51.1734C121.609 51.815 121.609 51.815 121.669 52.4697C121.759 52.3901 121.85 52.3105 121.942 52.2285C124.025 50.4238 127.175 49.8845 129.487 51.7626Z" fill="white"/>
<path d="M99.281 14.1699C100.766 14.1699 102.252 14.1699 103.782 14.1699C103.782 20.3533 103.782 26.5366 103.782 32.9073C102.297 32.9073 100.811 32.9073 99.281 32.9073C99.281 26.724 99.281 20.5406 99.281 14.1699Z" fill="white"/>
<path d="M128.776 14.1699C130.223 14.1699 131.669 14.1699 133.159 14.1699C133.159 20.3533 133.159 26.5366 133.159 32.9073C131.713 32.9073 130.267 32.9073 128.776 32.9073C128.776 26.724 128.776 20.5406 128.776 14.1699Z" fill="white"/>
<path d="M132.248 3.85115C132.945 4.26628 133.497 4.89303 133.811 5.63356C133.966 6.69341 133.858 7.51944 133.263 8.42501C132.542 9.11101 131.973 9.37554 130.96 9.4046C129.994 9.36806 129.403 9.18396 128.739 8.48394C128.127 7.70269 127.951 6.90104 128.066 5.92081C128.242 5.15323 128.613 4.55319 129.261 4.09651C130.171 3.57256 131.261 3.43408 132.248 3.85115Z" fill="white"/>
<path d="M103.071 3.98802C103.685 4.41557 104.151 4.97049 104.375 5.68527C104.47 6.60871 104.508 7.52592 103.901 8.27786C103.332 8.87241 102.815 9.29199 101.974 9.37806C100.965 9.38912 100.267 9.35234 99.5221 8.64659C98.7661 7.833 98.6318 7.19349 98.6526 6.09128C98.735 5.16477 99.1682 4.67774 99.8617 4.08791C100.787 3.45365 102.088 3.4818 103.071 3.98802Z" fill="white"/>
</g>
<defs>
<clipPath id="clip0_250_570">
<rect width="181" height="70" fill="white" transform="translate(0.489014 0.5)"/>
</clipPath>
</defs>
</svg>
