<svg width="32" height="33" viewBox="0 0 32 33" fill="none" xmlns="http://www.w3.org/2000/svg">
<path d="M16 5.93213C17.14 5.93213 18.3093 5.96146 19.4427 6.00946L20.7813 6.07346L22.0627 6.14946L23.2627 6.2308L24.3587 6.31613C25.5482 6.40665 26.6677 6.91404 27.5199 7.74893C28.3721 8.58382 28.9024 9.69266 29.0173 10.8801L29.0707 11.4468L29.1707 12.6601C29.264 13.9175 29.3333 15.2881 29.3333 16.5988C29.3333 17.9095 29.264 19.2801 29.1707 20.5375L29.0707 21.7508L29.0173 22.3175C28.9024 23.5051 28.3719 24.6141 27.5194 25.4491C26.667 26.284 25.5471 26.7912 24.3573 26.8815L23.264 26.9655L22.064 27.0481L20.7813 27.1241L19.4427 27.1881C18.2958 27.2378 17.148 27.2636 16 27.2655C14.852 27.2636 13.7042 27.2378 12.5573 27.1881L11.2187 27.1241L9.93733 27.0481L8.73733 26.9655L7.64133 26.8815C6.45175 26.7909 5.33226 26.2836 4.48006 25.4487C3.62785 24.6138 3.09759 23.5049 2.98266 22.3175L2.92933 21.7508L2.82933 20.5375C2.72777 19.227 2.67352 17.9132 2.66666 16.5988C2.66666 15.2881 2.736 13.9175 2.82933 12.6601L2.92933 11.4468L2.98266 10.8801C3.09754 9.69287 3.62761 8.5842 4.47955 7.74934C5.33148 6.91447 6.45065 6.40695 7.64 6.31613L8.73466 6.2308L9.93466 6.14946L11.2173 6.07346L12.556 6.00946C13.7033 5.95977 14.8516 5.93398 16 5.93213ZM16 8.5988C14.9 8.5988 13.768 8.62813 12.6667 8.67346L11.3627 8.73613L10.1107 8.80946L8.93466 8.88946L7.85733 8.97346C7.29092 9.01312 6.75692 9.2523 6.35021 9.64851C5.94351 10.0447 5.69044 10.5723 5.636 11.1375C5.48 12.7495 5.33333 14.7561 5.33333 16.5988C5.33333 18.4415 5.48 20.4481 5.636 22.0601C5.74933 23.2228 6.672 24.1268 7.85733 24.2241L8.93466 24.3068L10.1107 24.3868L11.3627 24.4615L12.6667 24.5241C13.768 24.5695 14.9 24.5988 16 24.5988C17.1 24.5988 18.232 24.5695 19.3333 24.5241L20.6373 24.4615L21.8893 24.3881L23.0653 24.3081L24.1427 24.2241C24.7091 24.1845 25.2431 23.9453 25.6498 23.5491C26.0565 23.1529 26.3096 22.6253 26.364 22.0601C26.52 20.4481 26.6667 18.4415 26.6667 16.5988C26.6667 14.7561 26.52 12.7495 26.364 11.1375C26.3096 10.5723 26.0565 10.0447 25.6498 9.64851C25.2431 9.2523 24.7091 9.01312 24.1427 8.97346L23.0653 8.8908L21.8893 8.8108L20.6373 8.73613L19.3333 8.67346C18.2228 8.6258 17.1115 8.60091 16 8.5988ZM13.3333 13.3655C13.3332 13.2351 13.365 13.1068 13.4258 12.9915C13.4866 12.8763 13.5747 12.7776 13.6823 12.7042C13.79 12.6307 13.9139 12.5847 14.0434 12.57C14.1729 12.5554 14.304 12.5726 14.4253 12.6201L14.5333 12.6735L20.1333 15.9055C20.2448 15.9698 20.3392 16.0601 20.4083 16.1687C20.4775 16.2773 20.5194 16.401 20.5305 16.5293C20.5416 16.6575 20.5217 16.7866 20.4722 16.9055C20.4228 17.0243 20.3454 17.1295 20.2467 17.2121L20.1333 17.2921L14.5333 20.5255C14.4205 20.5908 14.2934 20.6276 14.1631 20.6326C14.0327 20.6376 13.9032 20.6106 13.7857 20.5541C13.6682 20.4976 13.5662 20.4132 13.4888 20.3083C13.4113 20.2033 13.3607 20.0811 13.3413 19.9521L13.3333 19.8321V13.3655Z" fill="white"/>
</svg>
