<svg width="273" height="71" viewBox="0 0 273 71" fill="none" xmlns="http://www.w3.org/2000/svg">
<g clip-path="url(#clip0_250_647)">
<path d="M54.143 16.7138C50.1982 6.96504 43.2736 0.5 35.3955 0.5C27.5174 0.5 20.5928 6.96504 16.648 16.7138C6.93658 20.6634 0.48877 27.6008 0.48877 35.5C0.48877 42.3463 5.32463 48.4642 12.9417 52.5504C12.4081 50.1772 12.3173 47.6789 12.7373 45.1862C9.03666 42.5057 6.83441 39.148 6.83441 35.5C6.83441 31.3911 9.6383 27.6406 14.2358 24.8179C13.549 28.187 13.1801 31.778 13.1801 35.5C13.1801 37.7195 13.3106 39.8878 13.566 41.9935C13.566 41.9935 13.566 41.9878 13.566 41.9821C14.792 38.5219 16.9091 35.6366 19.5654 33.4911C19.73 29.1943 20.4168 25.1593 21.5179 21.5911C25.6273 20.3163 30.3553 19.5878 35.3898 19.5878C39.0281 19.5878 42.5074 19.9691 45.7086 20.6577C44.6926 17.8122 43.3815 15.4049 41.8717 13.6065C39.7716 13.3504 37.6091 13.2195 35.3955 13.2195C31.6778 13.2195 28.0963 13.5894 24.7362 14.278C27.5514 9.6626 31.2918 6.85691 35.3955 6.85691C39.4992 6.85691 43.2396 9.66829 46.0491 14.278C47.3319 16.3724 48.4217 18.8423 49.2617 21.5854C50.5331 25.7 51.2596 30.4463 51.2596 35.4943C51.2596 39.1423 50.8793 42.6252 50.1925 45.835C53.0305 44.8163 55.4257 43.5073 57.2193 41.9935C57.4747 39.8878 57.6052 37.7138 57.6052 35.4943C57.6052 31.7667 57.2363 28.1813 56.5495 24.8122C61.1527 27.635 63.9509 31.3854 63.9509 35.4943C63.9509 39.6033 61.147 43.3537 56.5495 46.1764C54.4608 47.4626 51.9975 48.5553 49.2617 49.3976C45.158 50.6724 40.4243 51.4008 35.3898 51.4008C31.7516 51.4008 28.2723 51.0195 25.071 50.3309C26.0927 53.1764 27.3982 55.5837 28.9023 57.3821C31.0024 57.6382 33.1705 57.7691 35.3841 57.7691C39.1018 57.7691 42.6777 57.3992 46.0378 56.7106C43.2225 61.326 39.4821 64.1317 35.3841 64.1317C31.2861 64.1317 27.5401 61.3203 24.7248 56.7106C23.8224 55.2366 23.0221 53.5805 22.3239 51.7707V51.7593C20.4906 46.7057 23.0958 41.1171 28.1417 39.2789C29.2485 38.8805 30.3837 38.687 31.4905 38.6927C32.024 38.687 32.62 38.6927 33.2443 38.6927L30.0261 46.7911H32.234C33.6076 46.7911 34.9074 46.0341 35.7871 44.7309L40.027 38.4366C42.9785 38.0894 45.5724 37.2984 46.4692 35.4943C45.5724 33.6959 42.9728 32.8992 40.027 32.552L35.7871 26.2577C34.9074 24.9545 33.6076 24.1976 32.234 24.1976H30.0261L33.2443 32.2959C32.62 32.2959 32.0297 32.3073 31.4905 32.3073V32.2959C29.5209 32.2959 27.5287 32.6659 25.5932 33.4398C23.198 34.3959 21.166 35.8642 19.5654 37.6683C15.6604 42.0618 14.3209 48.4472 16.6424 54.2862C20.5871 64.035 27.506 70.5 35.3898 70.5C43.2736 70.5 50.1925 64.035 54.1373 54.2862C63.8544 50.3366 70.2965 43.3935 70.2965 35.5C70.2965 27.6065 63.8487 20.6634 54.1373 16.7138H54.143Z" fill="white"/>
<path d="M83.9869 55.1854C83.1526 55.1854 82.5226 55.0318 82.1025 54.7244C81.6769 54.4171 81.4668 53.9505 81.4725 53.3187H82.6361C82.6588 53.5805 82.778 53.7854 83.005 53.9334C83.2264 54.0814 83.5556 54.1553 83.9926 54.161C84.407 54.161 84.7248 54.0984 84.9518 53.9675C85.1789 53.8366 85.2924 53.6659 85.2924 53.4496C85.2924 53.2618 85.2186 53.1196 85.0654 53.0171C84.9121 52.9147 84.6737 52.835 84.3445 52.7781L83.6748 52.6643C83.4364 52.6188 83.2321 52.5789 83.0618 52.5391C82.8915 52.4992 82.7099 52.4366 82.5169 52.3513C82.3182 52.2659 82.165 52.1692 82.0458 52.061C81.9266 51.9529 81.8301 51.8106 81.7506 51.6342C81.6712 51.4578 81.6315 51.2529 81.6315 51.0253C81.6315 50.5074 81.8358 50.1033 82.2558 49.8188C82.6758 49.5342 83.2548 49.3862 84.0153 49.3862C85.6046 49.3862 86.4105 50.0009 86.4219 51.2301H85.2697C85.1732 50.6838 84.7475 50.4106 83.9926 50.4106C83.6294 50.4106 83.3512 50.4675 83.1583 50.587C82.9653 50.7066 82.8688 50.8716 82.8688 51.0822C82.8688 51.4066 83.1412 51.6171 83.6861 51.7253L84.2707 51.8277C84.2707 51.8277 84.3389 51.8391 84.3956 51.8448C85.0483 51.9643 85.5138 52.0952 85.7805 52.2261C86.3027 52.4879 86.5695 52.909 86.5752 53.4895C86.5752 54.0301 86.3538 54.4513 85.9167 54.7415C85.4797 55.0374 84.8383 55.1797 83.9983 55.1797L83.9869 55.1854Z" fill="white"/>
<path d="M91.7176 55.0033L91.3827 54.0927H88.715L88.3802 55.0033H87.052L89.1464 49.5684H90.9513L93.0514 55.0033H91.7176ZM89.0726 53.1139H91.0195L90.1681 50.7919H89.924L89.0726 53.1139Z" fill="white"/>
<path d="M93.8687 55.0033V49.5684H98.4207V50.6497H95.1514V51.9301H98.2391V52.909H95.1514V55.0033H93.8687Z" fill="white"/>
<path d="M103.206 55.0033L102.871 54.0927H100.203L99.8682 55.0033H98.54L100.634 49.5684H102.439L104.539 55.0033H103.206ZM100.561 53.1139H102.507L101.656 50.7919H101.412L100.561 53.1139Z" fill="white"/>
<path d="M110.556 55.0033H109.279L108.388 53.3871H106.639V55.0033H105.357V49.5684H108.2C108.927 49.5684 109.477 49.7334 109.852 50.0692C110.227 50.3993 110.414 50.883 110.414 51.5204C110.414 51.8846 110.334 52.209 110.17 52.4822C110.005 52.7553 109.778 52.9716 109.494 53.131L110.55 55.009L110.556 55.0033ZM106.639 50.6497V52.3968H108.132C108.461 52.3968 108.711 52.3228 108.881 52.1749C109.052 52.0269 109.143 51.8106 109.143 51.5261C109.143 51.2415 109.057 51.0253 108.881 50.8773C108.705 50.7293 108.456 50.6553 108.132 50.6553H106.639V50.6497Z" fill="white"/>
<path d="M111.453 55.0033V49.5684H112.735V55.0033H111.453Z" fill="white"/>
<path d="M113.757 55.0033V49.5684H115.25L117.764 53.222H117.889V49.5684H119.149V55.0033H117.685L115.136 51.3497H115.023V55.0033H113.763H113.757Z" fill="white"/>
<path d="M122.906 55.1853C122.089 55.1853 121.408 54.9122 120.869 54.3715C120.33 53.8309 120.057 53.1366 120.057 52.2886C120.057 51.4406 120.335 50.7406 120.886 50.2C121.436 49.6593 122.157 49.3918 123.048 49.3918C123.463 49.3918 123.843 49.4544 124.195 49.5796C124.547 49.7049 124.865 49.9154 125.137 50.2114C125.415 50.5073 125.602 50.8715 125.693 51.3097H124.411C124.303 51.065 124.132 50.8715 123.894 50.7292C123.656 50.587 123.378 50.5187 123.065 50.5187C122.555 50.5187 122.135 50.6837 121.811 51.0195C121.487 51.3553 121.323 51.7764 121.323 52.3C121.323 52.8235 121.487 53.2447 121.811 53.5805C122.14 53.9162 122.549 54.087 123.048 54.087C123.395 54.087 123.707 53.9959 123.985 53.8195C124.257 53.6431 124.439 53.3756 124.518 53.017H122.946V52.1463H125.778V55.0203H124.972L124.961 54.1382C124.762 54.4569 124.49 54.713 124.149 54.9065C123.803 55.1 123.389 55.1967 122.906 55.1967V55.1853Z" fill="white"/>
<path d="M126.829 55.0033V49.5684H128.111V55.0033H126.829Z" fill="white"/>
<path d="M129.036 55.0032V53.9561L132.215 50.7577V50.6553H129.122V49.574H133.861V50.6211L130.654 53.8252V53.9276H133.821V55.0089H129.036V55.0032Z" fill="white"/>
<path d="M136.654 55.0032L138.595 52.2886V52.2203L136.699 49.574H138.101L139.344 51.3496H139.469L140.706 49.574H142.114L140.224 52.2203V52.2886L142.159 55.0032H140.74L139.469 53.1536H139.344L138.073 55.0032H136.654Z" fill="white"/>
<path d="M147.358 55.0033L147.023 54.0927H144.356L144.021 55.0033H142.693L144.787 49.5684H146.592L148.692 55.0033H147.358ZM144.713 53.1139H146.66L145.809 50.7919H145.565L144.713 53.1139Z" fill="white"/>
<path d="M153.755 49.5684L151.519 53.2619V55.0033H150.23V53.2562L148 49.5684H149.368L150.815 51.9984H150.951L152.399 49.5684H153.766H153.755Z" fill="white"/>
<path d="M159.749 55.0033H158.472L157.581 53.3871H155.833V55.0033H154.55V49.5684H157.393C158.12 49.5684 158.671 49.7334 159.045 50.0692C159.42 50.4049 159.607 50.883 159.607 51.5204C159.607 51.8846 159.528 52.209 159.363 52.4822C159.198 52.7553 158.971 52.9716 158.688 53.131L159.743 55.009L159.749 55.0033ZM155.833 50.6497V52.3968H157.325C157.655 52.3968 157.904 52.3228 158.075 52.1749C158.245 52.0269 158.336 51.8106 158.336 51.5261C158.336 51.2415 158.25 51.0253 158.075 50.8773C157.899 50.7293 157.649 50.6553 157.325 50.6553H155.833V50.6497Z" fill="white"/>
<path d="M160.646 55.0033V49.5684H161.928V53.922H165.05V55.0033H160.646Z" fill="white"/>
<path d="M166.021 55.0033V49.5684H167.303V55.0033H166.021Z" fill="white"/>
<path d="M174.614 52.1521C175.227 52.4025 175.533 52.8407 175.533 53.4724C175.533 53.9448 175.352 54.3204 174.994 54.5936C174.636 54.8667 174.075 55.0033 173.308 55.0033H170.414V49.5684H173.325C174.046 49.5684 174.568 49.6936 174.886 49.9497C175.204 50.2058 175.363 50.5415 175.363 50.957C175.363 51.4692 175.113 51.8391 174.614 52.061V52.1464V52.1521ZM173.229 50.5814H171.702V51.7822H173.229C173.83 51.7822 174.131 51.583 174.131 51.1846C174.131 50.7862 173.83 50.5757 173.229 50.5757V50.5814ZM173.291 53.9903C173.586 53.9903 173.819 53.9277 173.984 53.7968C174.148 53.6659 174.233 53.4952 174.233 53.2732C174.233 53.0513 174.154 52.8862 173.989 52.7667C173.825 52.6529 173.592 52.5903 173.291 52.5903H171.696V53.9846H173.291V53.9903Z" fill="white"/>
<path d="M179.297 55.1853C178.417 55.1853 177.702 54.9179 177.151 54.3772C176.601 53.8366 176.328 53.1423 176.328 52.2886C176.328 51.4349 176.606 50.7406 177.151 50.2C177.696 49.6593 178.417 49.3918 179.297 49.3918C180.176 49.3918 180.903 49.6593 181.453 50.2C182.004 50.7406 182.276 51.4349 182.276 52.2886C182.276 53.1423 182.004 53.8366 181.453 54.3772C180.903 54.9179 180.182 55.1853 179.297 55.1853ZM179.297 54.0642C179.785 54.0642 180.193 53.8992 180.517 53.5691C180.84 53.239 180.999 52.8122 180.999 52.2829C180.999 51.7536 180.84 51.3268 180.517 50.9967C180.193 50.6666 179.79 50.5016 179.297 50.5016C178.803 50.5016 178.406 50.6666 178.082 50.9967C177.758 51.3268 177.594 51.7536 177.594 52.2829C177.594 52.8122 177.758 53.239 178.082 53.5691C178.406 53.8992 178.814 54.0642 179.297 54.0642Z" fill="white"/>
<path d="M183.411 52.1464C183.491 51.6968 183.525 51.2017 183.514 50.6497H182.906V49.5684H184.547V49.8245C184.547 50.3594 184.513 50.8318 184.45 51.2358C184.388 51.6399 184.308 51.9415 184.217 52.1407H183.411V52.1464Z" fill="white"/>
<path d="M185.529 55.0033V49.5684H186.812V53.922H189.933V55.0033H185.529Z" fill="white"/>
<path d="M193.287 55.1854C192.453 55.1854 191.823 55.0318 191.403 54.7244C190.977 54.4171 190.767 53.9505 190.773 53.3187H191.937C191.959 53.5805 192.079 53.7854 192.306 53.9334C192.527 54.0814 192.856 54.1553 193.293 54.161C193.707 54.161 194.025 54.0984 194.252 53.9675C194.479 53.8366 194.593 53.6659 194.593 53.4496C194.593 53.2618 194.519 53.1196 194.366 53.0171C194.213 52.9147 193.974 52.835 193.645 52.7781L192.975 52.6643C192.737 52.6188 192.533 52.5789 192.362 52.5391C192.192 52.4992 192.01 52.4366 191.817 52.3513C191.619 52.2659 191.466 52.1692 191.346 52.061C191.227 51.9529 191.131 51.8106 191.051 51.6342C190.972 51.4578 190.932 51.2529 190.932 51.0253C190.932 50.5074 191.136 50.1033 191.556 49.8188C191.976 49.5342 192.555 49.3862 193.316 49.3862C194.905 49.3862 195.711 50.0009 195.722 51.2301H194.57C194.474 50.6838 194.048 50.4106 193.293 50.4106C192.93 50.4106 192.652 50.4675 192.459 50.587C192.266 50.7066 192.169 50.8716 192.169 51.0822C192.169 51.4066 192.442 51.6171 192.987 51.7253L193.571 51.8277C193.571 51.8277 193.639 51.8391 193.696 51.8448C194.349 51.9643 194.814 52.0952 195.081 52.2261C195.603 52.4879 195.87 52.909 195.876 53.4895C195.876 54.0301 195.654 54.4513 195.217 54.7415C194.78 55.0374 194.139 55.1797 193.299 55.1797L193.287 55.1854Z" fill="white"/>
<path d="M196.767 55.0033V49.5684H198.05V55.0033H196.767Z" fill="white"/>
<path d="M199.065 55.0033V49.5684H200.558L203.073 53.222H203.197V49.5684H204.458V55.0033H202.993L200.445 51.3497H200.331V55.0033H199.071H199.065Z" fill="white"/>
<path d="M195.688 42.2553L194.621 39.5122L194.4 38.926L192.572 34.2138L192.328 33.5935L189.133 25.3414L185.597 16.2244H176.334L165.612 44.065H172.423L173.575 40.9179C172.951 40.1097 171.986 39.6089 170.953 39.3927H186.352C186.874 39.3983 187.362 39.3983 187.827 39.3927L188.043 39.9902L188.877 42.2439L189.547 44.065H196.392L195.688 42.2439V42.2553ZM184.938 34.3959H175.993L180.341 22.4902H181.601L182.452 24.8065L182.747 25.5975L185.756 33.7585L185.994 34.3845C185.636 34.3902 185.29 34.3902 184.938 34.3902V34.3959Z" fill="white"/>
<path d="M151.961 44.0821C147.619 44.0821 144.515 44.2301 142.312 42.6366C140.11 41.0431 139.015 38.613 139.037 35.335H145.077C145.19 36.7008 145.826 37.7707 146.989 38.5333C148.153 39.2959 149.793 39.2902 152.052 39.313C154.198 39.313 155.929 39.3756 157.104 38.7041C158.279 38.0325 158.863 37.1333 158.863 36.0122C158.863 35.0504 158.472 34.2992 157.688 33.7585C156.905 33.2179 155.651 32.8081 153.931 32.5122L150.44 31.9089C149.186 31.687 148.125 31.465 147.25 31.2545C146.376 31.0439 145.434 30.7138 144.413 30.2813C143.397 29.8431 142.579 29.348 141.961 28.7845C141.342 28.2211 140.831 27.4813 140.417 26.565C140.002 25.6431 139.792 24.5902 139.792 23.4008C139.792 20.7089 140.865 18.6203 143.028 17.1293C145.184 15.6382 148.397 15.8317 152.336 15.8317C160.612 15.8317 164.619 18.0854 164.692 24.4764H158.687C158.194 21.6309 156.031 20.4984 152.092 20.4984C150.191 20.4984 148.692 20.5098 147.693 21.1301C146.7 21.7447 146.2 22.6041 146.2 23.7024C146.2 25.387 147.625 26.4967 150.463 27.0317L153.517 27.5724C153.653 27.5951 153.863 27.6293 154.152 27.6748C157.552 28.3008 159.959 28.9667 161.366 29.661C164.097 31.0268 165.476 33.2179 165.498 36.2228C165.498 39.0512 164.363 41.2252 162.082 42.7504C159.8 44.2756 156.315 44.0935 151.95 44.0935L151.961 44.0821Z" fill="white"/>
<path d="M132.76 15.8259L125.472 28.3349H124.802L117.435 15.8259H107.933C105.799 15.8259 104.051 17.0097 103.387 18.8991L97.5012 35.6422H96.996L89.9977 15.8259H81.4441L81.4668 44.0877H87.8749L87.8578 27.0658H88.4254L94.6462 44.0877H99.8453L106.038 27.0658H106.605L106.622 44.0877H113.03L113.008 19.7186L121.998 34.6975L122.027 44.082H128.702V35.1015L140.224 15.8316H132.743L132.76 15.8259Z" fill="white"/>
<path d="M218.466 21.756H204.197L204.185 28.4202H215.883L213.88 33.6901H204.157L204.117 44.0706H197.533L197.584 16.2129H220.589L218.466 21.7503V21.756Z" fill="white"/>
<path d="M268.879 18.7796C266.949 17.0779 264.123 16.23 260.399 16.23H245.818L245.829 26.582L245.841 44.0763H252.419V35.7845H255.206H261.37L265.939 44.0706H272.483L267.057 34.4584C268.533 33.6617 269.691 32.5576 270.525 31.1462C271.359 29.7292 271.785 28.0845 271.774 26.2007C271.774 22.9568 270.809 20.4812 268.879 18.7796ZM265.235 26.2405C265.235 27.6975 264.787 28.8072 263.901 29.5755C263.101 30.2584 261.971 30.617 260.535 30.6853H252.413V30.6056V24.1007C251.897 22.8088 250.682 22.0519 249.343 21.7731H260.042C261.722 21.7731 263.004 22.1487 263.901 22.9113C264.787 23.6739 265.235 24.7893 265.241 26.2462L265.235 26.2405Z" fill="white"/>
<path d="M243.559 42.2553L242.492 39.5122L242.271 38.926L240.443 34.2138L240.199 33.5935L237.003 25.3414L233.467 16.2244H224.204L213.482 44.065H220.293L221.446 40.9179C220.821 40.1097 219.856 39.6089 218.823 39.3927H234.222C234.744 39.3983 235.232 39.3983 235.698 39.3927L235.914 39.9902L236.748 42.2439L237.418 44.065H244.263L243.559 42.2439V42.2553ZM232.803 34.3959H223.858L228.206 22.4902H229.466L230.317 24.8065L230.612 25.5975L233.62 33.7585L233.859 34.3845C233.501 34.3902 233.155 34.3902 232.803 34.3902V34.3959Z" fill="white"/>
</g>
<defs>
<clipPath id="clip0_250_647">
<rect width="272" height="70" fill="white" transform="translate(0.48877 0.5)"/>
</clipPath>
</defs>
</svg>
