<svg width="337" height="71" viewBox="0 0 337 71" fill="none" xmlns="http://www.w3.org/2000/svg">
<path d="M141.366 2.05713C147.23 2.05713 153.094 2.05713 159.135 2.05713C159.296 2.37855 159.445 2.67886 159.577 3.00928C159.608 3.08784 159.64 3.1664 159.672 3.24734C159.706 3.33213 159.739 3.41691 159.773 3.5017C159.809 3.59119 159.845 3.68067 159.881 3.77014C159.956 3.9595 160.032 4.14892 160.107 4.33837C160.304 4.83239 160.502 5.32606 160.7 5.81974C160.719 5.86847 160.739 5.9172 160.759 5.9674C161.119 6.86578 161.484 7.7618 161.856 8.65541C162.145 9.35149 162.426 10.0506 162.707 10.7502C163.057 11.6244 163.41 12.4974 163.764 13.3703C163.854 13.5934 163.945 13.8164 164.035 14.0395C164.221 14.4985 164.407 14.9575 164.593 15.4164C164.696 15.6715 164.8 15.9266 164.903 16.1817C165.095 16.6566 165.288 17.1315 165.48 17.6064C165.527 17.7225 165.527 17.7225 165.575 17.8409C165.898 18.6374 166.22 19.4339 166.543 20.2304C167.168 21.772 167.793 23.3136 168.414 24.8571C168.436 24.9138 168.459 24.9704 168.483 25.0288C168.545 25.185 168.608 25.3412 168.671 25.4974C168.689 25.5427 168.707 25.588 168.726 25.6347C168.797 25.8114 168.864 25.9873 168.925 26.1679C169.184 25.5533 169.436 24.9364 169.688 24.3187C169.719 24.2412 169.719 24.2412 169.751 24.1622C170.337 22.7209 170.921 21.2785 171.505 19.8363C171.831 19.0313 172.157 18.2263 172.483 17.4214C172.644 17.0253 172.804 16.6292 172.965 16.233C173.029 16.0744 173.093 15.9158 173.157 15.7572C173.205 15.6394 173.205 15.6394 173.254 15.5192C175.085 10.9985 175.085 10.9985 175.182 10.7606C175.246 10.6018 175.31 10.4431 175.375 10.2844C175.535 9.88939 175.695 9.4944 175.855 9.0994C176.151 8.36709 176.448 7.63476 176.744 6.90238C176.865 6.60437 176.986 6.30637 177.106 6.00837C177.188 5.80741 177.269 5.60645 177.35 5.40549C177.381 5.3307 177.411 5.25591 177.442 5.17885C177.468 5.11426 177.494 5.04966 177.521 4.98311C177.917 4.00688 178.316 3.03209 178.714 2.05713C184.578 2.05713 190.442 2.05713 196.483 2.05713C196.483 15.4576 196.483 28.8581 196.483 42.6647C192.323 42.6647 188.163 42.6647 183.877 42.6647C183.855 35.1269 183.833 27.5891 183.81 19.8229C182.821 22.0529 182.821 22.0529 181.838 24.2855C181.587 24.8564 181.336 25.4268 181.084 25.9971C180.638 27.0087 180.193 28.021 179.75 29.0341C179.359 29.9292 178.966 30.8232 178.571 31.7169C178.204 32.5493 177.838 33.3823 177.474 34.2159C177.086 35.1043 176.696 35.992 176.305 36.8791C176.28 36.9354 176.255 36.9918 176.229 37.0498C176.078 37.3934 175.926 37.737 175.775 38.0807C175.562 38.5618 175.35 39.043 175.138 39.5242C175.086 39.6412 175.035 39.7582 174.983 39.8752C174.654 40.622 174.325 41.369 174.002 42.1186C173.979 42.1734 173.955 42.2283 173.93 42.2848C173.9 42.3547 173.9 42.3547 173.87 42.426C173.82 42.5311 173.82 42.5311 173.753 42.5979C173.628 42.6044 173.503 42.6061 173.378 42.6059C173.297 42.606 173.215 42.6061 173.131 42.6062C173.041 42.606 172.95 42.6057 172.859 42.6055C172.763 42.6055 172.668 42.6055 172.573 42.6055C172.314 42.6055 172.055 42.6052 171.796 42.6047C171.526 42.6043 171.255 42.6042 170.985 42.6042C170.472 42.6039 169.96 42.6034 169.447 42.6027C168.864 42.602 168.281 42.6016 167.697 42.6013C166.497 42.6006 165.297 42.5994 164.097 42.5979C163.735 41.7756 163.735 41.7756 163.372 40.9533C163.346 40.8938 163.32 40.8344 163.293 40.7731C163.239 40.652 163.186 40.5309 163.133 40.4098C162.997 40.1023 162.861 39.7947 162.726 39.4872C162.699 39.4267 162.673 39.3662 162.645 39.3038C162.595 39.1903 162.545 39.0769 162.495 38.9634C162.347 38.6281 162.2 38.2929 162.052 37.9577C161.853 37.5065 161.654 37.0554 161.455 36.6044C160.913 35.3767 160.373 34.1484 159.836 32.9189C159.471 32.0844 159.104 31.2506 158.737 30.4173C158.712 30.3606 158.687 30.304 158.661 30.2456C158.484 29.8436 158.307 29.4417 158.129 29.0398C157.927 28.5806 157.724 28.1215 157.522 27.6623C157.497 27.6056 157.472 27.5489 157.446 27.4905C157.08 26.6606 156.716 25.8301 156.352 24.9991C155.95 24.0787 155.546 23.159 155.141 22.2399C155.117 22.1839 155.092 22.1279 155.067 22.0702C154.995 21.9078 154.923 21.7455 154.852 21.5832C154.832 21.5378 154.812 21.4924 154.791 21.4456C154.542 20.8816 154.29 20.3191 154.039 19.7562C154.017 27.316 153.995 34.8758 153.972 42.6647C149.812 42.6647 145.652 42.6647 141.366 42.6647C141.366 29.2642 141.366 15.8637 141.366 2.05713Z" fill="white"/>
<path d="M293.173 2.05706C297.798 2.05706 302.422 2.05706 307.187 2.05706C307.209 7.96386 307.231 13.8707 307.254 19.9564C307.825 19.198 308.394 18.4393 308.957 17.6755C309.213 17.331 309.474 16.9906 309.735 16.6504C310.235 15.9995 310.724 15.3413 311.21 14.6801C311.74 13.9589 312.276 13.2426 312.821 12.5327C313.161 12.0902 313.494 11.6436 313.825 11.1946C314.101 10.8194 314.38 10.4466 314.661 10.0748C314.916 9.73745 315.167 9.39765 315.418 9.05735C315.754 8.6014 316.095 8.1499 316.44 7.70071C316.94 7.04982 317.429 6.39163 317.915 5.73044C318.446 5.00854 318.981 4.29052 319.528 3.5811C319.57 3.52758 319.611 3.47406 319.653 3.41892C319.716 3.34077 319.716 3.34077 319.78 3.26104C319.891 3.10876 319.975 2.97324 320.061 2.80858C320.248 2.47611 320.445 2.14008 320.816 1.99977C321.271 1.90791 321.734 1.93156 322.195 1.94332C322.35 1.94361 322.506 1.94345 322.661 1.94288C323.081 1.94259 323.501 1.94847 323.921 1.95548C324.361 1.96175 324.801 1.96233 325.24 1.96352C325.978 1.96611 326.715 1.97252 327.453 1.98148C328.212 1.99069 328.971 1.99777 329.73 2.00202C329.801 2.00242 329.801 2.00242 329.872 2.00282C330.107 2.00413 330.343 2.0054 330.578 2.00664C332.526 2.01701 334.474 2.03472 336.422 2.05706C336.316 2.3351 336.19 2.53333 336.003 2.76669C335.942 2.84381 335.881 2.92105 335.821 2.99836C335.771 3.06099 335.771 3.06099 335.721 3.12489C335.532 3.36984 335.348 3.61938 335.165 3.8687C335.125 3.92252 335.085 3.97634 335.044 4.03179C334.963 4.14223 334.882 4.25269 334.8 4.36316C334.604 4.62996 334.406 4.89633 334.209 5.16273C334.131 5.2684 334.053 5.37406 333.975 5.47972C333.818 5.6922 333.66 5.90456 333.503 6.11682C333.118 6.63583 332.735 7.15605 332.357 7.67984C332.053 8.10001 331.745 8.51611 331.432 8.92948C331.053 9.43142 330.679 9.93787 330.306 10.4442C330.109 10.7098 329.913 10.9751 329.717 11.2405C329.638 11.3463 329.56 11.452 329.482 11.5578C327.135 14.7302 327.135 14.7302 327.018 14.8889C326.94 14.9946 326.861 15.1003 326.783 15.2059C326.587 15.4713 326.391 15.7365 326.194 16.0016C325.809 16.5206 325.426 17.0408 325.048 17.5646C324.745 17.9848 324.436 18.4008 324.124 18.8142C323.745 19.315 323.372 19.8203 323 20.3254C322.873 20.496 322.747 20.6665 322.621 20.837C322.579 20.8936 322.537 20.9503 322.494 21.0087C322.414 21.1165 322.334 21.2242 322.254 21.332C322.182 21.4291 322.111 21.5264 322.039 21.624C321.973 21.7134 321.905 21.8015 321.835 21.8882C321.649 22.1133 321.649 22.1133 321.617 22.3913C321.673 22.5685 321.737 22.6795 321.849 22.8268C321.887 22.8764 321.924 22.9261 321.962 22.9772C322.023 23.0564 322.023 23.0564 322.085 23.1373C322.171 23.2515 322.258 23.3658 322.344 23.4801C322.388 23.5383 322.432 23.5965 322.478 23.6565C322.68 23.9242 322.879 24.1945 323.079 24.4647C323.157 24.5705 323.235 24.6762 323.313 24.7819C328.711 32.0786 328.711 32.0786 334.109 39.3753C334.147 39.4277 334.186 39.48 334.226 39.534C334.304 39.6395 334.382 39.745 334.46 39.8506C334.698 40.1727 334.937 40.4947 335.175 40.8168C335.292 40.9751 335.409 41.1334 335.526 41.2918C335.675 41.4934 335.825 41.6948 335.974 41.896C336.043 41.988 336.111 42.0801 336.179 42.1721C336.226 42.2356 336.226 42.2356 336.275 42.3004C336.489 42.5903 336.489 42.5903 336.489 42.6646C334.503 42.6845 332.516 42.6998 330.53 42.709C330.295 42.7101 330.061 42.7112 329.826 42.7123C329.779 42.7126 329.732 42.7128 329.684 42.713C328.929 42.7168 328.173 42.7236 327.417 42.7316C326.641 42.7398 325.865 42.7445 325.089 42.7463C324.654 42.7475 324.218 42.7501 323.782 42.7564C323.372 42.7623 322.962 42.7641 322.552 42.7628C322.401 42.7631 322.251 42.7648 322.101 42.7681C320.907 42.7933 320.907 42.7933 320.548 42.4737C320.354 42.2653 320.208 42.0394 320.061 41.7964C319.994 41.7098 319.926 41.624 319.856 41.5399C319.777 41.4375 319.777 41.4375 319.697 41.333C319.415 40.9711 319.121 40.6226 318.819 40.277C318.588 40.0102 318.367 39.7374 318.15 39.4588C317.866 39.0942 317.571 38.742 317.268 38.3932C316.963 38.0415 316.667 37.6827 316.373 37.3215C315.861 36.6965 315.346 36.074 314.831 35.4514C314.37 34.8936 313.908 34.3357 313.449 33.776C313.124 33.3814 312.798 32.988 312.473 32.5943C312.237 32.3087 312 32.023 311.764 31.7373C311.564 31.4957 311.365 31.2541 311.165 31.0126C310.786 30.554 310.407 30.0952 310.029 29.6351C309.827 29.389 309.624 29.1434 309.421 28.8978C309.381 28.8496 309.341 28.8013 309.3 28.7516C309.096 28.505 308.892 28.2586 308.687 28.0126C308.647 27.9643 308.607 27.9161 308.566 27.8664C308.492 27.7768 308.417 27.6873 308.343 27.5979C307.971 27.1498 307.615 26.6921 307.254 26.2346C307.232 31.6565 307.21 37.0784 307.187 42.6646C302.562 42.6646 297.938 42.6646 293.173 42.6646C293.173 29.2641 293.173 15.8636 293.173 2.05706Z" fill="white"/>
<path d="M114.967 0.502197C116.449 0.493868 117.904 0.497446 119.373 0.720947C119.424 0.72826 119.475 0.735874 119.527 0.743408C119.803 0.783101 120.076 0.829268 120.35 0.880127C120.427 0.894237 120.505 0.908558 120.585 0.923096C121.168 1.03257 121.74 1.1678 122.307 1.34302C122.422 1.37844 122.537 1.41259 122.652 1.44653C123.197 1.60866 123.727 1.79888 124.256 2.00708C124.379 2.05544 124.379 2.0553 124.505 2.10474C125.071 2.33019 125.62 2.57296 126.156 2.8606C126.286 2.92962 126.418 2.99586 126.55 3.06177C127.721 3.6533 128.801 4.39059 129.833 5.19653C129.899 5.24785 129.965 5.29894 130.033 5.35181C131.222 6.30072 132.4 7.39207 133.32 8.60278C133.389 8.68976 133.457 8.77667 133.525 8.86353C134.275 9.82046 134.936 10.8175 135.533 11.8752C135.574 11.9481 135.574 11.9485 135.616 12.0227C136.108 12.9009 136.504 13.8125 136.874 14.7473C136.892 14.7924 136.91 14.8376 136.929 14.884C137.207 15.5828 137.382 16.3124 137.565 17.0403C137.604 17.1904 137.645 17.3394 137.688 17.4885C137.927 18.3612 138.037 19.2598 138.147 20.1565C138.155 20.2139 138.162 20.2721 138.169 20.3313C138.754 25.7825 136.955 31.55 133.54 35.8137C132.642 36.921 131.674 38.015 130.571 38.9241C130.537 38.9532 130.502 38.9829 130.466 39.0129C127.567 41.4463 124.107 43.0961 120.388 43.8254C120.307 43.8414 120.226 43.8569 120.144 43.8733C118.92 44.1009 117.693 44.1556 116.451 44.1565C116.309 44.1569 116.167 44.157 116.025 44.1575C115.73 44.1583 115.436 44.1585 115.141 44.1584C114.843 44.1584 114.545 44.1595 114.247 44.1614C112.094 44.1744 110.008 44.1286 107.911 43.5872C107.86 43.5744 107.809 43.5612 107.757 43.5481C106.393 43.2068 105.087 42.7322 103.817 42.1301C103.766 42.106 103.713 42.0818 103.66 42.0569C102.355 41.4437 101.115 40.7121 99.9814 39.8206C99.861 39.7262 99.7392 39.6336 99.6172 39.5413C98.7956 38.9158 98.0639 38.2087 97.3301 37.4846C97.2714 37.427 97.2118 37.3691 97.1514 37.3098C96.7515 36.9119 96.3892 36.4947 96.0391 36.053C96.0012 36.0058 95.9629 35.958 95.9238 35.9094C94.9767 34.7245 94.1879 33.4575 93.4912 32.1125C93.4508 32.0349 93.4503 32.0344 93.4092 31.9553C92.3875 29.9642 91.7551 27.8382 91.4121 25.634C91.3993 25.554 91.3997 25.5535 91.3867 25.4719C91.224 24.4323 91.1756 23.4118 91.1816 22.3606C91.1819 22.2834 91.1824 22.2058 91.1826 22.1262C91.1878 20.8939 91.2415 19.7 91.4795 18.4875C91.4953 18.4061 91.511 18.3244 91.5273 18.2405C92.3155 14.3216 94.1318 10.7116 96.8359 7.75708C96.9638 7.61655 97.088 7.47329 97.2119 7.32935C97.5883 6.89987 97.9956 6.50045 98.4307 6.13013C98.5503 6.0282 98.6694 5.92462 98.7871 5.82056C102.243 2.78366 106.578 1.08399 111.126 0.588135C111.169 0.582787 111.212 0.577042 111.256 0.571533C111.607 0.529228 111.951 0.510542 112.305 0.51001C112.359 0.509679 112.413 0.509374 112.469 0.509033C112.646 0.508067 112.824 0.50745 113.001 0.50708C113.093 0.506798 113.093 0.507369 113.188 0.50708C113.514 0.506082 113.841 0.505417 114.168 0.505127C114.434 0.504836 114.701 0.503725 114.967 0.502197ZM119.499 12.3342C117.833 11.0617 115.664 10.5081 113.588 10.7668C113.526 10.7802 113.466 10.7939 113.405 10.8069C111.234 11.2699 109.428 12.4193 108.053 14.1565C108.003 14.221 107.955 14.2834 107.907 14.3459C107.371 15.0359 106.94 15.7604 106.566 16.55C105.142 19.6538 104.833 23.5893 106.04 26.8225C106.059 26.8723 106.078 26.9207 106.097 26.969C106.744 28.664 107.584 30.214 108.897 31.4915C110.544 33.0473 112.581 34.0483 114.892 34.0168C116.989 33.9426 119.02 33.0099 120.47 31.5002C120.53 31.4358 120.589 31.3733 120.647 31.3108C120.836 31.1164 121.023 30.9214 121.204 30.72C123.612 27.961 124.194 24.261 123.986 20.7297C123.733 17.7368 122.305 14.7408 120.019 12.7698C119.981 12.7381 119.945 12.7077 119.909 12.677C119.774 12.5604 119.638 12.4467 119.499 12.3342Z" fill="white"/>
<path d="M274.447 2.04053C275.443 2.03716 276.429 2.10565 277.407 2.30322C277.49 2.31984 277.49 2.32045 277.574 2.3374C278.213 2.47451 278.819 2.69241 279.428 2.92529C279.501 2.9524 279.501 2.95231 279.575 2.97998C281.427 3.67151 282.959 4.79051 284.39 6.13135C284.434 6.17243 284.478 6.21402 284.523 6.25635C286.24 7.90748 287.418 10.2299 288.019 12.5015C288.043 12.5903 288.043 12.5905 288.067 12.6812C288.123 12.9011 288.168 13.1214 288.211 13.3442C288.225 13.4153 288.225 13.4155 288.239 13.4878C288.487 14.8565 288.443 16.2531 288.438 17.6382C288.437 17.9875 288.438 18.3367 288.439 18.686V19.895C288.443 21.1105 288.344 22.3313 288.027 23.5093C288.01 23.575 287.992 23.6408 287.975 23.7085C287.348 26.0431 286.218 28.1056 284.523 29.8413C284.486 29.8804 284.447 29.9192 284.408 29.9595C283.979 30.4007 283.56 30.8305 283.048 31.1772C283.338 31.7796 283.649 32.3669 283.982 32.9468C284.343 33.5747 284.688 34.2102 285.026 34.8501C285.353 35.4674 285.684 36.0814 286.032 36.687C286.407 37.338 286.76 37.999 287.111 38.6626C287.422 39.2489 287.738 39.8312 288.068 40.4067C288.355 40.9061 288.633 41.4086 288.902 41.9175C288.934 41.9774 288.966 42.0374 288.999 42.0991C289.028 42.1539 289.056 42.2087 289.086 42.2651C289.111 42.3134 289.137 42.3619 289.163 42.4116C289.217 42.5311 289.217 42.5312 289.217 42.6646H273.594C273.27 42.1006 272.95 41.5375 272.643 40.9653C272.357 40.437 272.065 39.913 271.767 39.3921C271.387 38.73 271.028 38.0584 270.671 37.3843C270.29 36.6658 269.898 35.9545 269.492 35.2495C269.291 34.8963 269.096 34.5389 268.9 34.1821C264.287 34.1491 264.287 34.1494 259.58 34.1157V42.6646H249.522C247.657 37.9752 247.656 37.9753 247.347 37.1782C247.212 36.8355 247.07 36.5001 246.912 36.1675C246.097 34.4526 245.959 32.9298 245.985 31.0493C245.99 30.6587 245.988 30.2681 245.987 29.8774C245.987 29.2036 245.99 28.5298 245.996 27.856C246.004 26.8817 246.007 25.9074 246.008 24.9331C246.01 23.3518 246.017 21.7703 246.026 20.189C246.036 18.6548 246.043 17.1206 246.047 15.5864C246.047 15.539 246.048 15.4908 246.048 15.4419C246.049 14.9653 246.051 14.4888 246.052 14.0122C246.054 13.0415 246.057 12.0708 246.06 11.1001C246.06 11.0555 246.06 11.0103 246.061 10.9644C246.07 7.99527 246.086 5.02618 246.103 2.05713C249.832 2.05407 253.562 2.0517 257.291 2.05029C257.731 2.05013 258.172 2.05047 258.612 2.05029C258.7 2.05026 258.788 2.04935 258.878 2.04932C260.297 2.04874 261.716 2.04761 263.135 2.04639C264.592 2.04514 266.049 2.0447 267.506 2.04443C268.404 2.04425 269.303 2.04357 270.201 2.04248C270.818 2.04177 271.434 2.04231 272.051 2.04248C272.406 2.04257 272.762 2.04222 273.117 2.0415C273.443 2.04085 273.77 2.04007 274.096 2.04053C274.213 2.04058 274.33 2.04095 274.447 2.04053ZM269.315 12.854C269.029 12.8537 268.742 12.8546 268.455 12.856C268.151 12.8574 267.846 12.8576 267.542 12.8579C266.967 12.8584 266.392 12.8598 265.817 12.8618C265.028 12.8646 264.239 12.8655 263.449 12.8667C262.305 12.8684 262.305 12.8684 259.58 12.8765V23.2964C260.785 23.3 261.99 23.3033 263.195 23.3052C263.962 23.3063 264.729 23.3074 265.495 23.3101C266.061 23.3121 266.627 23.3143 267.193 23.3149C267.493 23.3152 267.794 23.3147 268.094 23.3159C268.379 23.3173 268.665 23.3189 268.95 23.3188C269.057 23.3187 269.164 23.3188 269.271 23.3188C270.132 23.3254 271.028 23.3062 271.816 22.9155C271.858 22.8931 271.898 22.8709 271.938 22.8491C272.374 22.6211 272.77 22.3711 273.124 22.0269C274.161 20.9213 274.526 19.699 274.494 18.2173C274.492 18.0982 274.49 17.9789 274.489 17.8599C274.48 16.4809 274.235 15.2633 273.237 14.2251C272.193 13.2542 271.05 12.8431 269.63 12.853C269.525 12.8538 269.42 12.8539 269.315 12.854Z" fill="white"/>
<path d="M73.491 2.02539C75.2446 2.01864 76.9607 2.03469 78.6511 2.56641C78.7251 2.58906 78.7995 2.61143 78.8757 2.63477C82.4786 3.77345 85.452 6.32498 87.1892 9.65918C87.6259 10.5231 87.9518 11.4203 88.2146 12.3506C88.2378 12.4316 88.2378 12.432 88.2615 12.5146C88.5682 13.6611 88.6268 14.7896 88.6248 15.9697C88.6251 16.1238 88.6253 16.2785 88.6257 16.4326C88.6263 16.7538 88.6264 17.0753 88.6257 17.3965C88.6251 17.722 88.6262 18.0475 88.6277 18.373C88.6443 21.934 88.3002 25.2686 86.115 28.2383C86.0635 28.3085 86.0118 28.3788 85.9587 28.4512C85.5735 28.967 85.1538 29.4449 84.7068 29.9082C84.6734 29.9429 84.6396 29.9779 84.6052 30.0137C84.1961 30.4368 83.7793 30.8333 83.2986 31.1768C83.9409 32.4932 84.6446 33.7804 85.3738 35.0508C85.7141 35.6473 86.0349 36.2536 86.3562 36.8604C86.6908 37.4919 87.0348 38.1167 87.3914 38.7363C87.7616 39.3835 88.1099 40.0424 88.4587 40.7012C88.7346 41.2216 89.0133 41.7397 89.3113 42.248C89.4678 42.5176 89.4675 42.5181 89.4675 42.665H73.7771C73.5116 42.1582 73.246 41.6511 72.9724 41.1289C72.7054 40.6584 72.7054 40.6581 72.4373 40.1885C72.1232 39.6399 71.8267 39.0819 71.531 38.5234C71.1998 37.8981 70.8642 37.2763 70.5125 36.6621C70.0457 35.8428 69.5995 35.012 69.1511 34.1826C64.5377 34.1496 64.5372 34.1499 59.8308 34.1162V42.665H46.3533V2.05762C51.2072 2.05211 56.0612 2.04572 61.0623 2.04004C62.5936 2.03761 64.1252 2.03571 65.7029 2.0332C67.576 2.032 67.5765 2.03147 68.4539 2.03125C69.0654 2.031 69.6773 2.03078 70.2888 2.0293C70.9952 2.02759 71.7016 2.026 72.408 2.02637C72.7688 2.02653 73.1301 2.02685 73.491 2.02539ZM69.5662 12.8545C69.2794 12.8542 68.9925 12.8541 68.7058 12.8555C68.4016 12.8569 68.0969 12.8581 67.7927 12.8584C67.2179 12.8588 66.643 12.8593 66.0681 12.8613C65.2788 12.8641 64.4893 12.866 63.7 12.8672C62.5558 12.8689 62.5556 12.8689 59.8308 12.877V23.2959C61.0489 23.2983 62.2671 23.3015 63.4851 23.3027C64.2589 23.3035 65.0326 23.3039 65.8064 23.3057C66.3786 23.307 66.951 23.3082 67.5232 23.3086C67.8258 23.3088 68.1288 23.3087 68.4314 23.3096C68.7203 23.3105 69.0096 23.3116 69.2986 23.3115C69.4056 23.3114 69.5128 23.3115 69.6199 23.3115C70.8748 23.3177 72.148 23.1382 73.1023 22.2334C73.1493 22.1859 73.1953 22.1398 73.241 22.0938C73.3335 22.0039 73.4262 21.9135 73.5173 21.8223C74.4586 20.847 74.7558 19.6022 74.7498 18.2832C74.7476 18.1238 74.7453 17.9641 74.7458 17.8047C74.7533 16.4244 74.3973 15.2108 73.4333 14.1748C72.429 13.2263 71.2496 12.843 69.8806 12.8525C69.7759 12.8533 69.6709 12.8544 69.5662 12.8545Z" fill="white"/>
<path d="M27.4656 2.0332C30.2274 2.02519 30.2277 2.02556 31.4675 2.25781C31.5149 2.26643 31.5623 2.2753 31.6111 2.28418C32.1801 2.38888 32.7302 2.54032 33.2781 2.72461C33.3244 2.74006 33.371 2.75557 33.4187 2.77148C35.0146 3.31017 36.4904 4.09616 37.7703 5.19629C37.8202 5.23871 37.8702 5.28148 37.9216 5.3252C40.7484 7.79247 42.4954 11.0763 42.7869 14.8242C42.8223 15.3761 42.8185 15.9296 42.8171 16.4824C42.8172 16.6182 42.817 16.7539 42.8171 16.8896C42.8173 17.1718 42.8168 17.4542 42.8162 17.7363C42.8154 18.0944 42.8163 18.4525 42.8171 18.8105V20.0449C42.8243 23.8612 41.4434 27.2969 38.7761 30.042C38.7289 30.0917 38.6813 30.1411 38.6326 30.1924C36.3772 32.5165 32.9289 34.003 29.6931 34.1221C29.5211 34.1243 29.3486 34.1246 29.1765 34.124C29.1114 34.1241 29.0463 34.124 28.9792 34.124C28.7626 34.1241 28.5455 34.1234 28.3289 34.123C28.173 34.123 28.017 34.123 27.8611 34.123C27.4389 34.1231 27.0166 34.1225 26.5945 34.1221C26.1528 34.1217 25.711 34.1222 25.2693 34.1221C24.5284 34.1219 23.7875 34.1217 23.0466 34.1211C22.2837 34.1205 21.5205 34.1194 20.7576 34.1191H19.3718C17.5925 34.1185 15.8132 34.1174 14.0339 34.1162V42.665H0.489014V2.05762C5.31415 2.05348 10.1397 2.04918 15.1111 2.04492C17.3947 2.04219 17.3953 2.04185 19.7253 2.03906C21.5865 2.03816 21.5869 2.03825 22.4587 2.03809C23.0667 2.0379 23.675 2.03724 24.283 2.03613C24.985 2.03485 25.6874 2.0339 26.3894 2.03418C26.7481 2.0343 27.1069 2.0343 27.4656 2.0332ZM23.7537 12.8467C23.4672 12.8463 23.1807 12.8468 22.8943 12.8486C22.5907 12.8506 22.2868 12.8512 21.9832 12.8516C21.4093 12.8522 20.8354 12.8538 20.2615 12.8564C19.4735 12.8601 18.6852 12.8627 17.8972 12.8643C16.754 12.8665 16.7535 12.8662 14.0339 12.877V23.2959C15.252 23.2983 16.4702 23.3015 17.6882 23.3027C18.462 23.3035 19.2358 23.3039 20.0095 23.3057C20.5817 23.307 21.1542 23.3082 21.7263 23.3086C22.0289 23.3088 22.3319 23.3087 22.6345 23.3096C22.9235 23.3105 23.2128 23.3116 23.5017 23.3115C23.6088 23.3114 23.716 23.3115 23.823 23.3115C24.4849 23.3148 25.1229 23.3183 25.7546 23.0957C25.8289 23.0618 25.8293 23.0626 25.9021 23.0293C26.5368 22.7752 27.082 22.4525 27.573 21.9736C28.571 20.9574 28.8998 19.7913 28.8914 18.4023C28.8884 18.1976 28.8854 17.9929 28.8855 17.7881C28.8858 17.6519 28.8862 17.5151 28.8855 17.3789C28.885 17.3125 28.8841 17.248 28.8835 17.1836C28.8833 16.0707 28.4194 15.0167 27.6453 14.2129C26.6503 13.2596 25.4285 12.8319 24.0671 12.8447C23.9628 12.8458 23.858 12.8466 23.7537 12.8467Z" fill="white"/>
<path d="M233.496 56.0225C234.691 56.0225 235.886 56.0225 237.117 56.0225C237.392 56.7651 237.667 57.5078 237.939 58.2513C237.971 58.3373 238.002 58.4233 238.034 58.5094C238.354 59.3823 238.674 60.2555 238.993 61.1287C239.089 61.3897 239.184 61.6507 239.28 61.9116C239.383 62.1918 239.485 62.472 239.587 62.7524C239.622 62.8469 239.656 62.9413 239.691 63.0357C239.896 63.597 240.086 64.1618 240.262 64.733C240.32 64.9221 240.38 65.1105 240.442 65.2985C240.469 65.3823 240.496 65.4661 240.524 65.5524C240.539 65.5957 240.553 65.6391 240.568 65.6837C240.645 65.9212 240.688 66.1251 240.671 66.3747C240.715 66.3747 240.759 66.3747 240.805 66.3747C240.815 66.3214 240.825 66.268 240.835 66.213C240.97 65.5256 241.184 64.8805 241.417 64.2208C241.457 64.107 241.496 63.9932 241.536 63.8794C241.614 63.6545 241.693 63.4298 241.772 63.2051C241.859 62.9549 241.946 62.7043 242.032 62.4535C242.475 61.159 242.95 59.8759 243.421 58.5913C243.622 58.0414 243.823 57.4911 244.024 56.9408C244.19 56.4862 244.19 56.4862 244.359 56.0225C245.576 56.0225 246.793 56.0225 248.047 56.0225C248.047 60.695 248.047 65.3675 248.047 70.1817C247.184 70.1817 246.321 70.1817 245.432 70.1817C245.43 69.0617 245.429 67.9417 245.428 66.8217C245.428 66.3015 245.427 65.7813 245.427 65.2612C245.426 64.8072 245.426 64.3533 245.425 63.8993C245.425 63.6595 245.425 63.4196 245.425 63.1798C245.421 61.3695 245.421 61.3695 245.484 60.4715C245.507 60.1015 245.505 59.7325 245.499 59.3619C245.48 59.42 245.461 59.4782 245.441 59.5381C244.606 62.0731 243.691 64.5777 242.759 67.0787C242.507 67.7536 242.257 68.4291 242.008 69.1047C241.967 69.215 241.926 69.3253 241.885 69.4356C241.794 69.6843 241.702 69.933 241.61 70.1817C241.057 70.1817 240.503 70.1817 239.933 70.1817C239.713 69.6632 239.506 69.1432 239.314 68.6135C239.288 68.5419 239.262 68.4704 239.236 68.3968C239.151 68.1639 239.067 67.9309 238.982 67.698C238.877 67.4087 238.772 67.1194 238.667 66.8301C238.636 66.7458 238.605 66.6615 238.575 66.5772C238.362 65.993 238.148 65.4094 237.931 64.8266C237.905 64.7571 237.88 64.6876 237.853 64.616C237.828 64.5473 237.802 64.4787 237.776 64.408C237.354 63.2726 236.94 62.1355 236.547 60.9899C236.529 60.9366 236.511 60.8834 236.492 60.8285C236.333 60.3641 236.18 59.9007 236.044 59.4287C236.044 62.9772 236.044 66.5257 236.044 70.1817C235.203 70.1817 234.363 70.1817 233.496 70.1817C233.496 65.5091 233.496 60.8366 233.496 56.0225Z" fill="white"/>
<path d="M77.9346 56.0015C78.8418 56.0015 79.749 56.0015 80.6837 56.0015C81.2902 56.6191 81.2902 56.6191 81.4828 57.1034C81.5938 57.3587 81.7561 57.5627 81.9284 57.7797C81.9889 57.8605 82.0492 57.9416 82.1091 58.0229C82.1391 58.0634 82.1691 58.1039 82.2001 58.1456C82.4707 58.5145 82.7324 58.8898 82.996 59.2636C83.1636 59.5011 83.3318 59.7383 83.4999 59.9754C83.567 60.07 83.634 60.1646 83.7011 60.2592C83.7343 60.3061 83.7675 60.3529 83.8017 60.4012C83.9022 60.5431 84.0028 60.685 84.1034 60.827C84.1366 60.8737 84.1697 60.9205 84.2039 60.9687C84.2713 61.0639 84.3387 61.159 84.406 61.2542C84.5679 61.4829 84.7303 61.7114 84.8939 61.9389C85.921 63.3707 86.8827 64.8448 87.7913 66.3537C87.7893 66.3025 87.7873 66.2512 87.7852 66.1985C87.711 64.2114 87.7161 62.2244 87.7194 60.2363C87.7202 59.7732 87.7205 59.3101 87.7209 58.8469C87.7215 57.8985 87.7228 56.95 87.7242 56.0015C88.5872 56.0015 89.4502 56.0015 90.3393 56.0015C90.3393 60.674 90.3393 65.3466 90.3393 70.1607C87.5901 70.1607 87.5901 70.1607 87.0411 69.6431C86.9574 69.4754 86.8738 69.3073 86.8006 69.1348C86.6562 68.825 86.4471 68.5608 86.2449 68.2864C86.1657 68.174 86.0867 68.0614 86.0081 67.9486C85.5256 67.2598 85.0391 66.5741 84.5434 65.8946C84.2065 65.4324 83.8807 64.9637 83.5589 64.491C83.3085 64.1244 83.0502 63.7646 82.7875 63.4067C82.1235 62.4986 81.5338 61.544 80.9417 60.5885C80.9113 60.5394 80.8809 60.4903 80.8495 60.4398C80.7238 60.2313 80.6037 60.0196 80.4826 59.8084C80.4826 63.2247 80.4826 66.6409 80.4826 70.1607C79.6417 70.1607 78.8009 70.1607 77.9346 70.1607C77.9346 65.4881 77.9346 60.8156 77.9346 56.0015Z" fill="white"/>
<path d="M281.238 56.0225C284.269 56.0225 287.301 56.0225 290.424 56.0225C290.424 56.7278 290.424 57.433 290.424 58.1597C288.233 58.1597 286.043 58.1597 283.786 58.1597C283.786 59.3719 283.786 60.5841 283.786 61.8331C285.667 61.8331 287.547 61.8331 289.485 61.8331C289.485 62.5604 289.485 63.2877 289.485 64.0371C287.604 64.0371 285.724 64.0371 283.786 64.0371C283.786 65.3595 283.786 66.6819 283.786 68.0444C286.087 68.0444 288.388 68.0444 290.759 68.0444C290.759 68.7497 290.759 69.455 290.759 70.1817C287.617 70.1817 284.475 70.1817 281.238 70.1817C281.238 65.5091 281.238 60.8366 281.238 56.0225Z" fill="white"/>
<path d="M156.252 56.0015C159.283 56.0015 162.315 56.0015 165.438 56.0015C165.438 56.7068 165.438 57.412 165.438 58.1387C163.248 58.1387 161.057 58.1387 158.8 58.1387C158.8 59.3509 158.8 60.5631 158.8 61.8121C160.681 61.8121 162.562 61.8121 164.499 61.8121C164.499 62.5394 164.499 63.2667 164.499 64.0161C162.619 64.0161 160.738 64.0161 158.8 64.0161C158.8 65.3385 158.8 66.661 158.8 68.0234C161.101 68.0234 163.402 68.0234 165.773 68.0234C165.773 68.7287 165.773 69.434 165.773 70.1607C162.631 70.1607 159.489 70.1607 156.252 70.1607C156.252 65.4881 156.252 60.8156 156.252 56.0015Z" fill="white"/>
<path d="M110.916 55.7051C110.966 55.705 111.016 55.7049 111.068 55.7048C112.491 55.7077 113.815 55.9805 115.149 56.4689C115.149 57.2183 115.149 57.9677 115.149 58.7398C114.911 58.6668 114.673 58.5937 114.428 58.5185C113.364 58.1949 112.42 57.9931 111.302 57.9926C111.217 57.9917 111.132 57.9909 111.045 57.9901C110.263 57.9889 109.527 58.0348 108.925 58.5843C108.536 59.0076 108.479 59.4343 108.49 59.9962C108.532 60.4368 108.71 60.6962 109.03 60.9939C109.553 61.4129 110.098 61.5523 110.744 61.703C113.668 62.3869 113.668 62.3869 114.545 63.0142C114.597 63.0509 114.648 63.0876 114.701 63.1254C115.346 63.6381 115.721 64.3699 115.86 65.1713C115.943 65.9471 115.918 66.6712 115.685 67.4223C115.667 67.4804 115.649 67.5385 115.631 67.5984C115.298 68.5377 114.57 69.2401 113.71 69.7156C112.499 70.2822 111.222 70.443 109.898 70.4487C109.815 70.449 109.732 70.4494 109.646 70.4498C108.835 70.4435 108.051 70.3282 107.262 70.1439C107.206 70.132 107.149 70.12 107.092 70.1077C106.583 69.9897 106.257 69.8064 105.761 69.5595C105.761 68.8543 105.761 68.149 105.761 67.4223C105.981 67.466 106.167 67.5073 106.375 67.5786C106.451 67.6045 106.451 67.6045 106.529 67.6309C106.634 67.6669 106.739 67.7029 106.844 67.7389C108.45 68.2829 110.514 68.4841 112.094 67.7771C112.543 67.5361 112.804 67.2377 113.066 66.8087C113.193 66.354 113.229 65.8389 113.045 65.3936C112.656 64.7572 111.879 64.5197 111.193 64.35C110.889 64.2829 110.584 64.2205 110.279 64.158C108.685 63.8306 107.173 63.4447 106.23 62.0273C105.706 61.1814 105.674 59.9227 105.887 58.9641C106.178 57.8943 106.806 57.0036 107.752 56.4105C108.225 56.1548 108.73 56.0028 109.248 55.8678C109.291 55.8554 109.334 55.843 109.378 55.8302C109.882 55.6974 110.398 55.7049 110.916 55.7051Z" fill="white"/>
<path d="M257.973 55.7334C259.82 55.7472 261.502 56.3788 262.838 57.6582C264.29 59.1625 264.784 61.2724 264.766 63.3066C264.722 65.1826 264.187 66.9541 262.932 68.3779C262.888 68.4344 262.845 68.4916 262.799 68.5498C262.34 69.1045 261.683 69.4494 261.055 69.7812C261.004 69.8087 260.952 69.8359 260.899 69.8643C260.423 70.0963 259.894 70.2055 259.378 70.3154C259.323 70.3275 259.267 70.3391 259.209 70.3516C257.367 70.7207 255.392 70.401 253.813 69.3848C252.146 68.242 251.296 66.5866 250.93 64.6387C250.562 62.5782 250.948 60.2655 252.07 58.4941C252.256 58.233 252.455 57.9938 252.673 57.7588C252.719 57.707 252.765 57.6549 252.812 57.6016C253.559 56.8011 254.639 56.2396 255.691 55.9561C255.753 55.9375 255.816 55.9185 255.88 55.8994C256.49 55.7467 257.089 55.7355 257.715 55.7344C257.8 55.734 257.886 55.7338 257.973 55.7334ZM257.774 57.9424C257.455 57.9439 257.129 57.9234 256.817 57.9912C256.756 58.0087 256.756 58.0093 256.697 58.0264C256.089 58.169 255.553 58.4226 255.068 58.8193C254.052 59.786 253.579 61.1199 253.519 62.4941C253.477 64.2283 253.706 65.9323 254.947 67.2441C255.827 68.0673 256.877 68.285 258.043 68.2607C259.076 68.2207 260.004 67.8885 260.723 67.126C261.911 65.7524 262.152 64.054 262.027 62.2939C262.021 62.2254 262.016 62.1584 262.01 62.0918C261.959 61.4493 261.826 60.8699 261.541 60.2891C261.518 60.245 261.496 60.202 261.474 60.1592C261.263 59.7473 261.046 59.3621 260.719 59.0283C259.939 58.3079 259.06 57.9334 257.994 57.9385C257.919 57.9399 257.846 57.941 257.774 57.9424Z" fill="white"/>
<path d="M175.425 55.7093C175.5 55.7088 175.5 55.7088 175.577 55.7083C176.609 55.7055 177.615 55.8173 178.58 56.2019C178.58 56.9071 178.58 57.6124 178.58 58.3391C178.156 58.2863 177.759 58.2139 177.344 58.1199C175.822 57.814 174.137 57.8405 172.797 58.6764C171.661 59.4787 171.005 60.6444 170.764 61.9995C170.712 62.39 170.713 62.7796 170.714 63.1729C170.713 63.2547 170.712 63.3365 170.711 63.4208C170.711 63.9792 170.785 64.4808 170.936 65.018C170.95 65.0654 170.963 65.1128 170.977 65.1616C171.289 66.1969 171.876 67.0687 172.837 67.5998C174.457 68.4171 176.521 68.3585 178.241 67.844C178.315 67.8188 178.315 67.8188 178.39 67.7931C178.513 67.7563 178.513 67.7563 178.715 67.7563C178.715 68.4836 178.715 69.211 178.715 69.9603C178.354 70.0631 177.999 70.1533 177.633 70.2317C177.582 70.2433 177.531 70.2548 177.478 70.2668C175.283 70.7361 172.721 70.5194 170.802 69.2925C169.306 68.2916 168.444 66.7817 168.08 65.0407C167.691 62.7804 168.057 60.384 169.389 58.4902C169.498 58.3468 169.612 58.2091 169.73 58.0719C169.758 58.0343 169.786 57.9967 169.815 57.9579C170.809 56.6763 172.557 56.0137 174.104 55.7665C174.542 55.7106 174.983 55.7119 175.425 55.7093Z" fill="white"/>
<path d="M92.418 56.0015C96.2902 56.0015 100.163 56.0015 104.152 56.0015C104.152 56.7068 104.152 57.412 104.152 58.1387C102.647 58.1387 101.143 58.1387 99.5926 58.1387C99.5926 62.106 99.5926 66.0732 99.5926 70.1607C98.7296 70.1607 97.8667 70.1607 96.9775 70.1607C96.9775 66.1934 96.9775 62.2262 96.9775 58.1387C95.4729 58.1387 93.9682 58.1387 92.418 58.1387C92.418 57.4334 92.418 56.7281 92.418 56.0015Z" fill="white"/>
<path d="M230.479 2.05762C230.781 2.73298 230.78 2.7335 230.891 3.04688C230.917 3.11781 230.943 3.18961 230.969 3.2627C230.995 3.33806 231.021 3.41356 231.049 3.49121C231.093 3.61524 231.137 3.73926 231.181 3.86328C231.228 3.99505 231.274 4.12696 231.321 4.25879C231.419 4.53703 231.518 4.81566 231.617 5.09375C231.634 5.14065 231.651 5.18801 231.668 5.23633C231.702 5.33158 231.735 5.42721 231.769 5.52246C231.821 5.66689 231.871 5.81161 231.923 5.95605C232.217 6.78576 232.514 7.61483 232.811 8.44336C233.317 9.85085 233.82 11.259 234.322 12.668C234.73 13.8147 235.138 14.9617 235.55 16.1074C235.569 16.1619 235.589 16.2173 235.609 16.2734C235.732 16.6146 235.854 16.9558 235.976 17.2969C236.213 17.9549 236.449 18.6133 236.685 19.2715C236.727 19.3887 236.727 19.3893 236.77 19.5088C237.238 20.8141 237.705 22.1203 238.17 23.4268C238.649 24.7733 239.13 26.1196 239.613 27.4648C240.064 28.7208 240.512 29.9782 240.96 31.2354C241.467 32.6591 241.975 34.0825 242.486 35.5049C242.66 35.9887 242.833 36.4731 243.007 36.957C243.035 37.0357 243.063 37.1142 243.093 37.1953C243.236 37.5968 243.38 37.9989 243.524 38.4004C243.768 39.0817 244.013 39.7633 244.258 40.4443C244.353 40.7092 244.449 40.9744 244.544 41.2393C244.588 41.3621 244.632 41.4856 244.677 41.6084C244.737 41.7753 244.796 41.9424 244.856 42.1094C244.874 42.1584 244.892 42.2073 244.91 42.2578C245.029 42.59 245.029 42.5906 245.029 42.665H231.217C230.836 41.5279 230.836 41.5275 230.68 40.9658C230.512 40.3708 230.331 39.7805 230.143 39.1914C230.031 38.8355 229.92 38.4792 229.808 38.123C229.786 38.0524 229.764 37.9819 229.741 37.9092C229.667 37.6717 229.593 37.4338 229.519 37.1963C229.483 37.0803 229.483 37.08 229.446 36.9619C229.424 36.8895 229.401 36.8167 229.378 36.7422C229.347 36.6443 229.347 36.6438 229.316 36.5439C229.272 36.3865 229.272 36.3865 229.272 36.2529H214.386C214.32 36.5174 214.254 36.7822 214.185 37.0547C214.131 37.2352 214.076 37.4139 214.017 37.5928C213.983 37.7007 213.948 37.809 213.914 37.917C213.894 37.9788 213.874 38.0409 213.853 38.1045C213.719 38.5229 213.587 38.9423 213.455 39.3613C213.407 39.5133 213.359 39.6655 213.311 39.8174C213.012 40.7638 212.723 41.713 212.442 42.665H198.025C198.08 42.3364 198.159 42.0525 198.272 41.7432C198.291 41.6918 198.309 41.6398 198.328 41.5869C198.369 41.4743 198.41 41.3615 198.451 41.249C198.518 41.065 198.585 40.8805 198.651 40.6963C198.749 40.4264 198.846 40.1565 198.944 39.8867C199.183 39.2268 199.419 38.5659 199.656 37.9053C199.74 37.6704 199.825 37.4351 199.909 37.2002C200.372 35.909 200.833 34.6165 201.293 33.3242C201.715 32.1386 202.138 30.953 202.563 29.7686C202.855 28.9555 203.146 28.1418 203.436 27.3281C203.808 26.2858 204.181 25.2438 204.554 24.2021C205.069 22.7683 205.582 21.3336 206.093 19.8984C206.501 18.7515 206.91 17.6039 207.321 16.458C207.341 16.4037 207.36 16.349 207.38 16.293C207.502 15.9517 207.625 15.6107 207.748 15.2695C207.984 14.6113 208.221 13.9523 208.457 13.2939C208.485 13.216 208.513 13.1379 208.542 13.0576C208.98 11.8353 209.416 10.6121 209.851 9.38867C210.341 8.01265 210.832 6.63694 211.327 5.2627C211.353 5.19142 211.379 5.1203 211.405 5.04688C211.671 4.30884 211.938 3.57107 212.206 2.83398C212.24 2.73983 212.24 2.73953 212.275 2.64355C212.296 2.58599 212.317 2.52805 212.339 2.46875C212.357 2.41817 212.375 2.36754 212.394 2.31543C212.442 2.19099 212.442 2.19065 212.509 2.05762H230.479ZM221.762 12.6768C221.602 13.0791 221.469 13.4868 221.351 13.9033C221.225 14.3522 221.1 14.8004 220.951 15.2422C220.766 15.7835 220.589 16.3278 220.419 16.874C220.405 16.9171 220.393 16.9591 220.38 17.001C220.256 17.3974 220.132 17.794 220.017 18.1934C219.896 18.6224 219.768 19.0469 219.624 19.4688C219.446 19.9831 219.275 20.4978 219.128 21.0215C218.99 21.5157 218.845 22.0052 218.68 22.4912C218.462 23.1312 218.256 23.7717 218.074 24.4229C218.03 24.5814 217.985 24.74 217.94 24.8984C217.872 25.1254 217.805 25.3461 217.739 25.5664H225.92C225.92 25.418 225.92 25.4176 225.814 25.084C225.798 25.0348 225.783 24.9872 225.767 24.9395C225.718 24.7837 225.669 24.6274 225.619 24.4717C225.568 24.3133 225.518 24.1546 225.468 23.9961C225.435 23.8933 225.403 23.7903 225.37 23.6875C225.26 23.343 225.151 22.9978 225.045 22.6523C224.961 22.3817 224.877 22.111 224.793 21.8408C224.778 21.7949 224.764 21.7506 224.75 21.7061C224.693 21.5239 224.636 21.3413 224.579 21.1592C224.444 20.729 224.308 20.298 224.175 19.8672C223.998 19.2952 223.819 18.7243 223.639 18.1533C223.459 17.5792 223.28 17.0048 223.102 16.4297C222.715 15.1735 222.32 13.9211 221.896 12.6768H221.762Z" fill="white"/>
<path d="M71.8999 56.0015C72.7407 56.0015 73.5816 56.0015 74.4479 56.0015C74.4479 60.674 74.4479 65.3466 74.4479 70.1607C73.6071 70.1607 72.7662 70.1607 71.8999 70.1607C71.8999 65.4881 71.8999 60.8156 71.8999 56.0015Z" fill="white"/>
<path d="M130.571 60.4764C130.661 60.5423 130.751 60.609 130.839 60.6768C130.897 60.7154 130.955 60.754 131.015 60.7937C131.529 61.2788 131.948 61.9832 131.993 62.6972C132.003 63.5552 131.881 64.24 131.376 64.9513C131.331 65.0151 131.331 65.0151 131.286 65.0802C130.822 65.6806 130.097 66.0168 129.364 66.1535C128.723 66.2261 128.138 66.176 127.554 65.8863C127.496 65.858 127.438 65.8297 127.378 65.8005C126.572 65.3632 126.161 64.6725 125.852 63.8326C125.671 62.9324 125.831 62.1432 126.296 61.3614C126.75 60.6912 127.39 60.2934 128.154 60.0306C128.995 59.8976 129.849 60.01 130.571 60.4764Z" fill="white"/>
<path d="M221.486 59.9921C221.533 59.9926 221.581 59.9932 221.63 59.9937C222.443 60.011 223.195 60.3229 223.791 60.883C224.449 61.6018 224.682 62.3814 224.664 63.3388C224.628 64.1199 224.226 64.8719 223.661 65.4061C222.863 66.0492 221.956 66.247 220.958 66.1533C220.689 66.0982 220.463 66.0109 220.22 65.8862C220.158 65.8545 220.096 65.8228 220.033 65.7902C219.352 65.4009 218.868 64.8209 218.611 64.0829C218.587 64.0214 218.563 63.9599 218.539 63.8966C218.311 63.1093 218.488 62.2679 218.841 61.5493C219.23 60.8776 219.821 60.3968 220.555 60.1423C220.617 60.1185 220.678 60.0947 220.741 60.0701C220.993 59.9989 221.227 59.9885 221.486 59.9921Z" fill="white"/>
<path d="M267.559 56.0225C274.158 56.0225 274.158 56.0223 275.232 56.4062C275.281 56.4233 275.331 56.4404 275.382 56.458C276.4 56.8256 277.189 57.4249 277.701 58.3838C278.181 59.4066 278.156 60.6607 277.84 61.7314C277.45 62.7646 276.726 63.4722 275.729 63.9355C275.402 64.0739 275.072 64.1948 274.734 64.3047C274.922 64.6479 275.132 64.9554 275.371 65.2646C275.655 65.6366 275.931 66.0125 276.2 66.3955C276.487 66.8048 276.782 67.209 277.081 67.6104C277.419 68.065 277.751 68.5239 278.077 68.9873C278.314 69.324 278.556 69.6568 278.802 69.9873C278.891 70.1146 278.891 70.1149 278.891 70.1816C278.459 70.2141 278.026 70.2358 277.593 70.251C277.446 70.2573 277.299 70.2663 277.152 70.2773C275.968 70.3642 275.968 70.3646 275.59 70.0625C275.324 69.7643 275.135 69.4306 274.955 69.0762C274.816 68.8176 274.644 68.5854 274.469 68.3496C274.403 68.2566 274.337 68.1626 274.271 68.0693C274.238 68.0221 274.203 67.9754 274.169 67.9268C273.976 67.655 273.785 67.382 273.594 67.1094C273.291 66.6789 272.988 66.2485 272.684 65.8193C272.652 65.7743 272.621 65.729 272.588 65.6826C272.557 65.6399 272.527 65.5968 272.496 65.5527C272.467 65.5118 272.438 65.4709 272.408 65.4287C272.347 65.3435 272.285 65.2589 272.222 65.1748C271.985 64.8523 271.984 64.8523 271.984 64.7051H270.107V70.1816H267.559V56.0225ZM271.44 58.1475C270.767 58.1538 270.767 58.154 270.107 58.1602V62.501C270.566 62.5052 271.012 62.5095 271.457 62.5137C272.683 62.5298 273.873 62.5457 274.871 61.7197C275.259 61.3101 275.346 60.8568 275.357 60.3096C275.358 60.2542 275.358 60.2002 275.358 60.1465C275.361 59.7525 275.345 59.4484 275.126 59.1074C274.75 58.6538 274.33 58.3817 273.743 58.2734C273.693 58.2652 273.644 58.257 273.595 58.249C273.014 58.1537 272.441 58.137 271.852 58.1416C271.644 58.1444 271.644 58.1447 271.44 58.1475Z" fill="white"/>
<path d="M197.355 56.002C205.201 56.002 205.202 56.0015 206.773 57.3613C207.582 58.1977 207.858 59.1527 207.847 60.2979C207.811 61.5067 207.425 62.4358 206.542 63.2812C205.947 63.7742 205.263 64.0559 204.53 64.2832C204.846 64.8102 205.204 65.3008 205.571 65.793C205.702 65.9683 205.832 66.1443 205.96 66.3213L206.77 67.4561C206.915 67.6557 207.061 67.8547 207.208 68.0527C207.529 68.4857 207.85 68.9197 208.168 69.3555C208.204 69.4055 208.241 69.4553 208.279 69.5068C208.313 69.5537 208.347 69.6012 208.383 69.6494C208.412 69.6902 208.442 69.7315 208.472 69.7734C208.556 69.8984 208.621 70.0266 208.687 70.1611C208.255 70.1936 207.822 70.2153 207.388 70.2305C207.241 70.2368 207.095 70.2458 206.948 70.2568C205.764 70.3437 205.764 70.3432 205.385 70.041C205.12 69.7429 204.932 69.409 204.752 69.0547C204.613 68.796 204.44 68.564 204.265 68.3281C204.199 68.2352 204.133 68.142 204.067 68.0488C204.034 68.0016 203.999 67.954 203.965 67.9053C203.772 67.6337 203.581 67.3614 203.389 67.0889C203.087 66.6583 202.784 66.228 202.48 65.7988C202.448 65.7538 202.416 65.7085 202.384 65.6621C202.353 65.6193 202.323 65.5763 202.292 65.5322C202.263 65.4913 202.234 65.4504 202.204 65.4082C202.143 65.323 202.081 65.2385 202.018 65.1543C201.78 64.8316 201.781 64.8309 201.781 64.6836H199.903V70.1611H197.355V56.002ZM201.673 58.127C201.53 58.1282 201.391 58.1296 201.253 58.1309C200.794 58.1337 200.348 58.1359 199.903 58.1387V62.4805C200.329 62.4833 200.743 62.4855 201.156 62.4883C201.49 62.4914 201.818 62.4928 202.14 62.4805H202.518V62.459C203.252 62.3971 203.949 62.2216 204.596 61.7451C204.991 61.362 205.176 60.8897 205.215 60.3467C205.222 59.788 205.131 59.31 204.752 58.8779C203.937 58.1152 203.936 58.1153 201.673 58.127Z" fill="white"/>
<path d="M46.2859 56.0684C48.2307 56.0942 50.1816 56.0413 52.1199 56.2021C52.194 56.276 52.1947 56.2758 52.5554 56.3018C52.6783 56.3106 52.8012 56.3211 52.9236 56.335C52.9574 56.3687 52.9578 56.3693 52.991 56.4023C53.2609 56.4531 53.4651 56.4798 53.7283 56.4023C53.2534 56.2583 52.9491 56.1665 52.4666 56.1074C54.1807 56.2555 54.5638 56.6123 55.491 57.4805C56.2768 58.288 56.5069 59.2201 56.5027 60.3086C56.483 61.3592 56.1599 62.2563 55.4304 63.0312C54.469 63.9325 53.2538 64.3644 51.9851 64.5576V64.5508C51.7171 64.5508 51.7169 64.5504 51.0466 64.6172H48.7V70.0938H46.2859V56.0684ZM50.0447 58.126C49.3995 58.1323 49.399 58.1325 48.7664 58.1387V62.4805C49.1766 62.4861 49.5752 62.4916 49.9734 62.4971C50.4208 62.5059 50.8688 62.5185 51.3152 62.4805C52.0928 62.3612 52.9554 62.1256 53.446 61.4697C53.4736 61.4272 53.5003 61.386 53.5271 61.3447C53.8149 60.9197 53.8198 60.5066 53.821 60.0107C53.8102 59.4901 53.6278 59.1051 53.2595 58.7402C52.4186 58.1646 51.4262 58.1131 50.4412 58.1211C50.2413 58.1239 50.2408 58.1232 50.0447 58.126ZM48.7615 56.0039C48.9118 56.0045 49.0579 56.006 49.2 56.0068L46.2185 56.002L48.7615 56.0039Z" fill="white"/>
<path d="M62.3767 55.9951C62.4302 55.9952 62.4837 55.995 62.5388 55.9951C62.7103 55.9955 62.882 55.9962 63.0535 55.9971C63.1694 55.9974 63.2852 55.9978 63.4011 55.998C63.686 55.9988 63.9708 56.0006 64.2556 56.002C64.6421 56.9385 65.0245 57.8768 65.3962 58.8193C65.4137 58.8635 65.431 58.9076 65.449 58.9531C65.4855 59.0458 65.5218 59.1388 65.5583 59.2314C65.5866 59.3031 65.5872 59.3031 65.616 59.376C65.6352 59.4248 65.6538 59.4741 65.6736 59.5244C65.9498 60.2247 66.2286 60.9244 66.5066 61.624C66.5343 61.6937 66.562 61.7641 66.5906 61.8359C66.9361 62.7055 67.2831 63.5744 67.6326 64.4424C67.955 65.2442 68.2743 66.0475 68.5935 66.8506C68.62 66.9173 68.6463 66.984 68.6736 67.0527C68.803 67.3783 68.9324 67.7045 69.0613 68.0303C69.1705 68.3062 69.2811 68.5819 69.3914 68.8574C69.4472 68.9976 69.5026 69.1381 69.5583 69.2783C69.5847 69.3438 69.6113 69.4091 69.6384 69.4766C69.6624 69.5371 69.6869 69.5978 69.7117 69.6602C69.7329 69.7133 69.7542 69.7665 69.7761 69.8213C69.8216 69.9601 69.821 69.9608 69.821 70.1611H67.1394C66.924 69.6891 66.7195 69.224 66.5369 68.7402C66.5162 68.686 66.4947 68.6321 66.4734 68.5762C66.3974 68.3769 66.3224 68.177 66.2468 67.9775C66.0767 67.5299 65.9064 67.0823 65.7312 66.6211H60.3669C59.9536 67.6859 59.9538 67.686 59.5408 68.751C59.4889 68.8845 59.4364 69.0179 59.3845 69.1514C59.3577 69.2206 59.3311 69.29 59.3035 69.3613C59.2777 69.4276 59.2519 69.4942 59.2253 69.5625C59.203 69.62 59.18 69.678 59.157 69.7373C59.0976 69.8813 59.0287 70.0218 58.9587 70.1611H56.2097C56.4361 69.4845 56.4358 69.484 56.5632 69.1621C56.5917 69.09 56.6208 69.0176 56.6501 68.9434C56.6805 68.8671 56.7107 68.7905 56.7419 68.7119C56.7741 68.6307 56.8065 68.5495 56.8396 68.4658C57.0917 67.8297 57.3468 67.1943 57.6023 66.5596C57.8317 65.9895 58.059 65.4185 58.2839 64.8467C58.6422 63.936 59.0034 63.0265 59.365 62.1172C59.3952 62.0413 59.4257 61.9649 59.4568 61.8867C59.9374 60.6784 60.4209 59.4708 60.907 58.2646C60.9531 58.1501 60.9995 58.0355 61.0457 57.9209C61.0675 57.8666 61.0895 57.8118 61.1121 57.7559C61.2886 57.3163 61.4604 56.875 61.6296 56.4326C61.7953 56.0033 61.7957 56.0032 62.071 55.9941C62.1728 55.9942 62.2749 55.9944 62.3767 55.9951ZM62.9822 59.4072C62.6191 60.4621 62.2385 61.5101 61.8464 62.5547C61.7693 62.7599 61.6917 62.9655 61.615 63.1709C61.5784 63.2689 61.5785 63.2693 61.5427 63.3652C61.5192 63.4276 61.4962 63.4883 61.4734 63.5488C61.4517 63.6071 61.43 63.6642 61.4089 63.7207C61.3686 63.828 61.3381 63.9278 61.3113 64.0293L61.239 64.3496H64.8591C64.8591 64.2166 64.8596 64.2163 64.8152 64.0908C64.7933 64.0368 64.772 63.9841 64.7507 63.9316C64.743 63.9123 64.7349 63.8931 64.7273 63.874C64.7247 63.8672 64.7221 63.8607 64.7195 63.8545C64.7046 63.8172 64.6902 63.7801 64.6755 63.7432C64.3207 62.8531 63.9992 61.9526 63.6843 61.0479C63.6593 60.9757 63.6344 60.9049 63.6101 60.835C63.457 60.3944 63.3043 59.9536 63.1521 59.5127C63.1398 59.477 63.1279 59.4419 63.116 59.4072H62.9822Z" fill="white"/>
<path d="M146.999 56.1348V56.083C149.593 56.2434 150.119 56.7252 151.705 58.1846C152.48 58.9927 152.946 60.0101 153.234 61.0771C153.254 61.147 153.275 61.2171 153.296 61.2891C153.746 63.1045 153.457 65.3333 152.48 66.9463C152.399 67.0622 152.315 67.1768 152.229 67.2891C152.203 67.3233 152.177 67.3573 152.15 67.3926C151.233 68.5873 150.036 69.2461 148.608 69.6934C148.535 69.7173 148.46 69.741 148.385 69.7656C147.433 70.0482 146.419 70.1619 145.394 70.2002C145.436 70.1889 145.479 70.1782 145.522 70.166C145.531 70.1656 145.539 70.1655 145.548 70.165C146.015 70.1709 146.035 70.1683 147.046 70.0234C147.105 70.0148 147.163 70.0064 147.22 69.998C147.281 69.9897 147.34 69.9817 147.399 69.9736C147.458 69.9651 147.515 69.9565 147.572 69.9482C147.804 69.9151 147.918 69.8696 148.138 69.7598H147.535V69.8936C147.409 69.8923 147.283 69.8914 147.157 69.8906C147.105 69.8903 147.054 69.8899 147.003 69.8896C146.822 69.8877 146.643 69.8887 146.463 69.8936C146.339 69.9305 146.221 69.964 146.109 69.9971C146.059 70.0025 146.01 70.0084 145.961 70.0137C145.902 70.0196 145.845 70.0254 145.788 70.0312C145.675 70.0432 145.562 70.0555 145.45 70.0674C145.318 70.081 145.318 70.0804 145.188 70.0938V70.1611C145.236 70.1619 145.283 70.1623 145.329 70.1631C145.394 70.1637 145.456 70.1644 145.519 70.165C145.521 70.1651 145.523 70.165 145.525 70.165C145.524 70.1653 145.523 70.1657 145.522 70.166C144.404 70.2227 143.305 70.1882 142.111 70.1709C141.98 70.1681 141.85 70.1679 141.721 70.166C141.588 70.1429 141.448 70.1195 141.3 70.0938V56.0684C143.237 56.0911 145.118 56.1127 146.999 56.1348ZM143.78 68.0234C144.734 68.0234 145.597 68.0854 146.516 67.9316C146.624 67.9107 146.625 67.9101 146.73 67.8896C146.966 67.8498 147.199 67.8064 147.431 67.7539C148.585 67.44 149.528 66.8702 150.144 65.8193C150.181 65.7519 150.182 65.7517 150.218 65.6855C150.719 64.7652 150.793 63.8201 150.786 62.792C150.756 61.5049 150.378 60.3369 149.421 59.4248C149.35 59.3738 149.281 59.3239 149.212 59.2744C147.714 58.139 147.714 58.1387 143.78 58.1387V68.0234Z" fill="white"/>
<path d="M187.836 55.7119C189.65 55.7254 191.353 56.3379 192.661 57.6045C194.141 59.1225 194.647 61.224 194.629 63.2861C194.586 65.1084 194.081 66.8982 192.862 68.291C192.81 68.3566 192.756 68.4217 192.702 68.4893C191.683 69.6618 190.028 70.3104 188.504 70.4277C186.458 70.5179 184.572 70.2152 182.974 68.8467C181.645 67.6219 180.796 65.7902 180.719 63.9785C180.668 61.533 181.007 59.3337 182.75 57.4912C183.519 56.7501 184.523 56.2124 185.554 55.9346C185.616 55.916 185.68 55.8971 185.744 55.8779C186.354 55.7254 186.952 55.715 187.578 55.7139C187.663 55.7135 187.748 55.7123 187.836 55.7119ZM187.637 57.9219C187.318 57.9233 186.992 57.9029 186.68 57.9707C186.619 57.9882 186.619 57.9878 186.56 58.0049C186.029 58.1294 185.517 58.3429 185.089 58.6748C185.087 58.6741 185.085 58.6736 185.084 58.6729C185.071 58.6847 185.059 58.697 185.047 58.709C184.934 58.8001 184.825 58.8987 184.726 59.0078C184.688 59.0529 184.652 59.0968 184.615 59.1406C184.475 59.3086 184.346 59.4789 184.227 59.6562C184.222 59.6624 184.218 59.6687 184.213 59.6748H184.214C184.125 59.8075 184.042 59.944 183.965 60.0879C183.232 61.6766 183.154 63.6193 183.677 65.2852C184.055 66.3998 184.686 67.3251 185.76 67.8662C185.827 67.8969 185.891 67.9272 185.956 67.957C186.08 68.0143 186.206 68.0667 186.333 68.1152C187.485 68.4428 188.751 68.3023 189.795 67.7441C189.985 67.6265 190.161 67.4942 190.325 67.3516C190.612 67.2625 190.755 67.1435 190.918 66.8877C190.904 66.846 190.89 66.8053 190.876 66.7646C191.211 66.3294 191.46 65.8289 191.618 65.2832C191.637 65.2167 191.637 65.2165 191.655 65.1514C191.681 65.063 191.701 64.9732 191.724 64.8838C191.791 64.8612 191.857 64.8393 191.923 64.8174V63.8828H191.909C192.003 63.096 191.982 62.2926 191.831 61.5195C191.817 61.4602 191.804 61.4023 191.79 61.3447C191.613 60.5208 191.175 59.6126 190.583 59.0068C189.803 58.2863 188.923 57.9119 187.856 57.917C187.782 57.9184 187.709 57.9205 187.637 57.9219Z" fill="white"/>
</svg>
