<svg width="37" height="37" viewBox="0 0 37 37" fill="none" xmlns="http://www.w3.org/2000/svg">
<path d="M18.5 10.0361H10.4375M10.4375 10.0361H7.71056C6.26469 10.0361 4.78477 10.3729 3.89431 11.5124C2.94473 12.7289 1.92706 14.8001 1.92706 18.0986C1.92706 21.3952 2.94473 23.4682 3.89431 24.6847C4.78477 25.8242 6.26469 26.1611 7.71056 26.1611H10.4375M10.4375 10.0361V7.30913C10.4375 5.86326 10.7743 4.38334 11.9138 3.49288C13.1304 2.5433 15.2015 1.52563 18.5 1.52563C21.7966 1.52563 23.8696 2.5433 25.0861 3.49288C26.2256 4.38334 26.5625 5.86326 26.5625 7.30913V10.0361M18.5 26.1611H26.5625M26.5625 26.1611H29.2876C30.7335 26.1611 32.2152 25.8242 33.1039 24.6847C34.0552 23.4682 35.0729 21.397 35.0729 18.0986C35.0729 14.8019 34.0552 12.7289 33.1056 11.5124C32.2152 10.3729 30.7335 10.0361 29.2894 10.0361H26.5625M26.5625 26.1611V28.8862C26.5625 30.3321 26.2256 31.8138 25.0861 32.7024C23.8696 33.6538 21.7984 34.6715 18.5 34.6715C15.2033 34.6715 13.1304 33.6538 11.9138 32.7042C10.7743 31.8138 10.4375 30.332 10.4375 28.888V26.1611M26.5625 10.0361V14.5152C26.5625 15.4656 26.1849 16.377 25.5129 17.049C24.8409 17.721 23.9295 18.0986 22.9791 18.0986H14.0208C13.0705 18.0986 12.159 18.4761 11.487 19.1481C10.815 19.8201 10.4375 20.7315 10.4375 21.6819V26.1611" stroke="white" stroke-width="3" stroke-linecap="round" stroke-linejoin="round"/>
<path d="M22.5312 29.7446L22.6416 29.855M22.5312 29.7446L22.4209 29.855M22.5312 29.7446L22.6416 29.855M22.5312 29.7446L22.4209 29.855M22.6416 29.855C22.6123 29.8842 22.5726 29.9009 22.5312 29.9009C22.4899 29.9009 22.4502 29.8842 22.4209 29.855M22.6416 29.855C22.6708 29.8258 22.6874 29.786 22.6875 29.7446C22.6875 29.7238 22.6836 29.7029 22.6758 29.6841L22.6416 29.6343C22.6269 29.6196 22.6097 29.6079 22.5908 29.6001L22.5312 29.5884C22.5106 29.5884 22.4904 29.5924 22.4717 29.6001L22.4209 29.6343C22.3917 29.6636 22.375 29.7033 22.375 29.7446L22.3867 29.8042C22.3945 29.823 22.4063 29.8403 22.4209 29.855M14.4688 6.45264L14.5791 6.56299M14.4688 6.45264L14.3584 6.56299M14.4688 6.45264L14.5791 6.56299M14.4688 6.45264L14.3584 6.56299M14.5791 6.56299C14.5498 6.59229 14.5102 6.60889 14.4688 6.60889L14.4092 6.59717C14.3903 6.58939 14.3731 6.57771 14.3584 6.56299M14.5791 6.56299C14.6084 6.53369 14.625 6.49408 14.625 6.45264C14.625 6.43201 14.621 6.41177 14.6133 6.39307L14.5791 6.34229C14.5498 6.31298 14.5102 6.29639 14.4688 6.29639C14.4481 6.29639 14.4279 6.30039 14.4092 6.30811L14.3584 6.34229C14.3291 6.37159 14.3125 6.41119 14.3125 6.45264C14.3125 6.49408 14.3291 6.53369 14.3584 6.56299" fill="white" stroke="white" stroke-width="3"/>
</svg>
