<svg width="32" height="33" viewBox="0 0 32 33" fill="none" xmlns="http://www.w3.org/2000/svg">
<path d="M16.0013 12.5985C14.9405 12.5985 13.923 13.0199 13.1729 13.77C12.4228 14.5202 12.0013 15.5376 12.0013 16.5985C12.0013 17.6593 12.4228 18.6768 13.1729 19.4269C13.923 20.177 14.9405 20.5985 16.0013 20.5985C17.0622 20.5985 18.0796 20.177 18.8298 19.4269C19.5799 18.6768 20.0013 17.6593 20.0013 16.5985C20.0013 15.5376 19.5799 14.5202 18.8298 13.77C18.0796 13.0199 17.0622 12.5985 16.0013 12.5985ZM16.0013 9.9318C17.7694 9.9318 19.4651 10.6342 20.7154 11.8844C21.9656 13.1347 22.668 14.8304 22.668 16.5985C22.668 18.3666 21.9656 20.0623 20.7154 21.3125C19.4651 22.5628 17.7694 23.2651 16.0013 23.2651C14.2332 23.2651 12.5375 22.5628 11.2873 21.3125C10.037 20.0623 9.33466 18.3666 9.33466 16.5985C9.33466 14.8304 10.037 13.1347 11.2873 11.8844C12.5375 10.6342 14.2332 9.9318 16.0013 9.9318ZM24.668 9.59847C24.668 10.0405 24.4924 10.4644 24.1798 10.777C23.8673 11.0895 23.4434 11.2651 23.0013 11.2651C22.5593 11.2651 22.1354 11.0895 21.8228 10.777C21.5103 10.4644 21.3347 10.0405 21.3347 9.59847C21.3347 9.15644 21.5103 8.73252 21.8228 8.41996C22.1354 8.1074 22.5593 7.9318 23.0013 7.9318C23.4434 7.9318 23.8673 8.1074 24.1798 8.41996C24.4924 8.73252 24.668 9.15644 24.668 9.59847ZM16.0013 5.9318C12.7027 5.9318 12.164 5.94114 10.6293 6.00914C9.584 6.05847 8.88266 6.19847 8.232 6.4518C7.68777 6.6523 7.19562 6.97265 6.792 7.38914C6.37503 7.79263 6.05421 8.28479 5.85333 8.82914C5.6 9.48247 5.46 10.1825 5.412 11.2265C5.34266 12.6985 5.33333 13.2131 5.33333 16.5985C5.33333 19.8985 5.34266 20.4358 5.41066 21.9705C5.46 23.0145 5.6 23.7171 5.852 24.3665C6.07866 24.9465 6.34533 25.3638 6.788 25.8065C7.23733 26.2545 7.65466 26.5225 8.228 26.7438C8.88666 26.9985 9.588 27.1398 10.628 27.1878C12.1 27.2571 12.6147 27.2651 16 27.2651C19.3 27.2651 19.8373 27.2558 21.372 27.1878C22.4147 27.1385 23.116 26.9985 23.768 26.7465C24.3122 26.546 24.8044 26.2256 25.208 25.8091C25.6573 25.3611 25.9253 24.9438 26.1467 24.3691C26.4 23.7131 26.5413 23.0118 26.5893 21.9691C26.6587 20.4985 26.6667 19.9825 26.6667 16.5985C26.6667 13.2998 26.6573 12.7611 26.5893 11.2265C26.54 10.1838 26.3987 9.4798 26.1467 8.82914C25.9462 8.28491 25.6258 7.79276 25.2093 7.38914C24.8058 6.97217 24.3137 6.65135 23.7693 6.45047C23.116 6.19714 22.4147 6.05714 21.372 6.00914C19.9013 5.9398 19.3867 5.9318 16 5.9318M16 3.26514C19.6227 3.26514 20.0747 3.27847 21.4973 3.34514C22.916 3.4118 23.884 3.63447 24.7333 3.96514C25.6133 4.3038 26.3547 4.76247 27.096 5.50247C27.7743 6.16878 28.2989 6.9751 28.6333 7.86514C28.9627 8.71447 29.1867 9.68247 29.2533 11.1025C29.316 12.5238 29.3333 12.9758 29.3333 16.5985C29.3333 20.2211 29.32 20.6731 29.2533 22.0945C29.1867 23.5158 28.9627 24.4811 28.6333 25.3318C28.2989 26.2218 27.7743 27.0282 27.096 27.6945C26.4297 28.3727 25.6234 28.8974 24.7333 29.2318C23.884 29.5611 22.916 29.7851 21.4973 29.8518C20.0747 29.9145 19.6227 29.9318 16 29.9318C12.3773 29.9318 11.9253 29.9185 10.5027 29.8518C9.084 29.7851 8.11733 29.5611 7.26666 29.2318C6.37663 28.8974 5.57031 28.3727 4.904 27.6945C4.22574 27.0282 3.70109 26.2218 3.36666 25.3318C3.036 24.4825 2.81333 23.5145 2.74666 22.0945C2.68266 20.6731 2.66666 20.2211 2.66666 16.5985C2.66666 12.9758 2.68 12.5238 2.74666 11.1025C2.81333 9.68114 3.036 8.7158 3.36666 7.86514C3.70109 6.9751 4.22574 6.16878 4.904 5.50247C5.57031 4.82421 6.37663 4.29956 7.26666 3.96514C8.116 3.63447 9.08266 3.4118 10.5027 3.34514C11.9267 3.28247 12.3787 3.26514 16.0013 3.26514" fill="white"/>
</svg>
