<svg width="36" height="49" viewBox="0 0 36 49" fill="none" xmlns="http://www.w3.org/2000/svg">
<path d="M16.812 23.2226C15.252 22.9766 14.416 21.9146 14.832 18.6326L14.878 18.2366C15.228 15.3846 15.52 14.7506 16.87 14.8246C17.266 14.8506 17.722 15.1046 18.178 15.4846C18.6 15.9786 19.538 16.6206 20.068 17.8926C20.448 18.8246 20.576 19.4326 20.63 20.0886L20.714 20.8926V20.8886C20.768 21.2066 20.9331 21.495 21.18 21.7025C21.4269 21.9099 21.7395 22.0229 22.062 22.0212C22.3844 22.0195 22.6958 21.9033 22.9406 21.6933C23.1853 21.4833 23.3474 21.1931 23.398 20.8746C23.414 20.7866 23.75 12.1446 23.75 12.0026C23.75 11.2426 23.146 10.6226 22.39 10.6106C22.2101 10.6114 22.0321 10.6476 21.8662 10.7172C21.7003 10.7868 21.5497 10.8884 21.423 11.0161C21.2964 11.1439 21.1961 11.2954 21.128 11.4619C21.0599 11.6284 21.0252 11.8067 21.026 11.9866C21.026 12.0046 21.024 13.1966 20.998 14.3986C19.926 13.2146 18.552 12.1526 17.01 12.0586C12.894 11.8386 12.444 15.6806 12.172 17.8946L12.132 18.2866C11.576 22.6646 13.014 25.4246 16.392 25.9606C20.068 26.5466 22.518 27.4006 22.54 29.6966C22.554 30.5886 22.092 31.5026 21.286 32.2046C20.812 32.6181 20.2533 32.9231 19.6491 33.0983C19.0449 33.2734 18.4097 33.3145 17.788 33.2186C17.4207 33.1583 17.0598 33.0639 16.71 32.9366C16.23 32.6646 15.016 31.9166 14.402 31.0526C13.882 30.3246 13.702 29.1786 13.646 28.4526C13.654 28.1266 13.656 27.9126 13.656 27.8866C13.663 27.5233 13.5265 27.1719 13.276 26.9087C13.0255 26.6454 12.6812 26.4916 12.318 26.4806C11.9527 26.4774 11.601 26.6192 11.3401 26.8749C11.0791 27.1306 10.9302 27.4793 10.926 27.8446C10.926 27.8706 10.892 30.5786 10.794 32.2106C10.654 34.8366 10.794 37.0626 10.794 37.1586C10.85 37.9226 11.494 38.4986 12.248 38.4466C12.4282 38.4353 12.6043 38.3881 12.7661 38.308C12.9279 38.2278 13.0721 38.1163 13.1903 37.9798C13.3085 37.8434 13.3984 37.6847 13.4546 37.5132C13.5109 37.3416 13.5325 37.1606 13.518 36.9806C13.518 36.9686 13.452 35.8906 13.46 34.4006C14.6343 35.1725 15.9528 35.6985 17.336 35.9466C18.3502 36.1161 19.3894 36.0568 20.3776 35.7731C21.3659 35.4893 22.2783 34.9883 23.048 34.3066C24.474 33.0686 25.292 31.3786 25.268 29.6666C25.22 24.5566 19.538 23.6586 16.812 23.2226ZM22.348 0.598633C20.4373 0.599277 18.5596 1.09764 16.9 2.04463H16.676C11.402 2.04463 6.80202 4.82863 4.37602 9.50063C2.92002 12.2866 2.57602 15.0006 2.37802 16.6586C2.35402 16.8366 2.34202 16.9986 2.32202 17.1826C2.08202 19.1306 2.07602 20.9906 2.30202 22.7266C1.50721 24.296 1.07977 26.0257 1.05202 27.7846V27.8166C1.03552 29.1172 0.997514 30.4174 0.938023 31.7166C0.836595 33.6752 0.831255 35.6376 0.922023 37.5966L0.948023 38.0146C1.39602 43.9506 6.31802 48.5986 12.166 48.5986C14.6836 48.6083 17.1283 47.7541 19.092 46.1786C22.9304 46.0267 26.5994 44.5577 29.482 42.0186C33.134 38.8446 35.2 34.3286 35.142 29.6386C35.116 26.9146 34.45 24.3626 33.186 22.1126C33.42 19.5666 33.628 12.1206 33.628 12.0526C33.628 5.84663 28.66 0.712633 22.55 0.598633L22.348 0.598633ZM22.46 5.94863C25.744 6.00863 28.416 8.77263 28.416 12.1106C28.416 12.1866 28.126 21.1046 27.986 21.8766C27.903 22.3504 27.7668 22.8134 27.58 23.2566C29.092 25.0366 29.91 27.2566 29.93 29.7686C29.972 32.8786 28.568 35.9206 26.078 38.0886C23.9799 39.943 21.2782 40.9696 18.478 40.9766C17.9979 40.9734 17.5183 40.9413 17.042 40.8806C16.934 41.0292 16.8192 41.1726 16.698 41.3106C16.1386 41.9638 15.4439 42.4878 14.6621 42.8462C13.8804 43.2046 13.0301 43.389 12.17 43.3866C9.02402 43.3866 6.37602 40.8766 6.14402 37.6746L6.12802 37.4306C6.04382 35.6569 6.04715 33.8801 6.13802 32.1066C6.21602 30.7486 6.25802 28.4446 6.26202 27.9466C6.28233 26.4527 6.838 25.0156 7.82802 23.8966C7.35402 22.2266 7.20402 20.2246 7.49402 17.8566L7.54202 17.4326C7.70802 16.0426 7.95802 13.9926 8.98202 12.0326C10.512 9.08663 13.318 7.39663 16.678 7.39663C17.2304 7.39373 17.782 7.44058 18.326 7.53663C19.418 6.53663 20.866 5.91663 22.46 5.94863Z" fill="white"/>
</svg>
